<?xml version="1.0" encoding="utf-8"?>
<!-- Generator: Adobe Illustrator 23.0.0, SVG Export Plug-In . SVG Version: 6.00 Build 0)  -->
<svg version="1.1" id="Layer_1" xmlns="http://www.w3.org/2000/svg" xmlns:xlink="http://www.w3.org/1999/xlink" x="0px" y="0px"
	 viewBox="0 0 473 473" style="enable-background:new 0 0 473 473;" xml:space="preserve">
<style type="text/css">
	.st0{fill:#C12227;}
	.st1{fill:#E72A43;}
	.st2{fill:#FFFFFF;}
	.st3{stroke:#000000;stroke-width:25.1612;stroke-miterlimit:10;}
</style>
<g>
	<path class="st0" d="M66.1,425L28.2,0h416.6l-37.9,425L236,473"/>
	<path class="st1" d="M237,436l137.7-37.9l32.3-364H237"/>
</g>
<g>
	<g>
		<path class="st2" d="M230.9,362c-65.1-0.6-99.7-52.8-109.6-97.3c-2.1-9.6-2.6-19.3-2.7-22.1l-0.1-3.1l0.4-3.1
			c1.2-8.9,2-22,1.2-27.3c-2.9-19.2-1.2-34.6,5.7-50l0.3-0.7c15.3-35.8,48.7-55.2,99.1-57.6c3.6-0.2,7.2-0.3,10.9-0.3
			c77.8,0,103.1,43.6,110.4,62.3c10.4,26.8,12,82-1.5,115.5l-1.3,3.4c-5.1,13-12.9,32.5-29.5,49.4c-20.1,20.4-47.5,30.8-81.6,30.8
			L230.9,362z"/>
		<path d="M236,108.3c73.1,0,96.6,40.2,103.3,57.5c9.7,25,11.2,78.4-1.5,109.9l-1.3,3.4c-9.7,24.5-29.8,75.4-104,75.4H231
			c-60.6-0.6-93-49.6-102.2-91.3c-2.1-9.6-2.5-19.6-2.6-20.7l-0.1-2.4l0.3-2.4c1.1-8.1,2.2-22.6,1.1-29.5
			c-2.7-17.6-1.1-31.7,5.1-45.7l0.3-0.7c14.1-32.9,45.2-50.7,92.5-53C229,108.3,232.6,108.3,236,108.3 M236,93
			c-3.8,0-7.6,0.1-11.3,0.3c-25.9,1.3-48,7-65.5,17c-18.3,10.5-31.9,25.7-40.2,45.2l-0.3,0.7c-7.4,16.6-9.4,33.8-6.2,54.2
			c0.6,4.1,0.1,16-1.2,25.1l-0.3,2.4l-0.2,1.3v1.3l0.1,2.4l0,0l0,0c0.1,2.9,0.6,13.2,2.9,23.4c5.8,26.1,18.5,50.4,35.8,68.4
			c21.6,22.5,49.7,34.6,81.3,34.9h1.5h0.1h0.1c36.2,0,65.5-11.1,87-33.1c17.7-18,26.1-39.2,31.1-51.9l1.3-3.4
			c14.1-35.2,12.5-93,1.5-121.1c-4.4-11.3-13.5-27.8-31.7-41.8C299.9,101.5,271,93,236,93L236,93z"/>
	</g>
	<path class="st3" d="M154.3,241.4c0,0,3.3-23.5,1.1-37.6c-2.2-14.2-0.3-22.6,3-30s12.3-34.4,68.5-37.1
		c56.2-2.7,78.6,19.6,86.2,39.3c7.6,19.6,8.2,65.5-1.4,89.2c-9.5,23.7-21.5,61.7-80.5,61.1c-58.9-0.5-73.4-61.9-75-69.3
		C154.5,249.6,154.3,241.4,154.3,241.4z"/>
	<path class="st2" d="M205.1,151c0,0,1.8-8.8,9-9.2s14.8-0.4,15.4,11.9c0.6,12.3,0,16.9,0,16.9s0,5.7-8.4,6.2
		c-8.4,0.4-14.4,0.4-15.3-4.1c-0.9-4.5-1.2-16.6-0.7-21V151z"/>
	<path class="st2" d="M232.5,147.2c0,0,0.6-5.4,7.9-5.6c7.3-0.2,12.3-0.5,12,8.2s2.2,22-4.1,24.9s-15,1.6-15.8,0
		C231.6,173.2,231.8,151.6,232.5,147.2z"/>
	<path class="st2" d="M254.8,148.4c0,0,2.1-3.8,6.6-4.1c4.6-0.3,12.6-0.6,12.9,6.9s1,13.2,0,15.5c-1,2.4-3.4,7-12.8,6.6
		s-6.6-9.2-6.8-11.9C254.7,158.8,254.8,148.4,254.8,148.4z"/>
	<path class="st2" d="M278,152.1c0,0,4.1-1.8,9.4,0s7.2,5.3,7.3,11.4c0.1,6.2-4.1,10-10.9,9.9c-6.8-0.2-6.9-5-7.1-8.5
		C276.7,161.3,276.4,154,278,152.1z"/>
	<path class="st2" d="M202.2,154.3c0,0-4-5.7-8.9-6.3c-4.8-0.6-10.3,0.4-10.3,8.9s0,15.4,0,15.4s-0.3,4.5,7.5,4.2s9.8-1.7,10.9-4.2
		c1-2.5,1.5-6.3,1.3-10C202.6,157.8,202.2,154.3,202.2,154.3z"/>
	<path class="st2" d="M178.5,155.4c0,0-9.8,1.8-11.3,8.7s0,9.3,0,9.3s1,4.4,6.3,4.5s7.5-2.9,7.5-4.5s0-14.6,0-14.6
		S181.4,154.7,178.5,155.4z"/>
	<path class="st2" d="M161.5,212c0,0,25.5-20.7,55.8-14.6c17.7,3.6,23.8,6,25.7,7.3c1.4,1,1.4,0.7,2.6-0.3
		c4.1-3.5,14.5-10.8,29.2-8.1c19.1,3.4,36.3,15.1,39.9,32.9c0,0,3.9,13.3,0.4,24.6c-3.5,11.4-15,49-40.3,62.9s-61.9,10.9-74.9,2.4
		S164.4,294,156.6,259c0,0-2.7-15.2-2.4-17.5s1.7-16.5,1.8-22l0.1-2.9L161.5,212z"/>
</g>
</svg>
