<svg width="49" height="24" viewBox="0 0 49 24" fill="none" xmlns="http://www.w3.org/2000/svg">
<g clip-path="url(#clip0_332_361)">
<mask id="mask0_332_361" style="mask-type:alpha" maskUnits="userSpaceOnUse" x="0" y="0" width="49" height="24">
<path d="M45.1 0.5H3.79999C1.69999 0.5 0 2.2 0 4.3V19.7C0 21.8 1.69999 23.5 3.79999 23.5H45.1C47.2 23.5 48.9 21.8 48.9 19.7V4.3C48.9 2.2 47.2 0.5 45.1 0.5Z" fill="#50ABF1"/>
</mask>
<g mask="url(#mask0_332_361)">
<path d="M49 0.5H0V23.5H49V0.5Z" fill="#293136"/>
<path d="M49 0.5H0V23.5H49V0.5Z" fill="black"/>
<path d="M33.2001 16.6L30.9001 17.9C29.6001 17.9 28.6001 17.6 28.0001 17.2C27.4001 16.8 27.1001 15.9 27.1001 14.9C27.1001 14.2 27.2001 13.5 27.5001 12.9C27.8001 12.3 28.2001 11.7 28.8001 11.2C28.8001 10.9 28.6001 10.7 28.5001 10.7C28.4001 10.7 28.4001 10.7 28.3001 10.8C28.3001 10.9 28.2001 10.9 28.2001 11L27.9001 10.9C27.9001 10.3 28.0001 9.9 28.3001 9.5C28.6001 9.1 29.0001 8.89999 29.5001 8.89999C30.0001 8.89999 30.3001 8.99999 30.6001 9.29999C30.9001 9.59999 31.0001 9.89999 31.0001 10.3C31.0001 10.5 30.9001 10.8 30.8001 11C30.7001 11.2 30.5001 11.4 30.3001 11.5C30.5001 11.7 30.8001 11.9 31.0001 12C31.2001 12.1 31.4001 12.1 31.6001 12.1H32.5001V13.8H31.6001C31.0001 13.8 30.6001 13.7 30.2001 13.5C29.8001 13.2 29.5001 12.8 29.1001 12.1C28.6001 12.4 28.3001 12.7 28.0001 13.1C27.8001 13.5 27.6001 13.9 27.6001 14.3C27.6001 15 27.9001 15.6 28.6001 15.9C29.2001 16.2 30.2001 16.4 31.6001 16.4C31.8001 16.4 32.0001 16.4 32.3001 16.4C32.5001 16.4 32.8001 16.4 32.9001 16.4L33.2001 16.6Z" fill="white"/>
<path d="M36.0002 13.7H32.2002V12H35.4002C35.4002 11.7 35.3002 11.5 35.2002 11.3C35.1002 11.2 35.0002 11 34.8002 10.8L35.3002 9.29999C35.6002 9.59999 35.8002 9.99999 35.9002 10.4C36.0002 10.8 36.1002 11.3 36.1002 12.1V13.7H36.0002ZM35.3002 14.9L34.6002 16.3L33.2002 15.6L33.9002 14.2L35.3002 14.9Z" fill="white"/>
<path d="M39.4001 13.7H35.6001V12H38.8001C38.8001 11.7 38.7001 11.5 38.6001 11.3C38.5001 11.2 38.4001 11 38.2001 10.8L38.7001 9.29999C39.0001 9.59999 39.2001 9.99999 39.3001 10.4C39.4001 10.8 39.5001 11.3 39.5001 12.1V13.7H39.4001ZM39.3001 7.09999L38.7001 8.29999L37.8001 7.79999L37.3001 8.79999L36.2001 8.2L36.9001 7L37.8001 7.5L38.3001 6.5L39.3001 7.09999Z" fill="white"/>
<path d="M42.7999 13.7H38.8999V12H42.0999C42.0999 11.7 41.9999 11.5 41.8999 11.3C41.7999 11.2 41.6999 11 41.4999 10.8L41.9999 9.29999C42.2999 9.59999 42.4999 9.99999 42.5999 10.4C42.6999 10.8 42.7999 11.3 42.7999 12.1V13.7ZM42.6999 7.09999L42.0999 8.29999L41.1999 7.79999L40.6999 8.79999L39.5999 8.2L40.2999 7L41.1999 7.5L41.6999 6.5L42.6999 7.09999Z" fill="white"/>
<path d="M16.652 7H18.3756L14.6101 11.3037L19.0399 17.16H15.5714L12.8548 13.6082L9.74636 17.16H8.02176L12.0493 12.5567L7.7998 7H11.3563L13.8119 10.2465L16.652 7ZM16.0471 16.1284H17.0022L10.8374 7.97744H9.81253L16.0471 16.1284Z" fill="white"/>
</g>
</g>
<defs>
<clipPath id="clip0_332_361">
<rect width="49" height="23" fill="white" transform="translate(0 0.5)"/>
</clipPath>
</defs>
</svg>
