<svg width="58" height="24" viewBox="0 0 58 24" fill="none" xmlns="http://www.w3.org/2000/svg">
<g clip-path="url(#clip0_332_373)">
<mask id="mask0_332_373" style="mask-type:alpha" maskUnits="userSpaceOnUse" x="0" y="0" width="58" height="24">
<path d="M54.1 0.5H3.79999C1.69999 0.5 0 2.19999 0 4.29999V19.7C0 21.8 1.69999 23.5 3.79999 23.5H54.1C56.2 23.5 57.9 21.8 57.9 19.7V4.29999C57.9 2.19999 56.2 0.5 54.1 0.5Z" fill="#50ABF1"/>
</mask>
<g mask="url(#mask0_332_373)">
<path d="M58 0.5H0V23.5H58V0.5Z" fill="#293136"/>
<path d="M58 0.5H0V23.5H58V0.5Z" fill="black"/>
<path d="M32.1 15.4L32.2 16.1C30.5 16.6 28.7 17.1 27.6 17.4C27.6 17.5 27.5 17.6 27.4 17.6L27 16.7L27.6 16.5V12.1L28.6 12.2C28.6 12.3 28.5 12.3 28.4 12.4V16.4L29.4 16.2V11H27.7V7.2H31.6V11H30.1V12.8H32V13.6H30.1V16L32.1 15.4ZM28.5 7.90001V10.3H30.9V7.90001H28.5ZM35.6 12.7C35.8 13.4 36 14 36.2 14.6C36.8 14.2 37.6 13.6 38 13.1L38.7 13.8C38.7 13.8 38.6 13.9 38.5 13.9H38.4C37.9 14.3 37.1 14.9 36.4 15.3C37 16.3 37.8 17.1 38.8 17.5C38.6 17.7 38.4 18 38.2 18.2C36.3 17.2 35.2 15.3 34.6 12.7H33.4V16.7C34.1 16.5 35 16.3 35.8 16.1L35.9 16.8C34.5 17.2 33 17.6 32.1 17.8C32.1 17.9 32 18 31.9 18L31.5 17.1C31.8 17 32.2 16.9 32.6 16.9V7.10001H37.9V12.7H35.6ZM37.2 7.90001H33.5V9.5H37.2V7.90001ZM33.6 10.3V12H37.3V10.3H33.6Z" fill="white"/>
<path d="M42.8001 7.10001L43.3001 7.40001C43.3001 7.40001 43.3001 7.5 43.2001 7.5C42.9001 8.5 42.5001 9.8 42.2001 10.8C43.0001 11.9 43.3001 12.8 43.3001 13.6C43.3001 15.3 42.5001 15.4 41.6001 15.3C41.6001 15.1 41.5001 14.8 41.4001 14.6C41.6001 14.6 41.7001 14.6 41.9001 14.6C42.3001 14.6 42.6001 14.6 42.6001 13.5C42.6001 12.8 42.3001 11.9 41.6001 10.8C41.9001 9.8 42.2001 8.7 42.4001 7.8H40.9001V18.1H40.1001V7H42.6001L42.8001 7.10001ZM45.2001 12.7V15.8C45.6001 16.7 46.5001 17.2 47.6001 17.2C47.9001 17.2 48.3001 17.2 48.7001 17.2C49.6001 17.2 50.8001 17.2 51.5001 17.1C51.4001 17.3 51.3001 17.6 51.3001 17.9C50.7001 17.9 49.7001 17.9 48.8001 17.9C47.2001 17.9 45.9001 17.9 44.9001 16.4C44.4001 16.9 43.8001 17.5 43.4001 17.9C43.4001 18 43.4001 18.1 43.3001 18.1L42.8001 17.3C43.3001 16.9 43.9001 16.4 44.5001 15.8V13.4H43.3001V12.7H45.2001ZM44.4001 11.7C44.2001 11.2 43.6001 10.5 43.1001 10.1L43.7001 9.7C44.2001 10.2 44.8001 10.8 45.0001 11.3L44.4001 11.7ZM44.2001 6.90001C44.7001 7.40001 45.2001 8.1 45.3001 8.5L44.7001 8.90001C44.5001 8.40001 44.0001 7.7 43.6001 7.2L44.2001 6.90001ZM47.1001 9.60001V9.2C46.7001 10 46.2001 10.6 45.7001 11.1C45.6001 11 45.3001 10.8 45.1001 10.6C45.8001 10 46.3001 9.2 46.7001 8.2H45.5001V7.60001H46.9001C47.0001 7.20001 47.1001 6.9 47.2001 6.5L48.1001 6.7C48.1001 6.8 48.0001 6.8 47.8001 6.8C47.7001 7.1 47.7001 7.30001 47.6001 7.60001H51.1001V8.2H47.4001C47.3001 8.5 47.2001 8.7 47.1001 9H50.5001V9.60001H49.0001V10.5H51.1001V11.1H46.3001V10.5H48.3001V9.60001H47.1001ZM50.5001 11.8V15.8C50.5001 16.6 50.1001 16.6 48.8001 16.6C48.8001 16.4 48.7001 16.2 48.6001 16C48.8001 16 49.0001 16 49.2001 16C49.7001 16 49.7001 16 49.7001 15.8V15H47.0001V16.6H46.3001V11.8H50.5001ZM49.8001 12.4H47.1001V13.1H49.8001V12.4ZM47.1001 14.4H49.8001V13.7H47.1001V14.4Z" fill="white"/>
<path d="M16.652 7H18.3756L14.6101 11.3037L19.0399 17.16H15.5714L12.8548 13.6082L9.74636 17.16H8.02176L12.0493 12.5567L7.7998 7H11.3563L13.8119 10.2465L16.652 7ZM16.0471 16.1284H17.0022L10.8374 7.97744H9.81253L16.0471 16.1284Z" fill="white"/>
</g>
</g>
<defs>
<clipPath id="clip0_332_373">
<rect width="58" height="23" fill="white" transform="translate(0 0.5)"/>
</clipPath>
</defs>
</svg>
