<svg width="73" height="24" viewBox="0 0 73 24" fill="none" xmlns="http://www.w3.org/2000/svg">
<g clip-path="url(#clip0_332_383)">
<mask id="mask0_332_383" style="mask-type:alpha" maskUnits="userSpaceOnUse" x="0" y="0" width="73" height="24">
<path d="M69.1 0.5H3.79999C1.69999 0.5 0 2.20002 0 4.30002V19.7C0 21.8 1.69999 23.5 3.79999 23.5H69.1C71.2 23.5 72.9 21.8 72.9 19.7V4.30002C72.9 2.20002 71.2 0.5 69.1 0.5Z" fill="#50ABF1"/>
</mask>
<g mask="url(#mask0_332_383)">
<path d="M73 0.5H0V23.5H73V0.5Z" fill="#293136"/>
<path d="M73 0.5H0V23.5H73V0.5Z" fill="black"/>
<path d="M27.6001 15.5V6.5H33.7001V8H29.4001V10.1H33.1001V11.6H29.4001V15.4H27.6001V15.5Z" fill="white"/>
<path d="M34.7998 12.2C34.7998 11.6 34.8998 11.1 35.1998 10.5C35.4998 10 35.8998 9.59999 36.3998 9.29999C36.8998 8.99999 37.4998 8.89999 38.0998 8.89999C39.0998 8.89999 39.8998 9.19999 40.4998 9.89999C41.0998 10.6 41.3998 11.3 41.3998 12.3C41.3998 13.3 41.0998 14.1 40.4998 14.7C39.8998 15.3 39.0998 15.7 38.0998 15.7C37.4998 15.7 36.8998 15.6 36.3998 15.3C35.8998 15 35.3998 14.6 35.1998 14.1C34.9998 13.6 34.7998 12.9 34.7998 12.2ZM36.5998 12.3C36.5998 12.9 36.7998 13.4 37.0998 13.8C37.3998 14.1 37.7998 14.3 38.1998 14.3C38.5998 14.3 38.9998 14.1 39.2998 13.8C39.5998 13.5 39.7998 13 39.7998 12.3C39.7998 11.7 39.5998 11.2 39.2998 10.8C38.9998 10.5 38.5998 10.3 38.1998 10.3C37.7998 10.3 37.3998 10.5 37.0998 10.8C36.7998 11.1 36.5998 11.6 36.5998 12.3Z" fill="white"/>
<path d="M42.8999 15.5V6.5H44.5999V15.5H42.8999Z" fill="white"/>
<path d="M46.2 16L48.2 16.2C48.2 16.4 48.3 16.6 48.4 16.7C48.6 16.8 48.8 16.9 49.2 16.9C49.6 16.9 50 16.8 50.2 16.7C50.4 16.6 50.5 16.5 50.5 16.3C50.6 16.2 50.6 15.9 50.6 15.5V14.5C50.1 15.2 49.4 15.6 48.7 15.6C47.8 15.6 47.1 15.2 46.6 14.5C46.2 13.9 46 13.2 46 12.3C46 11.2 46.3 10.4 46.8 9.79999C47.3 9.19999 48 8.89999 48.8 8.89999C49.6 8.89999 50.3 9.3 50.8 10V9.10001H52.4V14.9C52.4 15.7 52.3 16.2 52.2 16.6C52.1 17 51.9 17.3 51.7 17.5C51.5 17.7 51.2 17.9 50.8 18C50.4 18.1 49.9 18.2 49.4 18.2C48.3 18.2 47.5 18 47.1 17.6C46.6 17.2 46.4 16.7 46.4 16.2C46.2 16.1 46.2 16 46.2 16ZM47.7 12.1C47.7 12.8 47.8 13.3 48.1 13.6C48.4 13.9 48.7 14.1 49.1 14.1C49.5 14.1 49.9 13.9 50.2 13.6C50.5 13.3 50.6 12.8 50.6 12.1C50.6 11.4 50.5 10.9 50.2 10.6C49.9 10.3 49.6 10.1 49.1 10.1C48.7 10.1 48.3 10.3 48.1 10.6C47.9 11 47.7 11.5 47.7 12.1Z" fill="white"/>
<path d="M57.8001 13.5L59.5001 13.8C59.3001 14.4 58.9001 14.9 58.5001 15.2C58.0001 15.5 57.4001 15.7 56.7001 15.7C55.6001 15.7 54.7001 15.3 54.2001 14.6C53.8001 14 53.6001 13.3 53.6001 12.4C53.6001 11.3 53.9001 10.5 54.4001 9.89999C55.0001 9.29999 55.7001 9 56.5001 9C57.5001 9 58.2001 9.3 58.8001 10C59.4001 10.6 59.6001 11.6 59.6001 12.9H55.3001C55.3001 13.4 55.5001 13.8 55.7001 14.1C55.9001 14.4 56.3001 14.5 56.7001 14.5C57.0001 14.5 57.2001 14.4 57.4001 14.3C57.5001 14 57.7001 13.8 57.8001 13.5ZM57.9001 11.7C57.9001 11.2 57.8001 10.8 57.5001 10.6C57.3001 10.3 57.0001 10.2 56.6001 10.2C56.2001 10.2 55.9001 10.3 55.7001 10.6C55.5001 10.9 55.3001 11.2 55.3001 11.7H57.9001Z" fill="white"/>
<path d="M66.9 15.5H65.2V12.2C65.2 11.5 65.2001 11 65.1001 10.8C65.0001 10.6 64.9 10.4 64.7 10.3C64.5 10.2 64.3001 10.1 64.1001 10.1C63.8001 10.1 63.5 10.2 63.3 10.3C63.1 10.4 62.9 10.7 62.8 10.9C62.7 11.2 62.7 11.7 62.7 12.4V15.3H61V8.79999H62.6001V9.79999C63.2001 9.09999 63.9 8.70001 64.7 8.70001C65.1 8.70001 65.4 8.79999 65.7 8.89999C66 8.99999 66.3 9.19999 66.4 9.39999C66.5 9.59999 66.7 9.90001 66.7 10.1C66.8 10.4 66.8 10.8 66.8 11.3V15.5H66.9Z" fill="white"/>
<path d="M16.652 7H18.3756L14.6101 11.3037L19.0399 17.16H15.5714L12.8548 13.6082L9.74636 17.16H8.02176L12.0493 12.5567L7.7998 7H11.3563L13.8119 10.2465L16.652 7ZM16.0471 16.1284H17.0022L10.8374 7.97744H9.81253L16.0471 16.1284Z" fill="white"/>
</g>
</g>
<defs>
<clipPath id="clip0_332_383">
<rect width="73" height="23" fill="white" transform="translate(0 0.5)"/>
</clipPath>
</defs>
</svg>
