<svg width="93" height="24" viewBox="0 0 93 24" fill="none" xmlns="http://www.w3.org/2000/svg">
<g clip-path="url(#clip0_332_397)">
<mask id="mask0_332_397" style="mask-type:alpha" maskUnits="userSpaceOnUse" x="0" y="0" width="93" height="24">
<path d="M89.1 0.5H3.79999C1.69999 0.5 0 2.19999 0 4.29999V19.7C0 21.8 1.69999 23.5 3.79999 23.5H89.1C91.2 23.5 92.9 21.8 92.9 19.7V4.29999C92.9 2.19999 91.2 0.5 89.1 0.5Z" fill="#50ABF1"/>
</mask>
<g mask="url(#mask0_332_397)">
<path d="M93 0.5H0V23.5H93V0.5Z" fill="#293136"/>
<path d="M93 0.5H0V23.5H93V0.5Z" fill="black"/>
<path d="M32.5002 10.1H34.0002C33.8002 10.6 33.6002 11.2 33.4002 11.9C33.2002 12.6 33.2002 13.2 33.2002 13.4C33.2002 13.8 33.3002 14.3 33.4002 14.9C33.5002 15.5 33.7002 16.1 33.9002 16.6H32.5002C32.5002 16.5 32.4002 16.4 32.4002 16.3C32.3002 16.1 32.2002 15.8 32.2002 15.6C31.7002 16.4 31.0002 16.8 30.1002 16.8C29.2002 16.8 28.5002 16.4 28.0002 15.7C27.5002 15 27.2002 14.2 27.2002 13.2C27.2002 12.3 27.5002 11.5 28.0002 10.9C28.5002 10.3 29.2002 10 30.1002 10C31.0002 10 31.7002 10.4 32.2002 11.3C32.2002 10.9 32.3002 10.5 32.5002 10.1ZM28.9002 13.4C28.9002 14 29.0002 14.5 29.3002 14.9C29.6002 15.3 29.9002 15.5 30.3002 15.5C30.7002 15.5 31.0002 15.3 31.3002 15C31.6002 14.7 31.7002 14.2 31.7002 13.5C31.7002 12.8 31.6002 12.3 31.3002 12C31.0002 11.7 30.7002 11.5 30.3002 11.5C29.9002 11.5 29.6002 11.7 29.3002 12C29.1002 12.2 28.9002 12.7 28.9002 13.4Z" fill="white"/>
<path d="M35.2998 10.1H36.9998V12.3L38.9998 10.1H41.0998L38.4998 12.9L41.2998 16.6H39.2998L37.3998 14L36.9998 14.4V16.6H35.2998V10.1Z" fill="white"/>
<path d="M41.5 13.3C41.5 12.7 41.6 12.2 41.9 11.6C42.2 11.1 42.6 10.7 43.1 10.4C43.6 10.1 44.2 10 44.8 10C45.8 10 46.6 10.3 47.2 11C47.8 11.6 48.1 12.4 48.1 13.4C48.1 14.4 47.8 15.2 47.1 15.8C46.5 16.4 45.7 16.8 44.7 16.8C44.1 16.8 43.5 16.7 43 16.4C42.5 16.1 42 15.7 41.8 15.2C41.6 14.7 41.5 14 41.5 13.3ZM43.2 13.3C43.2 13.9 43.4 14.4 43.7 14.8C44 15.1 44.4 15.3 44.8 15.3C45.2 15.3 45.6 15.1 45.9 14.8C46.2 14.5 46.4 14 46.4 13.3C46.4 12.7 46.2 12.2 45.9 11.8C45.6 11.5 45.2 11.3 44.8 11.3C44.4 11.3 44 11.5 43.7 11.8C43.4 12.2 43.2 12.7 43.2 13.3Z" fill="white"/>
<path d="M55.4001 16.6H53.6001L52.5001 13.7C52.4001 13.3 52.2001 12.8 52.0001 12.2C51.8001 12.7 51.7001 13.2 51.5001 13.6L50.4001 16.6H48.6001L51.1001 10.1L50.2001 7.60001H51.9001L52.9001 10.1L55.4001 16.6Z" fill="white"/>
<path d="M55.8999 13.3C55.8999 12.7 55.9999 12.2 56.2999 11.6C56.5999 11.1 56.9999 10.7 57.4999 10.4C57.9999 10.1 58.5999 10 59.1999 10C60.1999 10 60.9999 10.3 61.5999 11C62.1999 11.6 62.4999 12.4 62.4999 13.4C62.4999 14.4 62.1999 15.2 61.4999 15.8C60.8999 16.4 60.0999 16.8 59.0999 16.8C58.4999 16.8 57.8999 16.7 57.3999 16.4C56.8999 16.1 56.3999 15.7 56.1999 15.2C55.9999 14.7 55.8999 14 55.8999 13.3ZM57.6999 13.3C57.6999 13.9 57.8999 14.4 58.1999 14.8C58.4999 15.1 58.8999 15.3 59.2999 15.3C59.6999 15.3 60.0999 15.1 60.3999 14.8C60.6999 14.5 60.8999 14 60.8999 13.3C60.8999 12.7 60.6999 12.2 60.3999 11.8C60.0999 11.5 59.6999 11.3 59.2999 11.3C58.8999 11.3 58.4999 11.5 58.1999 11.8C57.7999 12.2 57.6999 12.7 57.6999 13.3Z" fill="white"/>
<path d="M63.8002 10.1H65.5002V13.4C65.5002 14.2 65.6002 14.7 65.8002 15C66.0002 15.2 66.3002 15.4 66.7002 15.4C67.1002 15.4 67.4002 15.3 67.6002 15C67.8002 14.7 67.9002 14.2 67.9002 13.5V10.2H69.6002V13.2C69.6002 14.1 69.5002 14.7 69.3002 15.2C69.1002 15.7 68.8002 16.1 68.3002 16.3C67.8002 16.6 67.3002 16.7 66.7002 16.7C66.0002 16.7 65.5002 16.6 65.0002 16.3C64.5002 16 64.2002 15.6 64.0002 15.1C63.8002 14.6 63.7002 14 63.7002 13.1V10.1H63.8002Z" fill="white"/>
<path d="M73.6998 7.5C75.5998 7.5 76.5998 9.00001 76.5998 12.1C76.5998 15.2 75.5998 16.7 73.6998 16.7C72.7998 16.7 72.0998 16.4 71.5998 15.7C71.0998 15 70.7998 13.8 70.7998 12.1C70.7998 9.00001 71.7998 7.5 73.6998 7.5ZM74.8998 11.4C74.8998 10.4 74.7998 9.69999 74.5998 9.39999C74.3998 9.09999 74.0998 8.89999 73.7998 8.89999C73.4998 8.89999 73.1998 9.09999 72.9998 9.39999C72.7998 9.69999 72.6998 10.4 72.6998 11.4H74.8998ZM74.8998 12.8H72.5998C72.5998 13.8 72.6998 14.5 72.8998 14.8C73.0998 15.1 73.3998 15.3 73.6998 15.3C73.9998 15.3 74.2998 15.1 74.4998 14.8C74.6998 14.5 74.7998 13.8 74.8998 12.8Z" fill="white"/>
<path d="M78.4998 10.1H80.0998C79.5998 11.2 79.2998 12.4 79.2998 13.5C79.2998 14.2 79.3998 14.6 79.6998 14.9C79.9998 15.2 80.1998 15.3 80.4998 15.3C80.6998 15.3 80.8998 15.2 81.0998 15.1C81.2998 15 81.3998 14.8 81.3998 14.6C81.3998 14.4 81.4998 14.1 81.4998 13.7V11.7H83.1998V13.7C83.1998 14.1 83.1998 14.4 83.2998 14.6C83.3998 14.8 83.4998 15 83.5998 15.1C83.7998 15.2 83.9998 15.3 84.1998 15.3C84.4998 15.3 84.7998 15.2 85.0998 14.9C85.2998 14.6 85.3998 14.1 85.3998 13.4C85.3998 12.9 85.2998 12.4 85.1998 11.8C85.0998 11.2 84.8998 10.6 84.5998 10.1H86.1998C86.3998 10.5 86.5998 11 86.7998 11.7C86.9998 12.4 87.0998 13 87.0998 13.5C87.0998 14.5 86.7998 15.2 86.2998 15.8C85.7998 16.4 85.0998 16.7 84.2998 16.7C83.2998 16.7 82.5998 16.2 82.1998 15.3C81.7998 16.2 81.0998 16.7 80.0998 16.7C79.2998 16.7 78.5998 16.4 78.0998 15.8C77.5998 15.2 77.2998 14.4 77.2998 13.5C77.2998 12.9 77.3998 12.3 77.5998 11.7C78.0998 11 78.2998 10.5 78.4998 10.1Z" fill="white"/>
<path d="M16.652 7H18.3756L14.6101 11.3037L19.0399 17.16H15.5714L12.8548 13.6082L9.74636 17.16H8.02176L12.0493 12.5567L7.7998 7H11.3563L13.8119 10.2465L16.652 7ZM16.0471 16.1284H17.0022L10.8374 7.97744H9.81253L16.0471 16.1284Z" fill="white"/>
</g>
</g>
<defs>
<clipPath id="clip0_332_397">
<rect width="93" height="23" fill="white" transform="translate(0 0.5)"/>
</clipPath>
</defs>
</svg>
