<svg width="73" height="24" viewBox="0 0 73 24" fill="none" xmlns="http://www.w3.org/2000/svg">
<g clip-path="url(#clip0_332_413)">
<mask id="mask0_332_413" style="mask-type:alpha" maskUnits="userSpaceOnUse" x="0" y="0" width="73" height="24">
<path d="M69.1 0.5H3.79999C1.69999 0.5 0 2.19999 0 4.29999V19.7C0 21.8 1.69999 23.5 3.79999 23.5H69.1C71.2 23.5 72.9 21.8 72.9 19.7V4.29999C72.9 2.19999 71.2 0.5 69.1 0.5Z" fill="#50ABF1"/>
</mask>
<g mask="url(#mask0_332_413)">
<path d="M73 0.5H0V23.5H73V0.5Z" fill="#293136"/>
<path d="M73 0.5H0V23.5H73V0.5Z" fill="black"/>
<path d="M27.6001 16.5V7.5H33.7001V9H29.4001V11.1H33.1001V12.6H29.4001V16.4H27.6001V16.5Z" fill="white"/>
<path d="M34.7998 13.1C34.7998 12.5 34.8998 12 35.1998 11.4C35.4998 10.9 35.8998 10.5 36.3998 10.2C36.8998 9.90001 37.4998 9.79999 38.0998 9.79999C39.0998 9.79999 39.8998 10.1 40.4998 10.8C41.0998 11.5 41.3998 12.2 41.3998 13.2C41.3998 14.2 41.0998 15 40.4998 15.6C39.8998 16.2 39.0998 16.6 38.0998 16.6C37.4998 16.6 36.8998 16.5 36.3998 16.2C35.8998 15.9 35.3998 15.5 35.1998 15C34.9998 14.5 34.7998 13.9 34.7998 13.1ZM36.5998 13.2C36.5998 13.8 36.7998 14.3 37.0998 14.7C37.3998 15 37.7998 15.2 38.1998 15.2C38.5998 15.2 38.9998 15 39.2998 14.7C39.5998 14.4 39.7998 13.9 39.7998 13.2C39.7998 12.6 39.5998 12.1 39.2998 11.7C38.9998 11.4 38.5998 11.2 38.1998 11.2C37.7998 11.2 37.3998 11.4 37.0998 11.7C36.7998 12.1 36.5998 12.6 36.5998 13.2Z" fill="white"/>
<path d="M42.8999 16.5V7.5H44.5999V16.5H42.8999Z" fill="white"/>
<path d="M46.3999 16.5V7.5H48.0999V16.5H46.3999Z" fill="white"/>
<path d="M49.3999 13.1C49.3999 12.5 49.4999 12 49.7999 11.4C50.0999 10.9 50.4999 10.5 50.9999 10.2C51.4999 9.90001 52.0999 9.79999 52.6999 9.79999C53.6999 9.79999 54.4999 10.1 55.0999 10.8C55.6999 11.4 55.9999 12.2 55.9999 13.2C55.9999 14.2 55.6999 15 54.9999 15.6C54.3999 16.2 53.5999 16.6 52.5999 16.6C51.9999 16.6 51.3999 16.5 50.8999 16.2C50.3999 15.9 49.8999 15.5 49.6999 15C49.4999 14.5 49.3999 13.9 49.3999 13.1ZM51.1999 13.2C51.1999 13.8 51.3999 14.3 51.6999 14.7C51.9999 15 52.3999 15.2 52.7999 15.2C53.1999 15.2 53.5999 15 53.8999 14.7C54.1999 14.4 54.3999 13.9 54.3999 13.2C54.3999 12.6 54.1999 12.1 53.8999 11.7C53.5999 11.4 53.1999 11.2 52.7999 11.2C52.3999 11.2 51.9999 11.4 51.6999 11.7C51.3999 12.1 51.1999 12.6 51.1999 13.2Z" fill="white"/>
<path d="M58.7001 16.5L56.6001 10H58.3001L59.5001 14.3L60.6001 10H62.3001L63.4001 14.3L64.6002 10H66.3001L64.2001 16.5H62.5001L61.4001 12.3L60.3001 16.5H58.7001Z" fill="white"/>
<path d="M16.652 7H18.3756L14.6101 11.3037L19.0399 17.16H15.5714L12.8548 13.6082L9.74636 17.16H8.02176L12.0493 12.5567L7.7998 7H11.3563L13.8119 10.2465L16.652 7ZM16.0471 16.1284H17.0022L10.8374 7.97744H9.81253L16.0471 16.1284Z" fill="white"/>
</g>
</g>
<defs>
<clipPath id="clip0_332_413">
<rect width="73" height="23" fill="white" transform="translate(0 0.5)"/>
</clipPath>
</defs>
</svg>
