<svg width="72" height="24" viewBox="0 0 72 24" fill="none" xmlns="http://www.w3.org/2000/svg">
<g clip-path="url(#clip0_332_427)">
<mask id="mask0_332_427" style="mask-type:alpha" maskUnits="userSpaceOnUse" x="0" y="0" width="72" height="24">
<path d="M68.1 0.5H3.79999C1.69999 0.5 0 2.19999 0 4.29999V19.7C0 21.8 1.69999 23.5 3.79999 23.5H68.1C70.2 23.5 71.9 21.8 71.9 19.7V4.29999C71.9 2.19999 70.2 0.5 68.1 0.5Z" fill="#50ABF1"/>
</mask>
<g mask="url(#mask0_332_427)">
<path d="M72 0.5H0V23.5H72V0.5Z" fill="#293136"/>
<path d="M72 0.5H0V23.5H72V0.5Z" fill="black"/>
<path d="M27.1001 12.8L28.9001 12.6C29.0001 13.2 29.2001 13.6 29.5001 13.9C29.8001 14.2 30.3001 14.3 30.8001 14.3C31.4001 14.3 31.8001 14.2 32.1001 13.9C32.4001 13.7 32.5001 13.4 32.5001 13C32.5001 12.8 32.4001 12.6 32.3001 12.5C32.2001 12.4 32.0001 12.2 31.6001 12.1C31.4001 12 30.9001 11.9 30.2001 11.7C29.2001 11.5 28.5001 11.2 28.2001 10.8C27.6001 10.3 27.4001 9.7 27.4001 9C27.4001 8.5 27.5001 8.09995 27.8001 7.69995C28.1001 7.29995 28.4001 6.99999 28.9001 6.79999C29.4001 6.59999 30.0001 6.5 30.7001 6.5C31.8001 6.5 32.7001 6.69995 33.2001 7.19995C33.7001 7.69995 34.1001 8.39995 34.1001 9.19995L32.3001 9.29999C32.2001 8.79999 32.1001 8.49999 31.8001 8.29999C31.5001 8.09999 31.2001 8 30.7001 8C30.2001 8 29.8001 8.09999 29.5001 8.29999C29.3001 8.39999 29.2001 8.59996 29.2001 8.89996C29.2001 9.09996 29.3001 9.29996 29.5001 9.39996C29.7001 9.59996 30.3001 9.8 31.2001 10C32.1001 10.2 32.7001 10.4 33.2001 10.6C33.6001 10.8 34.0001 11.1 34.2001 11.5C34.4001 11.9 34.6001 12.4 34.6001 12.9C34.6001 13.4 34.5001 13.9 34.2001 14.3C33.9001 14.7 33.5001 15.1 33.0001 15.3C32.5001 15.5 31.8001 15.6 31.1001 15.6C30.0001 15.6 29.1001 15.3 28.5001 14.8C27.6001 14.5 27.3001 13.8 27.1001 12.8Z" fill="white"/>
<path d="M39.7 13.6L41.4 13.9C41.2 14.5 40.8 15 40.4 15.3C39.9 15.6 39.3 15.8 38.6 15.8C37.5 15.8 36.6 15.4 36.1 14.7C35.7 14.1 35.5 13.4 35.5 12.5C35.5 11.4 35.8 10.6 36.3 10C36.9 9.4 37.6 9.09998 38.4 9.09998C39.4 9.09998 40.1 9.39998 40.7 10.1C41.3 10.7 41.5 11.7 41.5 13H37.2C37.2 13.5 37.4 13.9 37.6 14.2C37.9 14.5 38.2 14.6 38.6 14.6C38.9 14.6 39.1 14.5 39.3 14.4C39.5 14.2 39.6 13.9 39.7 13.6ZM39.8 11.9C39.8 11.4 39.7 11 39.4 10.8C39.2 10.5 38.9 10.4 38.5 10.4C38.1 10.4 37.8 10.5 37.6 10.8C37.4 11.1 37.2 11.4 37.2 11.9H39.8Z" fill="white"/>
<path d="M42.7 16.1L44.7 16.3C44.7 16.5 44.8 16.7 44.9 16.8C45.1 16.9 45.3 17 45.7 17C46.1 17 46.5 16.9 46.7 16.8C46.9 16.7 47 16.6 47 16.4C47.1 16.3 47.1 16 47.1 15.6V14.6C46.6 15.3 45.9 15.7 45.2 15.7C44.3 15.7 43.6 15.3 43.1 14.6C42.7 14 42.5 13.3 42.5 12.4C42.5 11.3 42.8 10.5 43.3 9.89996C43.8 9.29996 44.5 9 45.3 9C46.1 9 46.8 9.39998 47.3 10.1V9.19995H48.9V15C48.9 15.8 48.8 16.3 48.7 16.7C48.6 17.1 48.4 17.4 48.2 17.6C48 17.8 47.7 18 47.3 18.1C46.9 18.2 46.4 18.3 45.9 18.3C44.8 18.3 44 18.1 43.6 17.7C43.1 17.3 42.9 16.8 42.9 16.3C42.7 16.2 42.7 16.2 42.7 16.1ZM44.3 12.3C44.3 13 44.4 13.5 44.7 13.8C45 14.1 45.3 14.3 45.7 14.3C46.1 14.3 46.5 14.1 46.8 13.8C47.1 13.5 47.2 13 47.2 12.3C47.2 11.6 47.1 11.1 46.8 10.8C46.5 10.5 46.2 10.3 45.7 10.3C45.3 10.3 44.9 10.5 44.7 10.8C44.4 11.1 44.3 11.6 44.3 12.3Z" fill="white"/>
<path d="M54.8 15.7V14.7C54.6 15 54.3 15.3 53.9 15.5C53.5 15.7 53.1 15.8 52.7 15.8C52.3 15.8 51.9 15.7 51.5 15.5C51.1 15.3 50.9 15 50.7 14.7C50.5 14.4 50.5 13.9 50.5 13.3V9.19995H52.2V12.2C52.2 13.1 52.2 13.7 52.3 13.9C52.4 14.1 52.5 14.3 52.6 14.4C52.7 14.5 53 14.6 53.2 14.6C53.5 14.6 53.8 14.5 54 14.4C54.2 14.2 54.4 14 54.5 13.8C54.6 13.6 54.6 13 54.6 12V9.29999H56.3V15.8H54.8V15.7Z" fill="white"/>
<path d="M58.2002 8.29999V6.69995H59.9002V8.29999H58.2002ZM58.2002 15.7V9.19995H59.9002V15.7H58.2002Z" fill="white"/>
<path d="M63.3001 15.7H61.6001V9.19995H63.2001V10.1C63.5001 9.69998 63.7001 9.39995 63.9001 9.19995C64.1001 9.09995 64.4002 9 64.6002 9C65.0002 9 65.4001 9.09999 65.7001 9.29999L65.2001 10.8C64.9001 10.6 64.6001 10.5 64.4001 10.5C64.2001 10.5 64.0001 10.6 63.8001 10.7C63.6001 10.8 63.5001 11.1 63.4001 11.4C63.3001 11.7 63.3001 12.5 63.3001 13.6V15.7Z" fill="white"/>
<path d="M16.652 7H18.3756L14.6101 11.3037L19.0399 17.16H15.5714L12.8548 13.6082L9.74636 17.16H8.02176L12.0493 12.5567L7.7998 7H11.3563L13.8119 10.2465L16.652 7ZM16.0471 16.1284H17.0022L10.8374 7.97744H9.81253L16.0471 16.1284Z" fill="white"/>
</g>
</g>
<defs>
<clipPath id="clip0_332_427">
<rect width="72" height="23" fill="white" transform="translate(0 0.5)"/>
</clipPath>
</defs>
</svg>
