<svg width="93" height="24" viewBox="0 0 93 24" fill="none" xmlns="http://www.w3.org/2000/svg">
<g clip-path="url(#clip0_332_441)">
<mask id="mask0_332_441" style="mask-type:alpha" maskUnits="userSpaceOnUse" x="0" y="0" width="93" height="24">
<path d="M89.1 0.5H3.79999C1.69999 0.5 0 2.19999 0 4.29999V19.7C0 21.8 1.69999 23.5 3.79999 23.5H89.1C91.2 23.5 92.9 21.8 92.9 19.7V4.29999C92.9 2.19999 91.2 0.5 89.1 0.5Z" fill="#50ABF1"/>
</mask>
<g mask="url(#mask0_332_441)">
<path d="M93 0.5H0V23.5H93V0.5Z" fill="#293136"/>
<path d="M93 0.5H0V23.5H93V0.5Z" fill="black"/>
<path d="M33.9001 12.6C33.9001 12.8 33.9001 13 33.8001 13.2C33.8001 13.3 33.7001 13.5 33.5001 13.8C33.4001 13.5 33.3001 13.3 33.2001 13.2C33.1001 13.1 33.0001 13.1 32.9001 13.1C32.7001 13.1 32.4001 13.2 32.0001 13.5C31.6001 13.8 31.4001 14 31.4001 14.1C31.4001 14.2 31.5001 14.3 31.6001 14.3C31.7001 14.3 31.9001 14.3 32.1001 14.3C32.2001 14.3 32.2001 14.3 32.3001 14.3C32.4001 14.3 32.4001 14.3 32.5001 14.3C32.9001 14.3 33.2001 14.3 33.4001 14.4C33.5001 14.5 33.6001 14.6 33.6001 14.9C33.6001 15.3 33.5001 15.8 33.4001 16.2C33.2001 16.7 32.9001 17.1 32.5001 17.3C32.0001 17.6 31.5001 17.8 31.0001 18C30.5001 18.2 30.0001 18.3 29.5001 18.3C28.2001 18.3 27.6001 17.7 27.6001 16.6C27.6001 16 27.7001 15.5 27.8001 15.1C28.0001 14.6 28.3001 14 28.8001 13.2L29.1001 13.4C28.8001 13.9 28.6001 14.4 28.4001 14.8C28.2001 15.2 28.2001 15.5 28.2001 15.8C28.2001 16.6 28.6001 17 29.5001 17C29.8001 17 30.1001 17 30.4001 16.9C30.7001 16.8 31.0001 16.8 31.3001 16.7C31.5001 16.6 31.7001 16.5 32.0001 16.4C32.4001 16.2 32.6001 16.1 32.6001 16.1C32.8001 16 32.9001 15.9 32.9001 15.8C32.9001 15.8 32.8001 15.7 32.6001 15.7C32.4001 15.7 32.3001 15.7 32.2001 15.7C31.6001 15.7 31.2001 15.6 30.9001 15.4C30.7001 15.3 30.6001 15 30.6001 14.6C30.6001 14.4 30.7001 14.2 30.8001 13.9C30.9001 13.6 31.1001 13.3 31.3001 13.1C31.6001 12.7 31.9001 12.3 32.2001 12.1C32.5001 11.9 32.8001 11.8 33.1001 11.8C33.3001 11.8 33.5001 11.9 33.7001 12.1C33.9001 12.3 33.9001 12.2 33.9001 12.6Z" fill="white"/>
<path d="M40.1998 15.7C40.1998 15.9 40.0998 16.3 39.7998 16.7C39.4998 17.1 39.1998 17.5 38.7998 17.8C38.3998 18.1 37.9998 18.3 37.6998 18.3C37.2998 18.3 36.9998 18.2 36.4998 18C36.0998 17.8 35.5998 17.5 34.7998 16.9L35.0998 16.5C35.4998 16.7 35.7998 16.9 35.9998 17C36.1998 17.1 36.4998 17.1 36.6998 17.1C36.9998 17.1 37.2998 17 37.4998 16.9C37.6998 16.8 38.1998 16.4 38.5998 16C39.2998 15.4 39.5998 14.9 39.5998 14.6C39.5998 14.4 39.4998 14.2 39.3998 14C39.2998 13.7 39.0998 13.4 38.8998 13.2L39.1998 11.6C39.4998 11.9 39.6998 12.2 39.7998 12.6C39.9998 13 39.9998 13.4 39.9998 13.9V15.7H40.1998Z" fill="white"/>
<path d="M42.3998 13.8C42.3998 14.2 42.3998 14.5 42.2998 14.8C42.1998 15.1 41.9998 15.5 41.7998 16L41.3998 15.9C41.4998 15.4 41.4998 15 41.4998 14.6C41.4998 14.4 41.4998 14 41.3998 13.5C41.3998 13 41.2998 12.5 41.1998 12.1C41.0998 11.6 40.9998 11.1 40.8998 10.4C40.8998 10.2 40.7998 10 40.7998 9.90002C40.7998 9.80002 40.8998 9.60005 40.9998 9.30005C41.0998 9.00005 41.2998 8.60001 41.4998 8.20001L41.8998 10.4C41.9998 11.2 42.0998 11.9 42.1998 12.5C42.3998 12.9 42.3998 13.3 42.3998 13.8Z" fill="white"/>
<path d="M47.2 15.5H44.4C44.1 15.5 43.9 15.4 43.8 15.3C43.6 15.2 43.5 14.9 43.5 14.6C43.5 14.4 43.5 14.2 43.5 14C43.5 13.8 43.5 13.6 43.6 13.4H43.8C43.8 13.5 43.9 13.6 44 13.7C44.1 13.8 44.2 13.8 44.4 13.8H46.5C46.4 13.2 46.2 12.7 46 12.4C45.8 12.1 45.5 11.8 45.2 11.6L45.6 9.70001C46.1 10.1 46.5 10.6 46.7 11.2C46.9 11.8 47 12.5 47 13.5V15.5H47.2ZM46.1 7.5L45.4 8.90002L44 8.20001L44.7 6.80005L46.1 7.5Z" fill="white"/>
<path d="M51.6998 15.5H46.7998V13.9H50.7998C50.5998 13.7 50.4998 13.5 50.2998 13.4C50.1998 13.3 49.9998 13.1 49.7998 13C49.5998 12.8 49.2998 12.6 49.0998 12.5L48.8998 12.7C48.4998 12.3 48.2998 12.1 48.2998 12C48.0998 11.8 47.9998 11.5 47.9998 11.2C47.9998 10.8 47.9998 10.5 48.0998 10.3C48.1998 10.1 48.3998 9.90001 48.5998 9.70001C48.7998 9.50001 49.0998 9.40005 49.3998 9.30005C49.5998 9.20005 49.8998 9.10002 50.1998 8.90002C50.3998 8.80002 50.6998 8.7 51.1998 8.5V10C51.1998 10 50.9998 10.1 50.6998 10.2C50.2998 10.3 49.9998 10.4 49.6998 10.5C49.3998 10.6 49.1998 10.7 49.1998 10.8C49.1998 10.8 49.2998 11 49.5998 11.3C49.9998 11.7 50.2998 12 50.5998 12.4C50.9998 12.9 51.3998 13.4 51.6998 14V15.5ZM51.1998 6.5V7.90002C50.2998 8.20002 49.5998 8.50005 48.8998 8.80005C48.2998 9.10005 47.7998 9.30004 47.4998 9.60004V8.70001C47.5998 8.60001 47.8998 8.40004 48.1998 8.10004C48.5998 7.80004 48.9998 7.60005 49.4998 7.30005C50.0998 7.00005 50.5998 6.7 51.1998 6.5Z" fill="white"/>
<path d="M57.7999 15.5C56.8999 15.5 56.2999 15.3 55.8999 15C55.5999 14.7 55.3999 14.3 55.3999 13.7C55.3999 13.3 55.4999 12.9 55.5999 12.6C55.6999 12.2 55.8999 11.8 56.1999 11.3L56.5999 11.6C56.3999 11.9 56.2999 12.1 56.2999 12.3C56.2999 12.5 56.1999 12.6 56.1999 12.8C56.1999 13.2 56.2999 13.5 56.5999 13.6C56.8999 13.7 57.3999 13.8 58.2999 13.8H63.6999C63.4999 13.6 63.3999 13.4 63.1999 13.3C63.0999 13.2 62.8999 13 62.6999 12.9C62.4999 12.7 62.1999 12.5 61.9999 12.4L61.7999 12.6C61.3999 12.2 61.1999 12 61.1999 11.9C60.9999 11.7 60.8999 11.4 60.8999 11.1C60.8999 10.7 60.8999 10.4 60.9999 10.2C61.0999 10 61.2999 9.80004 61.4999 9.60004C61.6999 9.40004 61.9999 9.30001 62.2999 9.20001C62.4999 9.10001 62.8 9.00005 63.1 8.80005C63.3 8.70005 63.6 8.60002 64.1 8.40002V9.90002C64.1 9.90002 63.9 10 63.6 10.1C63.2 10.2 62.9 10.3 62.6 10.4C62.3 10.5 62.1 10.6 62.1 10.7C62.1 10.7 62.1999 10.9 62.4999 11.2C62.8999 11.6 63.1999 11.9 63.4999 12.3C63.8999 12.8 64.3 13.3 64.6 13.9V15.6H57.7999V15.5Z" fill="white"/>
<path d="M66.8998 13.8C66.8998 14.2 66.8998 14.5 66.7998 14.8C66.6998 15.1 66.4998 15.5 66.2998 16L65.8998 15.9C65.9998 15.4 65.9998 15 65.9998 14.6C65.9998 14.4 65.9998 14 65.8998 13.5C65.8998 13 65.7998 12.5 65.6998 12.1C65.5998 11.7 65.4998 11.1 65.3998 10.4C65.3998 10.2 65.2998 10 65.2998 9.90002C65.2998 9.80002 65.3998 9.60005 65.4998 9.30005C65.5998 9.00005 65.7998 8.60001 65.9998 8.20001L66.3998 10.4C66.4998 11.2 66.5998 11.9 66.6998 12.5C66.8998 12.9 66.8998 13.3 66.8998 13.8Z" fill="white"/>
<path d="M72.7999 15.7C72.7999 15.9 72.6999 16.3 72.3999 16.7C72.0999 17.1 71.7999 17.5 71.3999 17.8C70.9999 18.1 70.5999 18.3 70.2999 18.3C69.8999 18.3 69.6 18.2 69.1 18C68.7 17.8 68.1999 17.5 67.3999 16.9L67.6999 16.5C68.0999 16.7 68.4 16.9 68.6 17C68.8 17.1 69.0999 17.1 69.2999 17.1C69.5999 17.1 69.9 17 70.1 16.9C70.4 16.7 70.7999 16.4 71.1999 16C71.8999 15.4 72.1999 14.9 72.1999 14.6C72.1999 14.4 72.0999 14.2 71.9999 14C71.8999 13.7 71.6999 13.4 71.4999 13.2L71.7999 11.6C72.0999 11.9 72.2999 12.2 72.3999 12.6C72.5999 13 72.6 13.4 72.6 13.9V15.7H72.7999Z" fill="white"/>
<path d="M76.1999 15.5H72.3999V13.9H75.6C75.6 13.6 75.4999 13.4 75.3999 13.2C75.2999 13.1 75.1999 12.9 74.9999 12.7L75.4999 11.2C75.7999 11.5 76 11.9 76.1 12.3C76.2 12.7 76.2999 13.2 76.2999 14V15.5H76.1999ZM76.1 9L75.4999 10.2L74.6 9.70001L74.1 10.7L72.9999 10.1L73.6999 8.90002L74.6 9.40002L75.1 8.40002L76.1 9Z" fill="white"/>
<path d="M83.7999 15.5C83.2999 15.5 82.9999 15.5 82.6999 15.4C82.3999 15.3 82.0999 15.2 81.7999 15.1C81.5999 15.3 81.3999 15.4 81.1999 15.4C80.9999 15.4 80.6999 15.5 80.3999 15.5H79.3999C79.0999 15.5 78.8999 15.4 78.7999 15.3C78.6999 15.2 78.4999 14.9 78.3999 14.6C78.1999 14.9 77.9 15.2 77.6 15.3C77.4 15.4 77.0999 15.5 76.7999 15.5H75.8999V13.9H76.7999C77.1999 13.9 77.5999 13.8 77.8999 13.5C78.2999 13.2 78.4999 12.7 78.4999 12.1L78.8999 12.2C78.8999 12.3 78.8999 12.5 78.8999 12.6C78.8999 12.8 78.8999 13 78.8999 13.2C78.8999 13.4 79 13.6 79.1 13.7C79.2 13.8 79.4 13.9 79.6 13.9H80.3999C80.8999 13.9 81.2999 13.8 81.4999 13.7C81.7999 13.5 81.8999 13.2 81.8999 12.8C81.8999 12.7 81.8999 12.6 81.9999 12.5C81.9999 12.5 82.0999 12.4 82.1999 12.3L82.3999 12.1C82.3999 12.2 82.3999 12.3 82.3999 12.4C82.3999 12.5 82.3999 12.6 82.3999 12.7C82.3999 12.9 82.3999 13.2 82.2999 13.6C82.4999 13.7 82.5999 13.7 82.7999 13.8C82.9999 13.9 83.1999 13.9 83.3999 13.9C83.3999 13.8 83.2999 13.6 83.1999 13.4C83.0999 13.2 82.9999 13 82.9999 13C82.9999 12.9 82.9999 12.8 82.9999 12.8C82.9999 12.8 83.1 12.7 83.1 12.6L83.6 11.9C83.7 12.2 83.7999 12.4 83.7999 12.6C83.7999 12.8 83.8999 13.1 83.8999 13.4V15.5H83.7999ZM83.1 9.70001L82.3999 10.9L81.4999 10.4L80.9999 11.4L79.8999 10.8L80.4999 9.60004L81.3999 10.1L81.8999 9.10004L83.1 9.70001ZM81.8999 8.20001L81.2999 9.5L80.1999 8.90002L80.7999 7.70001L81.8999 8.20001Z" fill="white"/>
<path d="M86.1001 13.8C86.1001 14.2 86.1 14.5 86 14.8C85.9 15.1 85.7 15.5 85.5 16L85.1001 15.9C85.2001 15.4 85.2 15 85.2 14.6C85.2 14.4 85.2001 14 85.1001 13.5C85.1001 13 85 12.5 84.9 12.1C84.8 11.7 84.7001 11.1 84.6001 10.4C84.6001 10.2 84.5 10 84.5 9.90002C84.5 9.80002 84.6 9.60005 84.7 9.30005C84.8 9.00005 85 8.60001 85.2 8.20001L85.6001 10.4C85.7001 11.2 85.8 11.9 85.9 12.5C86 12.9 86.1001 13.3 86.1001 13.8Z" fill="white"/>
<path d="M16.652 7H18.3756L14.6101 11.3037L19.0399 17.16H15.5714L12.8548 13.6082L9.74636 17.16H8.02176L12.0493 12.5567L7.7998 7H11.3563L13.8119 10.2465L16.652 7ZM16.0471 16.1284H17.0022L10.8374 7.97744H9.81253L16.0471 16.1284Z" fill="white"/>
</g>
</g>
<defs>
<clipPath id="clip0_332_441">
<rect width="93" height="23" fill="white" transform="translate(0 0.5)"/>
</clipPath>
</defs>
</svg>
