<svg width="71" height="24" viewBox="0 0 71 24" fill="none" xmlns="http://www.w3.org/2000/svg">
<g clip-path="url(#clip0_332_460)">
<mask id="mask0_332_460" style="mask-type:alpha" maskUnits="userSpaceOnUse" x="0" y="0" width="71" height="24">
<path d="M67.1 0.5H3.79999C1.69999 0.5 0 2.19999 0 4.29999V19.7C0 21.8 1.69999 23.5 3.79999 23.5H67.1C69.2 23.5 70.9 21.8 70.9 19.7V4.29999C70.9 2.19999 69.2 0.5 67.1 0.5Z" fill="#50ABF1"/>
</mask>
<g mask="url(#mask0_332_460)">
<path d="M73 0.5H0V23.5H73V0.5Z" fill="#293136"/>
<path d="M73 0.5H0V23.5H73V0.5Z" fill="black"/>
<path d="M27.1001 13.8L28.9001 13.6C29.0001 14.2 29.2001 14.6 29.5001 14.9C29.8001 15.2 30.3001 15.3 30.8001 15.3C31.4001 15.3 31.8001 15.2 32.1001 14.9C32.4001 14.7 32.5001 14.4 32.5001 14C32.5001 13.8 32.4001 13.6 32.3001 13.5C32.2001 13.4 32.0001 13.2 31.6001 13.1C31.4001 13 30.9001 12.9 30.2001 12.7C29.2001 12.5 28.5001 12.2 28.2001 11.8C27.6001 11.3 27.4001 10.7 27.4001 10C27.4001 9.5 27.5001 9.10001 27.8001 8.70001C28.1001 8.30001 28.4001 7.99999 28.9001 7.79999C29.4001 7.59999 30.0001 7.5 30.7001 7.5C31.8001 7.5 32.7001 7.70001 33.2001 8.20001C33.7001 8.70001 34.1001 9.40001 34.1001 10.2L32.3001 10.3C32.2001 9.79999 32.1001 9.49999 31.8001 9.29999C31.5001 9.09999 31.2001 9 30.7001 9C30.2001 9 29.8001 9.09999 29.5001 9.29999C29.3001 9.39999 29.2001 9.59999 29.2001 9.89999C29.2001 10.1 29.3001 10.3 29.5001 10.4C29.7001 10.6 30.3001 10.8 31.2001 11C32.1001 11.2 32.7001 11.4 33.2001 11.6C33.6001 11.8 34.0001 12.1 34.2001 12.5C34.4001 12.9 34.6001 13.4 34.6001 13.9C34.6001 14.4 34.5001 14.9 34.2001 15.3C33.9001 15.7 33.5001 16.1 33.0001 16.3C32.5001 16.5 31.8001 16.6 31.1001 16.6C30.0001 16.6 29.1001 16.3 28.5001 15.8C27.6001 15.5 27.3001 14.8 27.1001 13.8Z" fill="white"/>
<path d="M40.1999 16.7V15.7C39.9999 16 39.6999 16.3 39.2999 16.5C38.8999 16.7 38.4999 16.8 38.0999 16.8C37.6999 16.8 37.2999 16.7 36.8999 16.5C36.5999 16.3 36.2999 16 36.0999 15.7C35.8999 15.4 35.8999 14.9 35.8999 14.3V10.2H37.5999V13.2C37.5999 14.1 37.5999 14.7 37.6999 14.9C37.7999 15.1 37.8999 15.3 37.9999 15.4C38.0999 15.5 38.3999 15.6 38.5999 15.6C38.8999 15.6 39.1999 15.5 39.3999 15.4C39.5999 15.2 39.7999 15 39.8999 14.8C39.9999 14.6 39.9999 14 39.9999 13V10.3H41.6999V16.8H40.1999V16.7Z" fill="white"/>
<path d="M43.6001 9.29999V7.70001H45.3001V9.29999H43.6001ZM43.6001 16.7V10.2H45.3001V16.7H43.6001Z" fill="white"/>
<path d="M48.8998 16.7L46.2998 10.2H48.0998L49.2998 13.5L49.6998 14.6C49.7998 14.3 49.8998 14.1 49.8998 14C49.9998 13.8 49.9998 13.6 50.0998 13.4L51.2998 10.1H53.0998L50.4998 16.6H48.8998V16.7Z" fill="white"/>
<path d="M55.7 16.7H54V10.2H55.6V11.1C55.9 10.7 56.1 10.4 56.3 10.2C56.5 10.1 56.8 10 57 10C57.4 10 57.8 10.1 58.1 10.3L57.6 11.8C57.3 11.6 57 11.5 56.8 11.5C56.6 11.5 56.4 11.6 56.2 11.7C56 11.8 55.9 12.1 55.8 12.4C55.7 12.7 55.7 13.5 55.7 14.6V16.7Z" fill="white"/>
<path d="M62.7 14.6L64.4 14.9C64.2 15.5 63.8 16 63.4 16.3C62.9 16.6 62.3 16.8 61.6 16.8C60.5 16.8 59.6 16.4 59.1 15.7C58.7 15.1 58.5 14.4 58.5 13.5C58.5 12.4 58.8 11.6 59.3 11C59.9 10.4 60.6 10.1 61.4 10.1C62.4 10.1 63.1 10.4 63.7 11.1C64.3 11.7 64.5 12.7 64.5 14H60.2C60.2 14.5 60.4 14.9 60.6 15.2C60.8 15.5 61.2 15.6 61.6 15.6C61.9 15.6 62.1 15.5 62.3 15.4C62.4 15.2 62.6 14.9 62.7 14.6ZM62.8 12.9C62.8 12.4 62.7 12 62.4 11.8C62.2 11.5 61.9 11.4 61.5 11.4C61.1 11.4 60.8 11.5 60.6 11.8C60.4 12.1 60.2 12.4 60.2 12.9H62.8Z" fill="white"/>
<path d="M16.652 7H18.3756L14.6101 11.3037L19.0399 17.16H15.5714L12.8548 13.6082L9.74636 17.16H8.02176L12.0493 12.5567L7.7998 7H11.3563L13.8119 10.2465L16.652 7ZM16.0471 16.1284H17.0022L10.8374 7.97744H9.81253L16.0471 16.1284Z" fill="white"/>
</g>
</g>
<defs>
<clipPath id="clip0_332_460">
<rect width="71" height="23" fill="white" transform="translate(0 0.5)"/>
</clipPath>
</defs>
</svg>
