<svg width="57" height="24" viewBox="0 0 57 24" fill="none" xmlns="http://www.w3.org/2000/svg">
<g clip-path="url(#clip0_332_136)">
<mask id="mask0_332_136" style="mask-type:alpha" maskUnits="userSpaceOnUse" x="0" y="0" width="57" height="24">
<path d="M53.1 0.5H3.79999C1.69999 0.5 0 2.20002 0 4.30002V19.7C0 21.8 1.69999 23.5 3.79999 23.5H53.1C55.2 23.5 56.9 21.8 56.9 19.7V4.30002C56.9 2.20002 55.2 0.5 53.1 0.5Z" fill="#50ABF1"/>
</mask>
<g mask="url(#mask0_332_136)">
<path d="M57 0.5H0V23.5H57V0.5Z" fill="#293136"/>
<path d="M57 0.5H0V23.5H57V0.5Z" fill="black"/>
<path d="M32.5001 12.6H33.7001V14.1H27.2001V12.6H30.8001V10.9C30.8001 10.2 30.6001 9.69999 30.3001 9.39999C30.0001 9.09999 29.5001 9 28.7001 9C28.3001 9 27.8001 9.00001 27.2001 9.10001L27.1001 7.70001C27.7001 7.60001 28.4001 7.5 29.0001 7.5C30.2001 7.5 31.1001 7.70001 31.6001 8.20001C32.2001 8.70001 32.4001 9.5 32.4001 10.5V12.6H32.5001Z" fill="white"/>
<path d="M36.5002 7.60004V14.1H34.7002V7.60004H36.5002Z" fill="white"/>
<path d="M38.1001 9.10004V7.60004H43.8001V9.30005C43.8001 9.90005 43.8001 10.4 43.7001 10.6C43.6001 10.8 43.5001 11.1 43.4001 11.4L43.1001 11.8C42.9001 12.1 42.8001 12.3 42.7001 12.5C42.7001 12.7 42.6001 12.8 42.6001 13V14.1H40.9001V12.9C40.9001 12.6 40.9001 12.3 41.0001 12.1C41.1001 11.9 41.3001 11.6 41.5001 11.2L41.7001 11C41.9001 10.7 42.0001 10.4 42.0001 9.90002V9.10004H38.1001ZM38.1001 16.6V10.7H39.8001V16.6H38.1001Z" fill="white"/>
<path d="M47.7002 12.8C48.2002 12.6 48.5002 12.4 48.6002 12.1C48.7002 11.8 48.8002 11.3 48.8002 10.7L48.9002 7.60004H50.6002L50.5002 9.90002C50.5002 10.6 50.4002 11.1 50.4002 11.5C50.3002 11.9 50.2002 12.2 50.1002 12.6C49.9002 13 49.6002 13.3 49.3002 13.6C48.9002 13.9 48.3002 14.2 47.6002 14.4C46.9002 14.6 45.9002 14.9 44.9002 15L44.7002 13.6C45.4002 13.5 45.9002 13.4 46.4002 13.3L45.3002 7.60004H47.0002L47.7002 12.8Z" fill="white"/>
<path d="M16.652 7H18.3756L14.6101 11.3037L19.0399 17.16H15.5714L12.8548 13.6082L9.74636 17.16H8.02176L12.0493 12.5567L7.7998 7H11.3563L13.8119 10.2465L16.652 7ZM16.0471 16.1284H17.0022L10.8374 7.97744H9.81253L16.0471 16.1284Z" fill="white"/>
</g>
</g>
<defs>
<clipPath id="clip0_332_136">
<rect width="57" height="23" fill="white" transform="translate(0 0.5)"/>
</clipPath>
</defs>
</svg>
