<svg width="67" height="24" viewBox="0 0 67 24" fill="none" xmlns="http://www.w3.org/2000/svg">
<g clip-path="url(#clip0_332_148)">
<mask id="mask0_332_148" style="mask-type:alpha" maskUnits="userSpaceOnUse" x="0" y="0" width="67" height="24">
<path d="M63.1 0.5H3.79999C1.69999 0.5 0 2.19999 0 4.29999V19.7C0 21.8 1.69999 23.5 3.79999 23.5H63.1C65.2 23.5 66.9 21.8 66.9 19.7V4.29999C66.9 2.09999 65.2 0.5 63.1 0.5Z" fill="#50ABF1"/>
</mask>
<g mask="url(#mask0_332_148)">
<path d="M67 0.5H0V23.5H67V0.5Z" fill="#293136"/>
<path d="M67 0.5H0V23.5H67V0.5Z" fill="black"/>
<path d="M26.3999 10.5L33.9999 10.4L34.2999 11V11.1H31.0999V12.9C31.4999 12.5 31.8999 12.3 32.3999 12.3C33.1999 12.3 33.7999 13 33.7999 13.8C33.7999 14.5 33.4999 15.2 32.8999 15.9L32.2999 15.4C32.8999 14.7 33.2999 14 33.2999 13.4C33.2999 13.1 33.0999 12.9 32.7999 12.9C32.1999 12.9 31.5999 13.3 31.1999 14V16.7L31.0999 16.8L30.3999 16.6V14.6C30.0999 14.9 29.6999 15 29.3999 15C28.9999 15 28.4999 14.8 28.0999 14.4C27.7999 14.1 27.5999 13.6 27.5999 12.7C27.5999 12.2 27.5999 11.7 27.5999 11.2H26.7999L26.3999 10.5ZM30.2999 11.1H28.1999C28.1999 11.7 28.1999 12.2 28.1999 12.8C28.1999 13.8 28.3999 14.3 28.9999 14.3C29.4999 14.3 29.9999 14 30.3999 13.4V11.1H30.2999Z" fill="white"/>
<path d="M33.5002 7.89996C33.9002 8.89996 34.4002 9.29996 34.9002 9.29996C35.5002 9.29996 35.9002 8.89997 36.1002 7.99997H36.2002L36.7002 8.39996C36.5002 9.59996 35.9002 10.1 35.1002 10.1C34.3002 10.1 33.6002 9.49996 33.2002 8.29996L33.5002 7.89996ZM33.7002 10.5L36.4002 10.4L36.7002 11V11.1H35.6002V16.7L35.5002 16.8L34.8002 16.6V11.1H33.9002L33.7002 10.5Z" fill="white"/>
<path d="M36.2002 10.5L43.1002 10.4L43.4002 11V11.1H42.3002V16.7L42.2002 16.8L41.5002 16.6V12.9C40.4002 13.1 40.0002 13.4 39.7002 14.6L39.1002 14.2C39.2002 13.8 39.4002 13.4 39.6002 13.1C39.4002 13 39.2002 12.9 38.9002 12.9C38.2002 12.9 37.7002 13.5 37.7002 14C37.7002 15 38.4002 15.5 39.6002 16L39.1002 16.7C37.8002 15.8 37.0002 14.8 37.0002 13.6C37.0002 12.7 37.6002 12 38.5002 12C39.1002 12 39.5002 12.2 39.9002 12.6C40.3002 12.3 40.9002 12.1 41.6002 12V11H36.5002L36.2002 10.5Z" fill="white"/>
<path d="M45.8002 11.1H44.7002V16.7L44.6002 16.8L43.9002 16.6V11.1H43.0002L42.7002 10.5V10.4H43.9002C43.7002 9.99999 43.6002 9.69999 43.4002 9.29999C43.1002 8.59999 42.8002 8.29999 42.1002 8.29999C41.7002 8.29999 41.4002 8.4 41.0002 8.5L40.7002 7.70001C41.0002 7.60001 41.4002 7.5 41.9002 7.5C43.0002 7.5 43.3002 8.2 44.4002 10.5H45.4002L45.8002 11.1Z" fill="white"/>
<path d="M48.7002 10.5L56.3002 10.4L56.6002 11V11.1H53.4002V13C53.8002 12.6 54.2002 12.4 54.7002 12.4C55.5002 12.4 56.1002 13.1 56.1002 13.9C56.1002 14.6 55.7002 15.2 55.2002 15.8H55.1002L54.5002 15.3C55.1002 14.6 55.5002 14 55.5002 13.4C55.5002 13.1 55.3002 12.9 55.0002 12.9C54.5002 12.9 53.9002 13.3 53.4002 13.9V16.5L53.3002 16.6L52.6002 16.4V14.6C52.2002 14.9 51.8002 15.1 51.4002 15.1C50.3002 15.1 49.5002 14.2 49.5002 13.3C49.5002 12.4 50.3002 11.8 51.3002 11.8C51.8002 11.8 52.2002 11.9 52.7002 12V10.9H49.1002L48.7002 10.5ZM52.6002 12.7C52.3002 12.6 52.0002 12.6 51.7002 12.6C50.8002 12.6 50.2002 13.2 50.2002 13.8C50.2002 14.3 50.5002 14.6 51.0002 14.6C51.5002 14.6 52.1002 14.3 52.6002 13.7V12.7Z" fill="white"/>
<path d="M55.8999 10.5L60.2999 10.4L60.5999 11V11.1H59.0999C59.1999 11.4 59.1999 11.8 59.1999 12.1C59.1999 13.2 58.6999 13.8 57.8999 14.2C58.3999 14.8 59.2999 15.4 60.2999 16L59.8999 16.8H59.7999C58.6999 16 57.8999 15.2 57.2999 14.3C56.9999 13.9 56.7999 13.5 56.7999 13.3C56.7999 13.2 56.7999 13.1 56.8999 13C56.9999 12.9 57.1999 12.8 57.4999 12.8C57.7999 12.8 57.9999 12.8 58.2999 12.8C58.3999 12.6 58.4999 12.2 58.4999 11.9C58.4999 11.7 58.4999 11.4 58.3999 11.2H56.1999L55.8999 10.5Z" fill="white"/>
<path d="M58.5998 10.6C58.3998 10.2 58.1998 9.80002 57.9998 9.40002C57.6998 8.70002 57.3998 8.40002 56.6998 8.40002C56.2998 8.40002 55.9998 8.50004 55.5998 8.60004L55.2998 7.80002C55.5998 7.70002 55.9998 7.60004 56.4998 7.60004C57.6998 7.60004 57.8998 8.40004 59.0998 10.6V10.7H58.5998V10.6ZM59.4998 8.20004L60.0998 8.80002L59.4998 9.40002L58.8998 8.80002L59.4998 8.20004Z" fill="white"/>
<path d="M16.652 7H18.3756L14.6101 11.3037L19.0399 17.16H15.5714L12.8548 13.6082L9.74636 17.16H8.02176L12.0493 12.5567L7.7998 7H11.3563L13.8119 10.2465L16.652 7ZM16.0471 16.1284H17.0022L10.8374 7.97744H9.81253L16.0471 16.1284Z" fill="white"/>
</g>
</g>
<defs>
<clipPath id="clip0_332_148">
<rect width="67" height="23" fill="white" transform="translate(0 0.5)"/>
</clipPath>
</defs>
</svg>
