<svg width="91" height="24" viewBox="0 0 91 24" fill="none" xmlns="http://www.w3.org/2000/svg">
<g clip-path="url(#clip0_332_163)">
<mask id="mask0_332_163" style="mask-type:alpha" maskUnits="userSpaceOnUse" x="0" y="0" width="91" height="24">
<path d="M87.1 0.5H3.79999C1.69999 0.5 0 2.20002 0 4.30002V19.7C0 21.8 1.69999 23.5 3.79999 23.5H87.1C89.2 23.5 90.9 21.8 90.9 19.7V4.30002C90.9 2.20002 89.2 0.5 87.1 0.5Z" fill="#50ABF1"/>
</mask>
<g mask="url(#mask0_332_163)">
<path d="M91 0.5H0V23.5H91V0.5Z" fill="#293136"/>
<path d="M91 0.5H0V23.5H91V0.5Z" fill="black"/>
<path d="M27.6001 15.5V6.5H30.3001L31.9001 12.6L33.5001 6.5H36.2001V15.5H34.5001V8.39999L32.7001 15.5H31.0001L29.2001 8.39999V15.5H27.6001Z" fill="white"/>
<path d="M41.8001 13.5L43.5001 13.8C43.3001 14.4 42.9001 14.9 42.5001 15.2C42.0001 15.5 41.4001 15.7 40.7001 15.7C39.6001 15.7 38.7001 15.3 38.2001 14.6C37.8001 14 37.6001 13.3 37.6001 12.4C37.6001 11.3 37.9001 10.5 38.4001 9.89999C39.0001 9.29999 39.7001 9 40.5001 9C41.5001 9 42.2001 9.3 42.8001 10C43.4001 10.6 43.6001 11.6 43.6001 12.9H39.3001C39.3001 13.4 39.5001 13.8 39.7001 14.1C40.0001 14.4 40.3001 14.5 40.7001 14.5C41.0001 14.5 41.2001 14.4 41.4001 14.3C41.5001 14 41.7001 13.8 41.8001 13.5ZM41.9001 11.7C41.9001 11.2 41.8001 10.8 41.5001 10.6C41.3001 10.3 41.0001 10.2 40.6001 10.2C40.2001 10.2 39.9001 10.3 39.7001 10.6C39.5001 10.9 39.3001 11.2 39.3001 11.7H41.9001Z" fill="white"/>
<path d="M50.9 15.5H49.2V12.2C49.2 11.5 49.2 11 49.1 10.8C49 10.6 48.9 10.4 48.7 10.3C48.5 10.2 48.3 10.1 48.1 10.1C47.8 10.1 47.5 10.2 47.3 10.3C47.1 10.4 46.9 10.7 46.8 10.9C46.7 11.2 46.7 11.7 46.7 12.4V15.3H45V8.99997H46.6V9.99997C47.2 9.29997 47.9 8.89996 48.7 8.89996C49.1 8.89996 49.4 8.99998 49.7 9.09998C50 9.19998 50.3 9.39998 50.4 9.59998C50.5 9.79998 50.7 10.1 50.7 10.3C50.8 10.6 50.8 11 50.8 11.5V15.5H50.9Z" fill="white"/>
<path d="M52.4998 16L54.4998 16.2C54.4998 16.4 54.5998 16.6 54.6998 16.7C54.8998 16.8 55.0998 16.9 55.4998 16.9C55.8998 16.9 56.2998 16.8 56.4998 16.7C56.6998 16.6 56.7998 16.5 56.7998 16.3C56.8998 16.2 56.8998 15.9 56.8998 15.5V14.6C56.3998 15.3 55.6998 15.7 54.9998 15.7C54.0998 15.7 53.3998 15.3 52.8998 14.6C52.4998 14 52.2998 13.3 52.2998 12.4C52.2998 11.3 52.5998 10.5 53.0998 9.89999C53.5998 9.29999 54.2998 9 55.0998 9C55.8998 9 56.5998 9.40001 57.0998 10.1V9H58.6998V14.8C58.6998 15.6 58.5998 16.1 58.4998 16.5C58.3998 16.9 58.1998 17.2 57.9998 17.4C57.7998 17.6 57.4998 17.8 57.0998 17.9C56.6998 18 56.1998 18.1 55.6998 18.1C54.5998 18.1 53.7998 17.9 53.3998 17.5C52.8998 17.1 52.6998 16.6 52.6998 16.1C52.4998 16.1 52.4998 16 52.4998 16ZM53.9998 12.1C53.9998 12.8 54.0998 13.3 54.3998 13.6C54.6998 13.9 54.9998 14.1 55.3998 14.1C55.7998 14.1 56.1998 13.9 56.4998 13.6C56.7998 13.3 56.8998 12.8 56.8998 12.1C56.8998 11.4 56.7998 10.9 56.4998 10.6C56.1998 10.3 55.8998 10.1 55.3998 10.1C54.9998 10.1 54.5998 10.3 54.3998 10.6C54.0998 11 53.9998 11.5 53.9998 12.1Z" fill="white"/>
<path d="M60.2998 8.20004V6.60004H61.9998V8.20004H60.2998ZM60.2998 15.5V9.00003H61.9998V15.5H60.2998Z" fill="white"/>
<path d="M63.7002 15.5V6.5H65.4002V11.3L67.4002 9H69.5002L67.3002 11.4L69.7002 15.5H67.8002L66.2002 12.6L65.4002 13.4V15.5H63.7002Z" fill="white"/>
<path d="M75.0002 15.5V14.5C74.8002 14.8 74.5003 15.1 74.1003 15.3C73.7003 15.5 73.3002 15.6 72.9002 15.6C72.5002 15.6 72.1002 15.5 71.7002 15.3C71.3002 15.1 71.1002 14.8 70.9002 14.5C70.7002 14.2 70.7002 13.7 70.7002 13.1V9H72.4002V12C72.4002 12.9 72.4002 13.5 72.5002 13.7C72.6002 13.9 72.7002 14.1 72.8002 14.2C72.9002 14.3 73.2002 14.4 73.4002 14.4C73.7002 14.4 74.0002 14.3 74.2002 14.2C74.4002 14 74.6002 13.8 74.7002 13.6C74.8002 13.4 74.8002 12.8 74.8002 11.8V9H76.5002V15.5H75.0002Z" fill="white"/>
<path d="M81.3 9V10.4H80.1001V13C80.1001 13.5 80.1001 13.8 80.1001 13.9C80.1001 14 80.2 14.1 80.3 14.1C80.4 14.2 80.5001 14.2 80.6001 14.2C80.8001 14.2 81 14.1 81.3 14L81.4 15.3C81 15.5 80.5 15.6 80 15.6C79.7 15.6 79.4 15.5 79.2 15.4C79 15.3 78.8 15.2 78.7 15C78.6 14.8 78.5 14.6 78.5 14.3C78.5 14.1 78.4 13.7 78.4 13.1V10.3H77.6001V9H78.4V7.70001L80.1001 6.70001V9H81.3Z" fill="white"/>
<path d="M82.5 8.20004V6.60004H84.2V8.20004H82.5ZM82.5 15.5V9.00003H84.2V15.5H82.5Z" fill="white"/>
<path d="M16.652 7H18.3756L14.6101 11.3037L19.0399 17.16H15.5714L12.8548 13.6082L9.74636 17.16H8.02176L12.0493 12.5567L7.7998 7H11.3563L13.8119 10.2465L16.652 7ZM16.0471 16.1284H17.0022L10.8374 7.97744H9.81253L16.0471 16.1284Z" fill="white"/>
</g>
</g>
<defs>
<clipPath id="clip0_332_163">
<rect width="91" height="23" fill="white" transform="translate(0 0.5)"/>
</clipPath>
</defs>
</svg>
