<svg width="66" height="24" viewBox="0 0 66 24" fill="none" xmlns="http://www.w3.org/2000/svg">
<g clip-path="url(#clip0_332_180)">
<mask id="mask0_332_180" style="mask-type:alpha" maskUnits="userSpaceOnUse" x="0" y="0" width="66" height="24">
<path d="M62.1 0.5H3.79999C1.69999 0.5 0 2.20002 0 4.30002V19.7C0 21.8 1.69999 23.5 3.79999 23.5H62.1C64.2 23.5 65.9 21.8 65.9 19.7V4.30002C65.9 2.20002 64.2 0.5 62.1 0.5Z" fill="#50ABF1"/>
</mask>
<g mask="url(#mask0_332_180)">
<path d="M66 0.5H0V23.5H66V0.5Z" fill="#293136"/>
<path d="M66 0.5H0V23.5H66V0.5Z" fill="black"/>
<path d="M27.1001 12.8L28.9001 12.6C29.0001 13.2 29.2001 13.6 29.5001 13.9C29.8001 14.2 30.3001 14.3 30.8001 14.3C31.4001 14.3 31.8001 14.2 32.1001 13.9C32.4001 13.7 32.5001 13.4 32.5001 13C32.5001 12.8 32.4001 12.6 32.3001 12.5C32.2001 12.4 32.0001 12.2 31.6001 12.1C31.4001 12 30.9001 11.9 30.2001 11.7C29.2001 11.5 28.5001 11.2 28.2001 10.8C27.6001 10.3 27.4001 9.7 27.4001 9C27.4001 8.5 27.5001 8.10001 27.8001 7.70001C28.1001 7.30001 28.4001 7.00002 28.9001 6.80002C29.4001 6.60002 30.0001 6.5 30.7001 6.5C31.8001 6.5 32.7001 6.70001 33.2001 7.20001C33.7001 7.70001 34.1001 8.40001 34.1001 9.20001L32.3001 9.30002C32.2001 8.80002 32.1001 8.50002 31.8001 8.30002C31.5001 8.10002 31.2001 8 30.7001 8C30.2001 8 29.8001 8.10002 29.5001 8.30002C29.3001 8.40002 29.2001 8.59999 29.2001 8.89999C29.2001 9.09999 29.3001 9.29999 29.5001 9.39999C29.7001 9.59999 30.3001 9.8 31.2001 10C32.1001 10.2 32.7001 10.4 33.2001 10.6C33.6001 10.8 34.0001 11.1 34.2001 11.5C34.4001 11.9 34.6001 12.4 34.6001 12.9C34.6001 13.4 34.5001 13.9 34.2001 14.3C33.9001 14.7 33.5001 15.1 33.0001 15.3C32.5001 15.5 31.8001 15.6 31.1001 15.6C30.0001 15.6 29.1001 15.3 28.5001 14.8C27.6001 14.5 27.3001 13.8 27.1001 12.8Z" fill="white"/>
<path d="M39.7 13.6L41.4 13.9C41.2 14.5 40.8 15 40.4 15.3C39.9 15.6 39.3 15.8 38.6 15.8C37.5 15.8 36.6 15.4 36.1 14.7C35.7 14.1 35.5 13.4 35.5 12.5C35.5 11.4 35.8 10.6 36.3 10C36.9 9.40003 37.6 9.10004 38.4 9.10004C39.4 9.10004 40.1 9.40004 40.7 10.1C41.3 10.7 41.5 11.7 41.5 13H37.2C37.2 13.5 37.4 13.9 37.6 14.2C37.9 14.5 38.2 14.6 38.6 14.6C38.9 14.6 39.1 14.5 39.3 14.4C39.5 14.2 39.6 13.9 39.7 13.6ZM39.8 11.9C39.8 11.4 39.7 11 39.4 10.8C39.2 10.5 38.9 10.4 38.5 10.4C38.1 10.4 37.8 10.5 37.6 10.8C37.4 11.1 37.2 11.4 37.2 11.9H39.8Z" fill="white"/>
<path d="M42.7 16.1L44.7 16.3C44.7 16.5 44.8 16.7 44.9 16.8C45.1 16.9 45.3 17 45.7 17C46.1 17 46.5 16.9 46.7 16.8C46.9 16.7 47 16.6 47 16.4C47.1 16.3 47.1 16 47.1 15.6V14.6C46.6 15.3 45.9 15.7 45.2 15.7C44.3 15.7 43.6 15.3 43.1 14.6C42.7 14 42.5 13.3 42.5 12.4C42.5 11.3 42.8 10.5 43.3 9.89999C43.8 9.29999 44.5 9 45.3 9C46.1 9 46.8 9.40001 47.3 10.1V9.20001H48.9V15C48.9 15.8 48.8 16.3 48.7 16.7C48.6 17.1 48.4 17.4 48.2 17.6C48 17.8 47.7 18 47.3 18.1C46.9 18.2 46.4 18.3 45.9 18.3C44.8 18.3 44 18.1 43.6 17.7C43.1 17.3 42.9 16.8 42.9 16.3C42.7 16.2 42.7 16.2 42.7 16.1ZM44.3 12.3C44.3 13 44.4 13.5 44.7 13.8C45 14.1 45.3 14.3 45.7 14.3C46.1 14.3 46.5 14.1 46.8 13.8C47.1 13.5 47.2 13 47.2 12.3C47.2 11.6 47.1 11.1 46.8 10.8C46.5 10.5 46.2 10.3 45.7 10.3C45.3 10.3 44.9 10.5 44.7 10.8C44.4 11.1 44.3 11.6 44.3 12.3Z" fill="white"/>
<path d="M54.8 15.7V14.7C54.6 15 54.3 15.3 53.9 15.5C53.5 15.7 53.1 15.8 52.7 15.8C52.3 15.8 51.9 15.7 51.5 15.5C51.1 15.3 50.9 15 50.7 14.7C50.5 14.4 50.5 13.9 50.5 13.3V9.20001H52.2V12.2C52.2 13.1 52.2 13.7 52.3 13.9C52.4 14.1 52.5 14.3 52.6 14.4C52.7 14.5 53 14.6 53.2 14.6C53.5 14.6 53.8 14.5 54 14.4C54.2 14.2 54.4 14 54.5 13.8C54.6 13.6 54.6 13 54.6 12V9.30002H56.3V15.8H54.8V15.7Z" fill="white"/>
<path d="M58.2002 8.30002V6.70001H59.9002V8.30002H58.2002ZM58.2002 15.7V9.20001H59.9002V15.7H58.2002Z" fill="white"/>
<path d="M16.652 7H18.3756L14.6101 11.3037L19.0399 17.16H15.5714L12.8548 13.6082L9.74636 17.16H8.02176L12.0493 12.5567L7.7998 7H11.3563L13.8119 10.2465L16.652 7ZM16.0471 16.1284H17.0022L10.8374 7.97744H9.81253L16.0471 16.1284Z" fill="white"/>
</g>
</g>
<defs>
<clipPath id="clip0_332_180">
<rect width="66" height="23" fill="white" transform="translate(0 0.5)"/>
</clipPath>
</defs>
</svg>
