<svg width="102" height="24" viewBox="0 0 102 24" fill="none" xmlns="http://www.w3.org/2000/svg">
<g clip-path="url(#clip0_332_193)">
<mask id="mask0_332_193" style="mask-type:alpha" maskUnits="userSpaceOnUse" x="0" y="0" width="102" height="24">
<path d="M98.1 0.5H3.79999C1.69999 0.5 0 2.20002 0 4.30002V19.7C0 21.8 1.69999 23.5 3.79999 23.5H98.1C100.2 23.5 101.9 21.8 101.9 19.7V4.30002C101.9 2.20002 100.2 0.5 98.1 0.5Z" fill="#50ABF1"/>
</mask>
<g mask="url(#mask0_332_193)">
<path d="M102 0.5H0V23.5H102V0.5Z" fill="#293136"/>
<path d="M102 0.5H0V23.5H102V0.5Z" fill="black"/>
<path d="M37.7002 8.40002C37.7002 8.50002 37.6002 8.5 37.5002 8.5C36.5002 13.2 34.1002 16.1 30.0002 17.5C29.9002 17.3 29.6002 16.9 29.4002 16.8C33.3002 15.5 35.7002 12.7 36.4002 9H28.2002V8.20001H36.7002L36.9002 8.10004L37.7002 8.40002Z" fill="white"/>
<path d="M47.6999 11.9H44.6999L44.7999 16.5C44.7999 17.6 43.8999 17.6 42.4999 17.6C42.4999 17.4 42.3999 17.1 42.2999 16.9C42.8999 16.9 43.4999 16.9 43.6999 16.9C43.8999 16.9 44.0999 16.7 44.0999 16.5V12.5C43.0999 13.9 41.4999 15.3 39.8999 16.2C39.7999 16 39.5999 15.8 39.3999 15.6C40.9999 14.8 42.6999 13.3 43.6999 11.8H39.7999V11.2H44.0999V9H45.0999C45.0999 9.1 44.9999 9.20001 44.7999 9.20001V11.2H47.7999V11.9H47.6999Z" fill="white"/>
<path d="M59.0999 8.5V16.8H58.1999V16H51.2999V16.8H50.3999V8.5H59.0999ZM58.1999 15.1V9.29999H51.2999V15.1H58.1999Z" fill="white"/>
<path d="M61.6001 11.6H72.0001V12.5H62.0001C61.9001 12.6 61.8001 12.7 61.6001 12.7V11.6Z" fill="white"/>
<path d="M79.6 8.5C79.6 8.2 79.5 6.9 79.5 6.5H80.8C80.8 6.6 80.7 6.69999 80.5 6.79999C80.5 6.99999 80.5 7.10002 80.5 8.40002C82 8.30002 83.7 8.29999 84.6 8.29999V9.20001C83.5 9.20001 82 9.20001 80.5 9.20001C80.5 10.2 80.5 11.1 80.6 11.8C80.7 12.2 80.8 12.6 80.8 13.1C80.8 13.5 80.8 14 80.7 14.3C80.4 15.8 79.3 17.1 77.1 17.9C76.9 17.7 76.7 17.4 76.5 17.2C78.4 16.5 79.4 15.5 79.8 14.3C79.5 14.7 79.1 15 78.5 15C77.4 15 76.4 14.1 76.4 12.8C76.4 11.5 77.5 10.5 78.7 10.5C79.2 10.5 79.6 10.7 79.9 10.9C79.9 10.7 79.9 9.79999 79.8 9.29999C78.5 9.29999 74.5 9.5 74 9.5V8.70001L76.9 8.60004L79.6 8.5ZM79.9 12.9C79.9 12.4 79.9 11.3 78.6 11.3C77.7 11.3 77.1 12 77.1 12.9C77.1 13.8 77.8 14.4 78.5 14.4C79.4 14.3 79.9 13.6 79.9 12.9Z" fill="white"/>
<path d="M89.1002 11.9C89.9002 11.5 91.2002 11.2 92.2002 11.2C94.2002 11.2 95.4002 12.4 95.4002 14.2C95.4002 16.5 93.4002 17.7 90.9002 17.7C89.3002 17.7 88.2002 17 88.2002 15.9C88.2002 15 89.1002 14.2 90.3002 14.2C91.7002 14.2 92.7002 15.3 92.9002 16.5C93.9002 16.1 94.6002 15.3 94.6002 14.2C94.6002 12.8 93.6002 12 92.0002 12C90.1002 12 88.3002 12.8 87.5002 13.6C87.1002 14 86.6002 14.5 86.3002 14.9L85.7002 14.3C86.8002 13.1 90.4002 9.70004 92.1002 8.10004C91.4002 8.20004 88.9002 8.30002 87.4002 8.40002C87.4002 8.50002 87.2002 8.60004 87.1002 8.60004L87.0002 7.5C88.7002 7.5 91.9002 7.40001 92.8002 7.20001L93.0002 7.10004L93.7002 7.90002C93.6002 7.90002 93.5002 8 93.4002 8C92.5002 8.8 90.1002 11 89.1002 11.9ZM90.8002 16.9C91.2002 16.9 91.6002 16.9 91.9002 16.8C91.8002 15.8 91.0002 15 90.1002 15C89.4002 15 88.9002 15.4 88.9002 15.9C89.0002 16.7 90.0002 16.9 90.8002 16.9Z" fill="white"/>
<path d="M16.652 7H18.3756L14.6101 11.3037L19.0399 17.16H15.5714L12.8548 13.6082L9.74636 17.16H8.02176L12.0493 12.5567L7.7998 7H11.3563L13.8119 10.2465L16.652 7ZM16.0471 16.1284H17.0022L10.8374 7.97744H9.81253L16.0471 16.1284Z" fill="white"/>
</g>
</g>
<defs>
<clipPath id="clip0_332_193">
<rect width="102" height="23" fill="white" transform="translate(0 0.5)"/>
</clipPath>
</defs>
</svg>
