<svg width="70" height="24" viewBox="0 0 70 24" fill="none" xmlns="http://www.w3.org/2000/svg">
<g clip-path="url(#clip0_332_207)">
<mask id="mask0_332_207" style="mask-type:alpha" maskUnits="userSpaceOnUse" x="0" y="0" width="70" height="24">
<path d="M66.1 0.5H3.79999C1.69999 0.5 0 2.20005 0 4.30005V19.7C0 21.8 1.69999 23.5 3.79999 23.5H66.1C68.2 23.5 69.9 21.8 69.9 19.7V4.30005C69.9 2.20005 68.2 0.5 66.1 0.5Z" fill="#50ABF1"/>
</mask>
<g mask="url(#mask0_332_207)">
<path d="M70 0.5H0V23.5H70V0.5Z" fill="#293136"/>
<path d="M70 0.5H0V23.5H70V0.5Z" fill="black"/>
<path d="M35.6002 7.70001C35.6002 7.50001 35.0002 7.10002 34.5002 6.90002C34.3002 6.80002 34.3002 6.80001 34.3002 6.70001C34.3002 6.60001 34.4002 6.60004 34.7002 6.60004C35.2002 6.70004 35.4002 6.8 36.1002 7C36.4002 7.1 36.4002 7.20005 36.4002 7.30005C36.4002 7.40005 36.4002 7.50001 36.4002 7.70001V12.2H37.0002C37.6002 12.1 37.4002 11.9 38.2002 11.9C38.4002 11.9 39.0002 11.9 39.0002 12.3C39.0002 12.5 38.9002 12.6 38.6002 12.6H36.4002V14C36.4002 16.7 36.3002 17.5 36.1002 18C36.0002 18.2 35.9002 18.3 35.8002 18.3C35.7002 18.3 35.7002 18.2 35.7002 17.9V13.2C34.0002 14.4 32.6002 14.7 32.4002 14.7C32.2002 14.7 31.9002 14.1 31.9002 13.9V13.5C30.5002 14.5 29.3002 14.9 29.1002 14.9C28.9002 14.9 28.7002 14.5 28.7002 14V9.90002C28.7002 9.60002 28.4002 9.50005 27.9002 9.30005C27.8002 9.30005 27.7002 9.20001 27.7002 9.20001C27.7002 9.20001 27.8002 9.1 27.9002 9C28.4002 9 29.1002 9.20001 29.3002 9.20001H29.6002C30.0002 9.10001 29.8002 8.90002 30.4002 8.90002C30.5002 8.90002 31.0002 8.90001 31.0002 9.20001C31.0002 9.30001 30.9002 9.40002 30.7002 9.40002L29.6002 9.5C29.5002 9.6 29.4002 9.50001 29.4002 9.70001V13.7C29.4002 13.9 29.4002 14.1 29.6002 14.1C29.8002 14.1 31.3002 13.6 31.9002 13.2V9.70001C31.9002 9.40001 31.6002 9.20004 31.3002 9.10004C31.2002 9.10004 31.1002 9.00002 31.1002 8.90002C31.1002 8.80002 31.2002 8.80005 31.4002 8.80005C31.9002 8.80005 32.3002 9.00004 32.6002 9.10004H33.1002C33.6002 9.00004 33.3002 8.80005 34.1002 8.80005C34.4002 8.80005 34.8002 8.80004 34.8002 9.10004C34.8002 9.20004 34.6002 9.40002 34.4002 9.40002L32.9002 9.5C32.8002 9.6 32.7002 9.50005 32.7002 9.80005V13.8C32.7002 14 32.7002 14.1 32.9002 14.1C33.2002 14.1 34.8002 13.7 35.8002 13V7.70001H35.6002Z" fill="white"/>
<path d="M48.4998 16.1C48.9998 16.1 48.8998 15.8 49.5998 15.8C49.8998 15.8 50.9998 15.8 50.9998 16.3C50.9998 16.5 50.7998 16.6 50.5998 16.6H50.4998C49.8998 16.6 49.0998 16.6 48.3998 16.6C47.9998 16.6 46.0998 16.6 45.5998 16.6C44.4998 16.6 42.9998 16.7 42.2998 16.7C41.7998 16.8 41.7998 17 41.4998 17C41.1998 17 39.7998 16.4 39.7998 16.2C39.7998 16.2 39.8998 16.1 39.9998 16.1C40.0998 16.1 40.0998 16.1 40.1998 16.1C40.7998 16.2 41.8998 16.3 43.1998 16.3C44.5998 16.3 46.2998 16.2 47.8998 16.2L48.4998 16.1ZM42.3998 11.3C42.2998 11.1 41.8998 11 41.4998 10.8C41.3998 10.8 41.2998 10.7 41.2998 10.7C41.2998 10.7 41.3998 10.5 41.9998 10.5C42.4998 10.5 42.8998 10.5 43.2998 10.7C43.9998 10.7 45.7998 10.6 46.6998 10.5C47.0998 10.5 47.0998 10.4 47.5998 10.3C47.6998 10 47.6998 9.10002 47.7998 8.40002C46.6998 8.50002 44.9998 8.60001 43.4998 8.70001C43.0998 8.80001 42.9998 8.90002 42.8998 8.90002C42.6998 8.90002 41.5998 8.40005 41.5998 8.30005C41.5998 8.30005 41.5998 8.20001 41.6998 8.20001C41.6998 8.20001 41.7998 8.20001 41.8998 8.20001C42.4998 8.30001 43.0998 8.30005 43.6998 8.30005C44.7998 8.30005 46.0998 8.20004 47.2998 8.10004C47.5998 8.10004 47.6998 8 48.0998 8C48.6998 8 48.9998 8.00001 48.9998 8.20001C48.9998 8.40001 48.6998 8.50001 48.6998 8.70001C48.5998 9.20001 48.2998 9.90005 48.1998 10.3C48.4998 10.3 48.6998 10.5 48.6998 10.6C48.6998 10.7 48.5998 10.8 48.3998 10.8C46.6998 10.8 44.9998 11 43.6998 11C43.4998 11.1 43.3998 11 43.3998 11.1C43.3998 11.3 43.3998 12 43.3998 12.7C43.3998 12.9 43.4998 13 43.7998 13C44.6998 13 45.8998 13 47.0998 12.9C47.7998 12.8 47.4998 12.5 48.3998 12.5C48.6998 12.5 49.1998 12.5 49.1998 12.8C49.1998 13 48.9998 13.1 48.7998 13.1C47.6998 13.2 46.7998 13.2 45.9998 13.3H45.1998C44.4998 13.3 43.9998 13.3 43.4998 13.3C42.9998 13.3 42.4998 13.1 42.4998 12.5L42.3998 11.3Z" fill="white"/>
<path d="M60.6001 7.70001C60.6001 7.50001 59.9001 7.20002 59.4001 6.90002C59.3001 6.80002 59.2001 6.80001 59.2001 6.70001C59.2001 6.60001 59.4001 6.6 59.7001 6.5C60.2001 6.6 60.7001 6.70005 61.1001 6.80005C61.4001 6.90005 61.4001 7.00004 61.4001 7.10004C61.4001 7.20004 61.4001 7.3 61.4001 7.5V12.1H62.0001C62.6001 12 62.4001 11.8 63.2001 11.8C63.4001 11.8 64.0001 11.8 64.0001 12.2C64.0001 12.4 63.8001 12.5 63.6001 12.5H61.4001V16.1C61.4001 16.9 61.3001 17.4 61.1001 18C61.0001 18.2 60.9001 18.2 60.8001 18.2C60.7001 18.2 60.6001 18 60.6001 17.6V12.9C59.1001 13.7 56.0001 14.8 54.5001 14.8C54.3001 14.8 53.9001 14.3 53.9001 13.8V9.80005C53.8001 9.50005 53.5001 9.40001 52.8001 9.20001C52.7001 9.20001 52.6001 9.20004 52.6001 9.10004C52.6001 9.00004 52.7001 9.00002 53.0001 8.90002C53.7001 8.90002 54.4001 9.00001 54.8001 9.20001C55.5001 9.20001 56.3001 9.20004 56.7001 9.10004C57.3001 9.00004 57.2001 8.70001 58.0001 8.70001C58.3001 8.70001 58.9001 8.7 58.9001 9C58.9001 9.1 58.8001 9.30005 58.5001 9.30005C57.3001 9.40005 56.0001 9.40002 54.9001 9.40002C54.7001 9.40002 54.6001 9.40004 54.6001 9.60004C54.6001 10.2 54.6001 12.1 54.6001 13.1C54.6001 14.1 54.6001 14.1 55.0001 14.1C55.4001 14.1 58.7001 13.6 60.6001 12.6V7.70001Z" fill="white"/>
<path d="M16.652 7H18.3756L14.6101 11.3037L19.0399 17.16H15.5714L12.8548 13.6082L9.74636 17.16H8.02176L12.0493 12.5567L7.7998 7H11.3563L13.8119 10.2465L16.652 7ZM16.0471 16.1284H17.0022L10.8374 7.97744H9.81253L16.0471 16.1284Z" fill="white"/>
</g>
</g>
<defs>
<clipPath id="clip0_332_207">
<rect width="70" height="23" fill="white" transform="translate(0 0.5)"/>
</clipPath>
</defs>
</svg>
