<svg width="73" height="24" viewBox="0 0 73 24" fill="none" xmlns="http://www.w3.org/2000/svg">
<g clip-path="url(#clip0_332_218)">
<mask id="mask0_332_218" style="mask-type:alpha" maskUnits="userSpaceOnUse" x="0" y="0" width="73" height="24">
<path d="M69.1 0.5H3.79999C1.69999 0.5 0 2.2 0 4.3V19.7C0 21.8 1.69999 23.5 3.79999 23.5H69.1C71.2 23.5 72.9 21.8 72.9 19.7V4.3C72.9 2.2 71.2 0.5 69.1 0.5Z" fill="#50ABF1"/>
</mask>
<g mask="url(#mask0_332_218)">
<path d="M73 0.5H0V23.5H73V0.5Z" fill="#293136"/>
<path d="M73 0.5H0V23.5H73V0.5Z" fill="black"/>
<path d="M29.9002 15.5L26.7002 6.5H28.7002L31.0002 13.1L33.2002 6.5H35.1002L31.9002 15.5H29.9002Z" fill="white"/>
<path d="M34.6001 12.2C34.6001 11.6 34.7001 11.1 35.0001 10.5C35.3001 9.99997 35.7001 9.59997 36.2001 9.29997C36.7001 8.99997 37.3001 8.89996 37.9001 8.89996C38.9001 8.89996 39.7001 9.19996 40.3001 9.89996C40.9001 10.5 41.2001 11.3 41.2001 12.3C41.2001 13.3 40.9001 14.1 40.2001 14.7C39.6001 15.3 38.8001 15.7 37.8001 15.7C37.2001 15.7 36.6001 15.6 36.1001 15.3C35.6001 15 35.1001 14.6 34.9001 14.1C34.7001 13.6 34.6001 12.9 34.6001 12.2ZM36.4001 12.3C36.4001 12.9 36.6001 13.4 36.9001 13.8C37.2001 14.1 37.6001 14.3 38.0001 14.3C38.4001 14.3 38.8001 14.1 39.1001 13.8C39.4001 13.5 39.6001 13 39.6001 12.3C39.6001 11.7 39.4001 11.2 39.1001 10.8C38.8001 10.5 38.4001 10.3 38.0001 10.3C37.6001 10.3 37.2001 10.5 36.9001 10.8C36.5001 11.1 36.4001 11.6 36.4001 12.3Z" fill="white"/>
<path d="M42.7002 15.5V6.5H44.4002V15.5H42.7002Z" fill="white"/>
<path d="M45.9998 16L47.9998 16.2C47.9998 16.4 48.0998 16.6 48.1998 16.7C48.3998 16.8 48.5998 16.9 48.9998 16.9C49.3998 16.9 49.7998 16.8 49.9998 16.7C50.1998 16.6 50.2998 16.5 50.2998 16.3C50.3998 16.2 50.3998 15.9 50.3998 15.5V14.5C49.8998 15.2 49.1998 15.6 48.4998 15.6C47.5998 15.6 46.8998 15.2 46.3998 14.5C45.9998 13.9 45.7998 13.2 45.7998 12.3C45.7998 11.2 46.0998 10.4 46.5998 9.79997C47.0998 9.19997 47.7998 8.89996 48.5998 8.89996C49.3998 8.89996 50.0998 9.29997 50.5998 9.99997V9.09998H52.1998V14.9C52.1998 15.7 52.0998 16.2 51.9998 16.6C51.8998 17 51.6998 17.3 51.4998 17.5C51.2998 17.7 50.9998 17.9 50.5998 18C50.1998 18.1 49.6998 18.2 49.1998 18.2C48.0998 18.2 47.2998 18 46.8998 17.6C46.3998 17.2 46.1998 16.7 46.1998 16.2C45.9998 16.1 45.9998 16 45.9998 16ZM47.4998 12.1C47.4998 12.8 47.5998 13.3 47.8998 13.6C48.1998 13.9 48.4998 14.1 48.8998 14.1C49.2998 14.1 49.6998 13.9 49.9998 13.6C50.2998 13.3 50.3998 12.8 50.3998 12.1C50.3998 11.4 50.2998 10.9 49.9998 10.6C49.6998 10.3 49.3998 10.1 48.8998 10.1C48.4998 10.1 48.0998 10.3 47.8998 10.6C47.5998 11 47.4998 11.5 47.4998 12.1Z" fill="white"/>
<path d="M57.4998 13.5L59.1998 13.8C58.9998 14.4 58.5998 14.9 58.1998 15.2C57.6998 15.5 57.0998 15.7 56.3998 15.7C55.2998 15.7 54.3998 15.3 53.8998 14.6C53.4998 14 53.2998 13.3 53.2998 12.4C53.2998 11.3 53.5998 10.5 54.0998 9.89999C54.6998 9.29999 55.3998 9 56.1998 9C57.1998 9 57.8998 9.3 58.4998 10C59.0998 10.6 59.2998 11.6 59.2998 12.9H54.9998C54.9998 13.4 55.1998 13.8 55.3998 14.1C55.5998 14.4 55.9998 14.5 56.3998 14.5C56.6998 14.5 56.8998 14.4 57.0998 14.3C57.2998 14 57.4998 13.8 57.4998 13.5ZM57.5998 11.7C57.5998 11.2 57.4998 10.8 57.1998 10.6C56.9998 10.3 56.6998 10.2 56.2998 10.2C55.8998 10.2 55.5998 10.3 55.3998 10.6C55.1998 10.9 54.9998 11.2 54.9998 11.7H57.5998Z" fill="white"/>
<path d="M66.7002 15.5H64.9002V12.2C64.9002 11.5 64.9002 11 64.8002 10.8C64.7002 10.6 64.6002 10.4 64.4002 10.3C64.2002 10.2 64.0002 10.1 63.8002 10.1C63.5002 10.1 63.2002 10.2 63.0002 10.3C62.8002 10.4 62.6002 10.7 62.5002 10.9C62.4002 11.2 62.4002 11.7 62.4002 12.4V15.3H60.7002V8.80001H62.3002V9.80001C62.9002 9.10001 63.6002 8.70001 64.4002 8.70001C64.8002 8.70001 65.1002 8.8 65.4002 8.9C65.7002 9 66.0002 9.2 66.1002 9.4C66.2002 9.6 66.4002 9.90002 66.4002 10.1C66.5002 10.4 66.5002 10.8 66.5002 11.3V15.5H66.7002Z" fill="white"/>
<path d="M16.652 7H18.3756L14.6101 11.3037L19.0399 17.16H15.5714L12.8548 13.6082L9.74636 17.16H8.02176L12.0493 12.5567L7.7998 7H11.3563L13.8119 10.2465L16.652 7ZM16.0471 16.1284H17.0022L10.8374 7.97744H9.81253L16.0471 16.1284Z" fill="white"/>
</g>
</g>
<defs>
<clipPath id="clip0_332_218">
<rect width="73" height="23" fill="white" transform="translate(0 0.5)"/>
</clipPath>
</defs>
</svg>
