<svg width="89" height="24" viewBox="0 0 89 24" fill="none" xmlns="http://www.w3.org/2000/svg">
<g clip-path="url(#clip0_332_232)">
<mask id="mask0_332_232" style="mask-type:alpha" maskUnits="userSpaceOnUse" x="0" y="0" width="89" height="24">
<path d="M85.1 0.5H3.79999C1.69999 0.5 0 2.19999 0 4.29999V19.7C0 21.8 1.69999 23.5 3.79999 23.5H85.1C87.2 23.5 88.9 21.8 88.9 19.7V4.29999C88.9 2.19999 87.2 0.5 85.1 0.5Z" fill="#50ABF1"/>
</mask>
<g mask="url(#mask0_332_232)">
<path d="M89 0.5H0V23.5H89V0.5Z" fill="#293136"/>
<path d="M89 0.5H0V23.5H89V0.5Z" fill="black"/>
<path d="M27.2002 11.2C27.2002 10.2999 27.3002 9.49996 27.6002 8.89996C27.8002 8.39996 28.1002 7.99995 28.4002 7.69995C28.8002 7.29995 29.1002 7.09996 29.6002 6.89996C30.2002 6.69996 30.8002 6.5 31.5002 6.5C32.8002 6.5 33.9002 6.89995 34.7002 7.69995C35.5002 8.49995 35.9002 9.69998 35.9002 11.1C35.9002 12.5 35.5002 13.7 34.7002 14.5C33.9002 15.3 32.9002 15.7 31.5002 15.7C30.2002 15.7 29.1002 15.3 28.3002 14.5C27.6002 13.8 27.2002 12.7 27.2002 11.2ZM29.1002 11.2C29.1002 12.2 29.3002 13 29.8002 13.5C30.3002 14 30.9002 14.3 31.6002 14.3C32.3002 14.3 32.9002 14 33.4002 13.5C33.9002 13 34.1002 12.2 34.1002 11.2C34.1002 10.1999 33.9002 9.39996 33.4002 8.89996C32.9002 8.39996 32.4002 8.09998 31.6002 8.09998C30.8002 8.09998 30.3002 8.39996 29.8002 8.89996C29.3002 9.39996 29.1002 10.0999 29.1002 11.2Z" fill="white"/>
<path d="M37.2998 15.7V6.69995H38.9998V9.89996C39.4998 9.29996 40.1998 9 40.8998 9C41.6998 9 42.2998 9.29996 42.8998 9.89996C43.3998 10.5 43.6998 11.3 43.6998 12.4C43.6998 13.5 43.3998 14.4 42.8998 15C42.3998 15.6 41.6998 15.9 40.9998 15.9C40.5998 15.9 40.2998 15.8 39.8998 15.6C39.4998 15.4 39.1998 15.1 38.9998 14.8V15.8H37.2998V15.7ZM38.9998 12.3C38.9998 13 39.0998 13.5 39.2998 13.8C39.5998 14.3 39.9998 14.5 40.4998 14.5C40.8998 14.5 41.1998 14.3 41.4998 14C41.7998 13.7 41.8998 13.2 41.8998 12.5C41.8998 11.8 41.7998 11.2 41.4998 10.9C41.1998 10.6 40.8998 10.4 40.4998 10.4C40.0998 10.4 39.6998 10.6 39.4998 10.9C39.0998 11.1 38.9998 11.6 38.9998 12.3Z" fill="white"/>
<path d="M44.3999 13.8L46.0999 13.5C46.1999 13.8 46.2999 14.1 46.4999 14.3C46.6999 14.5 46.9999 14.6 47.3999 14.6C47.7999 14.6 48.1999 14.5 48.3999 14.4C48.5999 14.3 48.5999 14.1 48.5999 13.9C48.5999 13.8 48.5999 13.7 48.4999 13.6C48.3999 13.5 48.1999 13.4 47.8999 13.4C46.4999 13.1 45.5999 12.8 45.2999 12.6C44.7999 12.2 44.4999 11.8 44.4999 11.1C44.4999 10.5 44.6999 10.0999 45.1999 9.69995C45.6999 9.29995 46.2999 9.09998 47.2999 9.09998C48.1999 9.09998 48.7999 9.2 49.2999 9.5C49.7999 9.8 49.9999 10.2 50.1999 10.8L48.5999 11.1C48.4999 10.8 48.3999 10.7 48.1999 10.5C47.9999 10.4 47.6999 10.3 47.3999 10.3C46.8999 10.3 46.5999 10.4 46.3999 10.5C46.2999 10.6 46.1999 10.7 46.1999 10.8C46.1999 10.9 46.2999 11 46.3999 11.1C46.5999 11.2 47.0999 11.4 47.9999 11.6C48.8999 11.8 49.5999 12.1 49.8999 12.4C50.2999 12.7 50.3999 13.1 50.3999 13.7C50.3999 14.3 50.1999 14.8 49.6999 15.2C49.1999 15.6 48.4999 15.8 47.4999 15.8C46.5999 15.8 45.8999 15.6 45.3999 15.3C44.8999 14.9 44.4999 14.4 44.3999 13.8Z" fill="white"/>
<path d="M55.7 13.6L57.4 13.9C57.2 14.5 56.8 15 56.4 15.3C55.9 15.6 55.3 15.8 54.6 15.8C53.5 15.8 52.6 15.4 52.1 14.7C51.7 14.1 51.5 13.4 51.5 12.5C51.5 11.4 51.8 10.6 52.3 10C52.9 9.4 53.6 9.09998 54.4 9.09998C55.4 9.09998 56.1 9.39998 56.7 10.1C57.3 10.7 57.5 11.7 57.5 13H53.2C53.2 13.5 53.4 13.9 53.6 14.2C53.8 14.5 54.2 14.6 54.6 14.6C54.9 14.6 55.1 14.5 55.3 14.4C55.5 14.2 55.6 13.9 55.7 13.6ZM55.8 11.9C55.8 11.4 55.7 11 55.4 10.8C55.2 10.5 54.9 10.4 54.5 10.4C54.1 10.4 53.8 10.5 53.6 10.8C53.4 11.1 53.2 11.4 53.2 11.9H55.8Z" fill="white"/>
<path d="M60.4998 15.7H58.7998V9.19995H60.3998V10.1C60.6998 9.69998 60.8998 9.39995 61.0998 9.19995C61.2998 9.09995 61.5998 9 61.7998 9C62.1998 9 62.5998 9.09999 62.8998 9.29999L62.3998 10.8C62.0998 10.6 61.7998 10.5 61.5998 10.5C61.3998 10.5 61.1998 10.6 60.9998 10.7C60.7998 10.8 60.6998 11.1 60.5998 11.4C60.4998 11.7 60.4998 12.5 60.4998 13.6V15.7Z" fill="white"/>
<path d="M64.9999 15.7L62.8999 9.19995H64.5999L65.7999 13.5L66.8999 9.19995H68.5999L69.6999 13.5L70.8999 9.19995H72.5999L70.4999 15.7H68.8999L67.7999 11.5L66.6999 15.7H64.9999Z" fill="white"/>
<path d="M77.8 15.7V14.7C77.6 15 77.3 15.3 76.9 15.5C76.5 15.7 76.1 15.8 75.7 15.8C75.3 15.8 74.9 15.7 74.5 15.5C74.1 15.3 73.9 15 73.7 14.7C73.5 14.4 73.5 13.9 73.5 13.3V9.19995H75.2V12.2C75.2 13.1 75.2 13.7 75.3 13.9C75.4 14.1 75.5 14.3 75.6 14.4C75.7 14.5 76 14.6 76.2 14.6C76.5 14.6 76.8 14.5 77 14.4C77.2 14.2 77.4 14 77.5 13.8C77.6 13.6 77.6 13 77.6 12V9.29999H79.3V15.8H77.8V15.7Z" fill="white"/>
<path d="M82.8001 9.19995V15.5C82.8001 16.3 82.7001 16.9 82.6001 17.3C82.5001 17.6 82.3001 17.9 82.0001 18.1C81.7001 18.3 81.3001 18.4 80.8001 18.4C80.6001 18.4 80.4001 18.4 80.2001 18.4C80.0001 18.4 79.8001 18.3 79.6001 18.3L79.9001 16.8C80.0001 16.8 80.1001 16.8 80.1001 16.8C80.2001 16.8 80.2001 16.8 80.3001 16.8C80.5001 16.8 80.6001 16.8 80.7001 16.7C80.8001 16.6 80.9001 16.5 80.9001 16.4C80.9001 16.3 81.0001 16 81.0001 15.4V9.19995H82.8001ZM81.1001 8.29999V6.69995H82.8001V8.29999H81.1001Z" fill="white"/>
<path d="M16.652 7H18.3756L14.6101 11.3037L19.0399 17.16H15.5714L12.8548 13.6082L9.74636 17.16H8.02176L12.0493 12.5567L7.7998 7H11.3563L13.8119 10.2465L16.652 7ZM16.0471 16.1284H17.0022L10.8374 7.97744H9.81253L16.0471 16.1284Z" fill="white"/>
</g>
</g>
<defs>
<clipPath id="clip0_332_232">
<rect width="89" height="23" fill="white" transform="translate(0 0.5)"/>
</clipPath>
</defs>
</svg>
