<svg width="86" height="24" viewBox="0 0 86 24" fill="none" xmlns="http://www.w3.org/2000/svg">
<g clip-path="url(#clip0_332_276)">
<mask id="mask0_332_276" style="mask-type:alpha" maskUnits="userSpaceOnUse" x="0" y="0" width="86" height="24">
<path d="M82.1 0.5H3.79999C1.69999 0.5 0 2.20005 0 4.30005V19.7C0 21.8 1.69999 23.5 3.79999 23.5H82.1C84.2 23.5 85.9 21.8 85.9 19.7V4.30005C85.9 2.20005 84.2 0.5 82.1 0.5Z" fill="#50ABF1"/>
</mask>
<g mask="url(#mask0_332_276)">
<path d="M86 0.5H0V23.5H86V0.5Z" fill="#293136"/>
<path d="M86 0.5H0V23.5H86V0.5Z" fill="black"/>
<path d="M33.2999 12.2L35.0999 12.8C34.7999 13.8 34.3999 14.5 33.7999 15C33.1999 15.5 32.3999 15.7 31.3999 15.7C30.1999 15.7 29.1999 15.3 28.4999 14.5C27.6999 13.7 27.3999 12.6 27.3999 11.2C27.3999 9.70001 27.7999 8.50001 28.5999 7.70001C29.3999 6.90001 30.3999 6.5 31.5999 6.5C32.6999 6.5 33.5999 6.8 34.2999 7.5C34.6999 7.9 34.9999 8.40001 35.1999 9.20001L33.3999 9.60004C33.2999 9.10004 33.0999 8.8 32.6999 8.5C32.3999 8.2 31.9999 8.10004 31.4999 8.10004C30.7999 8.10004 30.2999 8.29999 29.8999 8.79999C29.4999 9.29999 29.2999 10 29.2999 11.1C29.2999 12.2 29.4999 13 29.8999 13.5C30.2999 14 30.7999 14.2 31.4999 14.2C31.9999 14.2 32.3999 14 32.6999 13.7C32.8999 13.3 33.1999 12.9 33.2999 12.2Z" fill="white"/>
<path d="M37.0999 9H42.8999V15.5H41.1999V10.4H38.8999V13.3C38.8999 14 38.7999 14.6 38.5999 14.9C38.3999 15.2 38.1999 15.4 37.9999 15.5C37.7999 15.6 37.4999 15.6 36.9999 15.6C36.6999 15.6 36.3999 15.6 35.8999 15.5V14.2C35.8999 14.2 35.9999 14.2 36.1999 14.2C36.3999 14.2 36.4999 14.2 36.5999 14.2C36.7999 14.2 36.9999 14.1 36.9999 14C37.0999 13.8 37.0999 13.4 37.0999 12.7V9Z" fill="white"/>
<path d="M48.2 13.4L49.9 13.7C49.7 14.3 49.3 14.8 48.9 15.1C48.4 15.4 47.8 15.6 47.1 15.6C46 15.6 45.1 15.2 44.6 14.5C44.2 13.9 44 13.2 44 12.3C44 11.2 44.3 10.4 44.8 9.79999C45.4 9.19999 46.1 8.90002 46.9 8.90002C47.9 8.90002 48.6 9.20002 49.2 9.90002C49.8 10.5 50 11.5 50 12.8H45.7C45.7 13.3 45.9 13.7 46.1 14C46.3 14.3 46.7 14.4 47.1 14.4C47.4 14.4 47.6 14.3 47.8 14.2C47.9 14 48.1 13.8 48.2 13.4ZM48.3 11.7C48.3 11.2 48.2 10.8 47.9 10.6C47.7 10.3 47.4 10.2 47 10.2C46.6 10.2 46.3 10.3 46.1 10.6C45.9 10.9 45.7 11.2 45.7 11.7H48.3Z" fill="white"/>
<path d="M56.6999 15.5H51.7999V17.2H50.3999V14.1H51.0999C51.3999 13.8 51.5999 13.3 51.7999 12.6C51.9999 11.9 52.0999 10.7 52.0999 9H57.2999V14.1H57.9999V17.2H56.5999V15.5H56.6999ZM55.7999 14.1V10.4H53.6999C53.5999 12.2 53.2999 13.4 52.7999 14.1H55.7999Z" fill="white"/>
<path d="M59.2998 9H60.9998V13.1L63.5998 9H65.2998V15.5H63.6998V11.3L60.9998 15.5H59.2998V9Z" fill="white"/>
<path d="M66.2998 9H72.1998V10.4H70.0998V15.5H68.3998V10.4H66.2998V9Z" fill="white"/>
<path d="M73.2002 9H74.9002V11.7H76.6002C77.3002 11.7 77.8002 11.7 78.2002 11.8C78.6002 11.9 78.9002 12.1 79.1002 12.4C79.3002 12.7 79.5002 13.1 79.5002 13.5C79.5002 14.1 79.3002 14.6 78.9002 14.9C78.5002 15.2 77.8002 15.4 77.0002 15.4H73.3002V9H73.2002ZM74.9002 14.4H76.5002C77.0002 14.4 77.3002 14.3 77.5002 14.2C77.6002 14 77.7002 13.8 77.7002 13.6C77.7002 13.3 77.6002 13.1 77.3002 13C77.1002 12.9 76.6002 12.8 76.0002 12.8H74.9002V14.4Z" fill="white"/>
<path d="M16.652 7H18.3756L14.6101 11.3037L19.0399 17.16H15.5714L12.8548 13.6082L9.74636 17.16H8.02176L12.0493 12.5567L7.7998 7H11.3563L13.8119 10.2465L16.652 7ZM16.0471 16.1284H17.0022L10.8374 7.97744H9.81253L16.0471 16.1284Z" fill="white"/>
</g>
</g>
<defs>
<clipPath id="clip0_332_276">
<rect width="86" height="23" fill="white" transform="translate(0 0.5)"/>
</clipPath>
</defs>
</svg>
