<svg width="54" height="24" viewBox="0 0 54 24" fill="none" xmlns="http://www.w3.org/2000/svg">
<g clip-path="url(#clip0_332_291)">
<mask id="mask0_332_291" style="mask-type:alpha" maskUnits="userSpaceOnUse" x="0" y="0" width="54" height="24">
<path d="M50.1 0.5H3.79999C1.69999 0.5 0 2.19999 0 4.29999V19.7C0 21.8 1.69999 23.5 3.79999 23.5H50.1C52.2 23.5 53.9 21.8 53.9 19.7V4.29999C53.9 2.19999 52.2 0.5 50.1 0.5Z" fill="#50ABF1"/>
</mask>
<g mask="url(#mask0_332_291)">
<path d="M56 0.5H0V23.5H56V0.5Z" fill="#293136"/>
<path d="M56 0.5H0V23.5H56V0.5Z" fill="black"/>
<path d="M27.6001 15.7V6.69995H33.7001V8.19995H29.4001V10.3H33.1001V11.8H29.4001V15.6H27.6001V15.7Z" fill="white"/>
<path d="M34.7998 12.3C34.7998 11.7 34.8998 11.2 35.1998 10.6C35.4998 10.1 35.8998 9.69996 36.3998 9.39996C36.8998 9.09996 37.4998 9 38.0998 9C39.0998 9 39.8998 9.3 40.4998 10C41.0998 10.7 41.3998 11.4 41.3998 12.4C41.3998 13.4 41.0998 14.2 40.4998 14.8C39.8998 15.4 39.0998 15.8 38.0998 15.8C37.4998 15.8 36.8998 15.7 36.3998 15.4C35.8998 15.1 35.3998 14.7 35.1998 14.2C34.9998 13.7 34.7998 13.1 34.7998 12.3ZM36.0998 8V6.5H37.5998V8H36.0998ZM36.5998 12.4C36.5998 13 36.7998 13.5 37.0998 13.9C37.3998 14.2 37.7998 14.4 38.1998 14.4C38.5998 14.4 38.9998 14.2 39.2998 13.9C39.5998 13.6 39.7998 13.1 39.7998 12.4C39.7998 11.8 39.5998 11.3 39.2998 10.9C38.9998 10.6 38.5998 10.4 38.1998 10.4C37.7998 10.4 37.3998 10.6 37.0998 10.9C36.7998 11.3 36.5998 11.8 36.5998 12.4ZM38.6998 8V6.5H40.1998V8H38.6998Z" fill="white"/>
<path d="M42.8999 15.7V6.69995H44.5999V15.7H42.8999Z" fill="white"/>
<path d="M47.9998 9.19995V15.5C47.9998 16.3 47.8998 16.9 47.7998 17.3C47.6998 17.6 47.4998 17.9 47.1998 18.1C46.8998 18.3 46.4998 18.4 45.9998 18.4C45.7998 18.4 45.5998 18.4 45.3998 18.4C45.1998 18.4 44.9998 18.3 44.7998 18.3L45.0998 16.8C45.1998 16.8 45.2998 16.8 45.2998 16.8C45.3998 16.8 45.3998 16.8 45.4998 16.8C45.6998 16.8 45.7998 16.8 45.8998 16.7C45.9998 16.6 46.0998 16.5 46.0998 16.4C46.0998 16.3 46.1998 16 46.1998 15.4V9.19995H47.9998ZM46.2998 8.29999V6.69995H47.9998V8.29999H46.2998Z" fill="white"/>
<path d="M16.652 7H18.3756L14.6101 11.3037L19.0399 17.16H15.5714L12.8548 13.6082L9.74636 17.16H8.02176L12.0493 12.5567L7.7998 7H11.3563L13.8119 10.2465L16.652 7ZM16.0471 16.1284H17.0022L10.8374 7.97744H9.81253L16.0471 16.1284Z" fill="white"/>
</g>
</g>
<defs>
<clipPath id="clip0_332_291">
<rect width="54" height="23" fill="white" transform="translate(0 0.5)"/>
</clipPath>
</defs>
</svg>
