<svg width="93" height="24" viewBox="0 0 93 24" fill="none" xmlns="http://www.w3.org/2000/svg">
<g clip-path="url(#clip0_332_303)">
<mask id="mask0_332_303" style="mask-type:alpha" maskUnits="userSpaceOnUse" x="0" y="0" width="93" height="24">
<path d="M89.1 0.5H3.79999C1.69999 0.5 0 2.19999 0 4.29999V19.7C0 21.8 1.69999 23.5 3.79999 23.5H89.1C91.2 23.5 92.9 21.8 92.9 19.7V4.29999C92.9 2.19999 91.2 0.5 89.1 0.5Z" fill="#50ABF1"/>
</mask>
<g mask="url(#mask0_332_303)">
<path d="M93 0.5H0V23.5H93V0.5Z" fill="#293136"/>
<path d="M93 0.5H0V23.5H93V0.5Z" fill="black"/>
<path d="M29.5999 15.5V8.10004H26.8999V6.60004H33.9999V8.10004H31.2999V15.5H29.5999Z" fill="white"/>
<path d="M35.6002 11L34.0002 10.7C34.2002 10.1 34.5002 9.60005 34.9002 9.30005C35.3002 9.00005 36.0002 8.80005 36.8002 8.80005C37.6002 8.80005 38.1002 8.90004 38.5002 9.10004C38.9002 9.30004 39.1002 9.50005 39.3002 9.80005C39.5002 10.1 39.5002 10.6 39.5002 11.3V13.3C39.5002 13.9 39.5002 14.3 39.6002 14.6C39.7002 14.9 39.8002 15.2 39.9002 15.5H38.2002C38.2002 15.4 38.1002 15.2 38.0002 15C38.0002 14.9 38.0002 14.8 37.9002 14.8C37.6002 15.1 37.3002 15.3 37.0002 15.4C36.7002 15.5 36.3002 15.6 35.9002 15.6C35.2002 15.6 34.7002 15.4 34.3002 15.1C33.9002 14.7 33.7002 14.3 33.7002 13.7C33.7002 13.3 33.8002 13 34.0002 12.7C34.2002 12.4 34.4002 12.2 34.7002 12C35.0002 11.8 35.5002 11.7 36.1002 11.6C36.9002 11.4 37.5002 11.3 37.8002 11.2V11C37.8002 10.7 37.7002 10.4 37.6002 10.3C37.5002 10.2 37.1002 10.1 36.7002 10.1C36.4002 10.1 36.2002 10.2 36.0002 10.3C35.8002 10.4 35.7002 10.7 35.6002 11ZM37.9002 12.4C37.7002 12.5 37.3002 12.6 36.9002 12.7C36.5002 12.8 36.1002 12.9 36.0002 13C35.8002 13.2 35.7002 13.4 35.7002 13.6C35.7002 13.8 35.8002 14 36.0002 14.2C36.2002 14.4 36.4002 14.5 36.7002 14.5C37.0002 14.5 37.3002 14.4 37.6002 14.2C37.8002 14 37.9002 13.9 38.0002 13.6C38.0002 13.5 38.1002 13.2 38.1002 12.8V12.4H37.9002Z" fill="white"/>
<path d="M41.2002 15.5V6.5H42.9002V11.3L44.9002 9H47.0002L44.8002 11.4L47.2002 15.5H45.3002L43.7002 12.6L42.9002 13.4V15.5H41.2002Z" fill="white"/>
<path d="M48.2002 8.10004V6.5H49.9002V8.10004H48.2002ZM48.2002 15.5V9H49.9002V15.5H48.2002Z" fill="white"/>
<path d="M51.7002 9H53.3002V10C53.5002 9.7 53.8002 9.40002 54.1002 9.20002C54.5002 9.00002 54.8002 8.90002 55.3002 8.90002C56.1002 8.90002 56.7002 9.20005 57.2002 9.80005C57.7002 10.4001 58.0002 11.2 58.0002 12.3C58.0002 13.4 57.7002 14.2 57.2002 14.8C56.7002 15.4 56.0002 15.7 55.3002 15.7C54.9002 15.7 54.6002 15.6 54.3002 15.5C54.0002 15.4 53.7002 15.1 53.4002 14.8V18.1H51.7002V9ZM53.4002 12.1C53.4002 12.8 53.5002 13.4 53.8002 13.7C54.1002 14 54.4002 14.2 54.9002 14.2C55.3002 14.2 55.6002 14 55.9002 13.7C56.2002 13.4 56.3002 12.9 56.3002 12.1C56.3002 11.4 56.2002 10.9 55.9002 10.6C55.6002 10.3 55.3002 10.1 54.9002 10.1C54.5002 10.1 54.1002 10.3 53.9002 10.6C53.5002 11 53.4002 11.5 53.4002 12.1Z" fill="white"/>
<path d="M66.5999 13.4L68.2999 13.7C68.0999 14.3 67.6999 14.8 67.2999 15.1C66.7999 15.4 66.1999 15.6 65.4999 15.6C64.3999 15.6 63.4999 15.2 62.9999 14.5C62.5999 13.9 62.3999 13.2 62.3999 12.3C62.3999 11.2 62.6999 10.4001 63.1999 9.80005C63.7999 9.20005 64.4999 8.90002 65.2999 8.90002C66.2999 8.90002 66.9999 9.20002 67.5999 9.90002C68.1999 10.5 68.3999 11.5 68.3999 12.8H64.0999C64.0999 13.3 64.2999 13.7 64.4999 14C64.6999 14.3 65.0999 14.4 65.4999 14.4C65.7999 14.4 65.9999 14.3 66.1999 14.2C66.3999 14 66.4999 13.7 66.5999 13.4ZM66.6999 11.7C66.6999 11.2 66.5999 10.8 66.2999 10.6C66.0999 10.3 65.7999 10.2 65.3999 10.2C64.9999 10.2 64.6999 10.3 64.4999 10.6C64.2999 10.9 64.0999 11.2 64.0999 11.7H66.6999Z" fill="white"/>
<path d="M75.8 15.5H74.2V14.5C73.9 14.9 73.6 15.1 73.3 15.3C72.9 15.5 72.6 15.6 72.2 15.6C71.5 15.6 70.8 15.3 70.3 14.7C69.8 14.1 69.5 13.3 69.5 12.2C69.5 11.1 69.8 10.3 70.3 9.70001C70.8 9.10001 71.5 8.80005 72.3 8.80005C73 8.80005 73.7 9.10001 74.2 9.70001V6.5H75.9V15.5H75.8ZM71.2 12.1C71.2 12.8 71.3 13.3 71.5 13.6C71.8 14 72.2 14.3 72.7 14.3C73.1 14.3 73.4 14.1 73.7 13.8C74 13.5 74.1 13 74.1 12.3C74.1 11.6 74 11 73.7 10.7C73.4 10.4 73.1 10.2 72.7 10.2C72.3 10.2 72 10.4 71.7 10.7C71.3 11 71.2 11.4 71.2 12.1Z" fill="white"/>
<path d="M77.3999 8.10004V6.5H79.0999V8.10004H77.3999ZM77.3999 15.5V9H79.0999V15.5H77.3999Z" fill="white"/>
<path d="M86.7999 15.5H85.0999V12.2C85.0999 11.5 85.0999 11 84.9999 10.8C84.8999 10.6 84.7999 10.4001 84.5999 10.3001C84.3999 10.2001 84.1999 10.1 83.9999 10.1C83.6999 10.1 83.3999 10.2001 83.1999 10.3001C82.9999 10.4001 82.7999 10.7 82.6999 10.9C82.5999 11.2 82.5999 11.7 82.5999 12.4V15.3H80.8999V8.80005H82.4999V9.80005C83.0999 9.10005 83.7999 8.70001 84.5999 8.70001C84.9999 8.70001 85.2999 8.80002 85.5999 8.90002C85.8999 9.00002 86.1999 9.20002 86.2999 9.40002C86.3999 9.60002 86.5999 9.90004 86.5999 10.1C86.6999 10.4 86.6999 10.8 86.6999 11.3V15.5H86.7999Z" fill="white"/>
<path d="M16.652 7H18.3756L14.6101 11.3037L19.0399 17.16H15.5714L12.8548 13.6082L9.74636 17.16H8.02176L12.0493 12.5567L7.7998 7H11.3563L13.8119 10.2465L16.652 7ZM16.0471 16.1284H17.0022L10.8374 7.97744H9.81253L16.0471 16.1284Z" fill="white"/>
</g>
</g>
<defs>
<clipPath id="clip0_332_303">
<rect width="93" height="23" fill="white" transform="translate(0 0.5)"/>
</clipPath>
</defs>
</svg>
