<svg width="87" height="24" viewBox="0 0 87 24" fill="none" xmlns="http://www.w3.org/2000/svg">
<g clip-path="url(#clip0_332_320)">
<mask id="mask0_332_320" style="mask-type:alpha" maskUnits="userSpaceOnUse" x="0" y="0" width="87" height="24">
<path d="M83.1 0.5H3.79999C1.69999 0.5 0 2.19999 0 4.29999V19.7C0 21.8 1.69999 23.5 3.79999 23.5H83.1C85.2 23.5 86.9 21.8 86.9 19.7V4.29999C86.9 2.19999 85.2 0.5 83.1 0.5Z" fill="#50ABF1"/>
</mask>
<g mask="url(#mask0_332_320)">
<path d="M87 0.5H0V23.5H87V0.5Z" fill="#293136"/>
<path d="M87 0.5H0V23.5H87V0.5Z" fill="black"/>
<path d="M33.3002 11.1L31.6002 11.4C31.5002 11.1 31.4002 10.8 31.2002 10.6C31.0002 10.4 30.7002 10.3 30.4002 10.3C30.0002 10.3 29.6002 10.4 29.4002 10.7C29.1002 11 29.0002 11.5 29.0002 12.2C29.0002 13 29.1002 13.5 29.4002 13.8C29.7002 14.1 30.0002 14.3 30.4002 14.3C30.7002 14.3 31.0002 14.2 31.2002 14C31.4002 13.8 31.6002 13.5 31.6002 13L33.3002 13.3C33.1002 14.1 32.8002 14.7 32.3002 15.1C31.8002 15.5 31.1002 15.7 30.3002 15.7C29.4002 15.7 28.6002 15.4 28.0002 14.8C27.4002 14.2 27.2002 13.4 27.2002 12.3C27.2002 11.2 27.5002 10.4 28.0002 9.79999C28.6002 9.19999 29.3002 8.89996 30.3002 8.89996C31.1002 8.89996 31.7002 9.09996 32.2002 9.39996C32.7002 9.89996 33.1002 10.4 33.3002 11.1Z" fill="white"/>
<path d="M34.9998 9.19995H40.7998V15.7H39.0998V10.6H36.7998V13.5C36.7998 14.2 36.6998 14.8 36.4998 15.1C36.2998 15.4 36.0998 15.6 35.8998 15.7C35.6998 15.8 35.3998 15.8 34.8998 15.8C34.5998 15.8 34.2998 15.8 33.7998 15.7V14.4C33.7998 14.4 33.8998 14.4 34.0998 14.4C34.2998 14.4 34.3998 14.4 34.4998 14.4C34.6998 14.4 34.8998 14.3 34.8998 14.2C34.9998 14 34.9998 13.6 34.9998 12.9V9.19995Z" fill="white"/>
<path d="M42.5 8.29999V6.69995H44.2V8.29999H42.5ZM42.5 15.7V9.19995H44.2V15.7H42.5Z" fill="white"/>
<path d="M51.4001 15.7H46.5001V17.4H45.1001V14.3H45.8001C46.1001 14 46.3001 13.5 46.5001 12.8C46.7001 12.1 46.8001 10.9 46.8001 9.19995H52.0001V14.3H52.7001V17.4H51.3001V15.7H51.4001ZM50.4001 14.3V10.6H48.3001C48.2001 12.4 47.9001 13.6 47.4001 14.3H50.4001Z" fill="white"/>
<path d="M53.2998 9.19995H55.0998L56.6998 13.8L58.1998 9.19995H59.9998L57.6998 15.4L57.2998 16.5C57.0998 16.9 56.9998 17.2 56.8998 17.4C56.7998 17.6 56.5998 17.8 56.3998 17.9C56.1998 18 55.9998 18.1 55.6998 18.2C55.3998 18.3 55.0998 18.3 54.7998 18.3C54.4998 18.3 54.0998 18.3 53.7998 18.2L53.5998 16.9C53.8998 17 54.0998 17 54.2998 17C54.6998 17 54.9998 16.9 55.1998 16.6C55.3998 16.4 55.4998 16.1 55.5998 15.7L53.2998 9.19995Z" fill="white"/>
<path d="M61 9.19995H62.7V13.3L65.3 9.19995H67V15.7H65.4V11.5L62.7 15.7H61V9.19995ZM65.1 6.5H65.9C65.9 7.1 65.7 7.49999 65.3 7.79999C65 8.09999 64.5 8.29999 64 8.29999C63.5 8.29999 63 8.09999 62.7 7.79999C62.4 7.49999 62.2 7 62.1 6.5H62.9C62.9 6.8 63 6.99995 63.2 7.19995C63.4 7.29995 63.6 7.39996 64 7.39996C64.4 7.39996 64.6 7.29995 64.8 7.19995C65 7.09995 65.1 6.8 65.1 6.5Z" fill="white"/>
<path d="M68 9.19995H73.9V10.6H71.8V15.7H70.1V10.6H68V9.19995Z" fill="white"/>
<path d="M78.5999 13.6L80.2999 13.9C80.0999 14.5 79.6999 15 79.2999 15.3C78.7999 15.6 78.1999 15.8 77.4999 15.8C76.3999 15.8 75.4999 15.4 74.9999 14.7C74.5999 14.1 74.3999 13.4 74.3999 12.5C74.3999 11.4 74.6999 10.6 75.1999 10C75.7999 9.4 76.4999 9.09998 77.2999 9.09998C78.2999 9.09998 78.9999 9.39998 79.5999 10.1C80.1999 10.7 80.3999 11.7 80.3999 13H76.0999C76.0999 13.5 76.2999 13.9 76.4999 14.2C76.6999 14.5 77.0999 14.6 77.4999 14.6C77.7999 14.6 77.9999 14.5 78.1999 14.4C78.3999 14.2 78.4999 13.9 78.5999 13.6ZM78.6999 11.9C78.6999 11.4 78.5999 11 78.2999 10.8C78.0999 10.5 77.7999 10.4 77.3999 10.4C76.9999 10.4 76.6999 10.5 76.4999 10.8C76.2999 11.1 76.0999 11.4 76.0999 11.9H78.6999Z" fill="white"/>
<path d="M16.652 7H18.3756L14.6101 11.3037L19.0399 17.16H15.5714L12.8548 13.6082L9.74636 17.16H8.02176L12.0493 12.5567L7.7998 7H11.3563L13.8119 10.2465L16.652 7ZM16.0471 16.1284H17.0022L10.8374 7.97744H9.81253L16.0471 16.1284Z" fill="white"/>
</g>
</g>
<defs>
<clipPath id="clip0_332_320">
<rect width="87" height="23" fill="white" transform="translate(0 0.5)"/>
</clipPath>
</defs>
</svg>
