<svg width="84" height="24" viewBox="0 0 84 24" fill="none" xmlns="http://www.w3.org/2000/svg">
<g clip-path="url(#clip0_332_336)">
<mask id="mask0_332_336" style="mask-type:alpha" maskUnits="userSpaceOnUse" x="0" y="0" width="84" height="24">
<path d="M80.1 0.5H3.79999C1.69999 0.5 0 2.19999 0 4.29999V19.7C0 21.8 1.69999 23.5 3.79999 23.5H80.1C82.2 23.5 83.9 21.8 83.9 19.7V4.29999C83.9 2.19999 82.2 0.5 80.1 0.5Z" fill="#50ABF1"/>
</mask>
<g mask="url(#mask0_332_336)">
<path d="M84 0.5H0V23.5H84V0.5Z" fill="#293136"/>
<path d="M84 0.5H0V23.5H84V0.5Z" fill="black"/>
<path d="M29.5999 16.5V9.09998H26.8999V7.59998H33.9999V9.09998H31.2999V16.5H29.5999Z" fill="white"/>
<path d="M36.9998 7.5V10.8C37.5998 10.2 38.1998 9.79999 38.9998 9.79999C39.3998 9.79999 39.7998 9.9 40.0998 10C40.3998 10.1 40.6998 10.3 40.7998 10.6C40.8998 10.9 41.0998 11.1 41.0998 11.4C41.0998 11.7 41.1998 12.1 41.1998 12.7V16.5H39.4998V13.1C39.4998 12.4 39.4998 12 39.3998 11.8C39.2998 11.6 39.1998 11.5 39.0998 11.4C38.8998 11.3 38.6998 11.2 38.4998 11.2C38.1998 11.2 37.9998 11.3 37.6998 11.4C37.3998 11.5 37.2998 11.7 37.1998 12C37.0998 12.3 36.9998 12.7 36.9998 13.2V16.5H35.2998V7.5H36.9998Z" fill="white"/>
<path d="M46.5999 14.4L48.2999 14.7C48.0999 15.3 47.6999 15.8 47.2999 16.1C46.7999 16.4 46.1999 16.6 45.4999 16.6C44.3999 16.6 43.4999 16.2 42.9999 15.5C42.5999 14.9 42.3999 14.2 42.3999 13.3C42.3999 12.2 42.6999 11.4 43.1999 10.8C43.7999 10.2 44.4999 9.89996 45.2999 9.89996C46.2999 9.89996 46.9999 10.2 47.5999 10.9C48.1999 11.5 48.3999 12.5 48.3999 13.8H44.0999C44.0999 14.3 44.2999 14.7 44.4999 15C44.6999 15.3 45.0999 15.4 45.4999 15.4C45.7999 15.4 45.9999 15.3 46.1999 15.2C46.3999 14.9 46.5999 14.7 46.5999 14.4ZM46.6999 12.6C46.6999 12.1 46.5999 11.7 46.2999 11.5C46.0999 11.2 45.7999 11.1 45.3999 11.1C44.9999 11.1 44.6999 11.2 44.4999 11.5C44.2999 11.8 44.0999 12.1 44.0999 12.6H46.6999Z" fill="white"/>
<path d="M49.5 13.1C49.5 12.5 49.6 12 49.9 11.4C50.2 10.9 50.6 10.5 51.1 10.2C51.6 9.90001 52.2 9.79999 52.8 9.79999C53.8 9.79999 54.6 10.1 55.2 10.8C55.8 11.4 56.1 12.2 56.1 13.2C56.1 14.2 55.8 15 55.1 15.6C54.5 16.2 53.7 16.6 52.7 16.6C52.1 16.6 51.5 16.5 51 16.2C50.5 15.9 50 15.5 49.8 15C49.6 14.5 49.5 13.9 49.5 13.1ZM51.2 13.2C51.2 13.8 51.4 14.3 51.7 14.7C52 15 52.4 15.2 52.8 15.2C53.2 15.2 53.6 15 53.9 14.7C54.2 14.4 54.4 13.9 54.4 13.2C54.4 12.6 54.2 12.1 53.9 11.7C53.6 11.4 53.2 11.2 52.8 11.2C52.4 11.2 52 11.4 51.7 11.7C51.4 12.1 51.2 12.6 51.2 13.2Z" fill="white"/>
<path d="M66.9001 16.5H65.3001V15.5C65.0001 15.9 64.7001 16.1 64.4001 16.3C64.0001 16.5 63.7001 16.6 63.3001 16.6C62.6001 16.6 61.9001 16.3 61.4001 15.7C60.9001 15.1 60.6001 14.3 60.6001 13.2C60.6001 12.1 60.9001 11.3 61.4001 10.7C61.9001 10.1 62.6001 9.79999 63.4001 9.79999C64.1001 9.79999 64.8001 10.1 65.3001 10.7V7.5H67.0001V16.5H66.9001ZM62.3001 13.1C62.3001 13.8 62.4001 14.3 62.6001 14.6C62.9001 15 63.3001 15.3 63.8001 15.3C64.2001 15.3 64.5001 15.1 64.8001 14.8C65.1001 14.5 65.2001 14 65.2001 13.3C65.2001 12.6 65.1001 12 64.8001 11.7C64.5001 11.4 64.2001 11.2 63.8001 11.2C63.4001 11.2 63.1001 11.4 62.8001 11.7C62.5001 11.9 62.3001 12.4 62.3001 13.1Z" fill="white"/>
<path d="M68.2002 13.1C68.2002 12.5 68.3002 12 68.6002 11.4C68.9002 10.9 69.3002 10.5 69.8002 10.2C70.3002 9.90001 70.9002 9.79999 71.5002 9.79999C72.5002 9.79999 73.3002 10.1 73.9002 10.8C74.5002 11.4 74.8002 12.2 74.8002 13.2C74.8002 14.2 74.5002 15 73.8002 15.6C73.2002 16.2 72.4002 16.6 71.4002 16.6C70.8002 16.6 70.2002 16.5 69.7002 16.2C69.2002 15.9 68.7002 15.5 68.5002 15C68.3002 14.5 68.2002 13.9 68.2002 13.1ZM70.2002 9.09998H69.4002C69.4002 8.99998 69.4002 8.89996 69.4002 8.89996C69.4002 8.49996 69.5002 8.09996 69.7002 7.89996C69.9002 7.69996 70.2002 7.59998 70.5002 7.59998C70.6002 7.59998 70.8002 7.59998 70.9002 7.59998C71.0002 7.59998 71.2002 7.69996 71.6002 7.89996C72.0002 8.09996 72.2002 8.09998 72.4002 8.09998C72.5002 8.09998 72.6002 8.1 72.7002 8C72.8002 7.9 72.8002 7.79998 72.9002 7.59998H73.7002C73.7002 8.09998 73.6002 8.49999 73.4002 8.79999C73.2002 8.99999 72.9002 9.20001 72.6002 9.20001C72.5002 9.20001 72.3002 9.20001 72.2002 9.20001C72.1002 9.20001 71.9002 9.09996 71.5002 8.89996C71.1002 8.79996 70.9002 8.70001 70.7002 8.70001C70.6002 8.70001 70.5002 8.69999 70.4002 8.79999C70.3002 8.79999 70.3002 8.89998 70.2002 9.09998ZM70.0002 13.2C70.0002 13.8 70.2002 14.3 70.5002 14.7C70.8002 15 71.2002 15.2 71.6002 15.2C72.0002 15.2 72.4002 15 72.7002 14.7C73.0002 14.4 73.2002 13.9 73.2002 13.2C73.2002 12.6 73.0002 12.1 72.7002 11.7C72.4002 11.4 72.0002 11.2 71.6002 11.2C71.2002 11.2 70.8002 11.4 70.5002 11.7C70.1002 12.1 70.0002 12.6 70.0002 13.2Z" fill="white"/>
<path d="M76.2998 9.09998V7.5H77.9998V9.09998H76.2998ZM76.2998 16.5V10H77.9998V16.5H76.2998Z" fill="white"/>
<path d="M16.652 7H18.3756L14.6101 11.3037L19.0399 17.16H15.5714L12.8548 13.6082L9.74636 17.16H8.02176L12.0493 12.5567L7.7998 7H11.3563L13.8119 10.2465L16.652 7ZM16.0471 16.1284H17.0022L10.8374 7.97744H9.81253L16.0471 16.1284Z" fill="white"/>
</g>
</g>
<defs>
<clipPath id="clip0_332_336">
<rect width="84" height="23" fill="white" transform="translate(0 0.5)"/>
</clipPath>
</defs>
</svg>
