<svg width="57" height="24" viewBox="0 0 57 24" fill="none" xmlns="http://www.w3.org/2000/svg">
<g clip-path="url(#clip0_332_351)">
<mask id="mask0_332_351" style="mask-type:alpha" maskUnits="userSpaceOnUse" x="0" y="0" width="57" height="24">
<path d="M53.1 0.5H3.79999C1.69999 0.5 0 2.19999 0 4.29999V19.7C0 21.8 1.69999 23.5 3.79999 23.5H53.1C55.2 23.5 56.9 21.8 56.9 19.7V4.29999C56.9 2.19999 55.2 0.5 53.1 0.5Z" fill="#50ABF1"/>
</mask>
<g mask="url(#mask0_332_351)">
<path d="M57 0.5H0V23.5H57V0.5Z" fill="#293136"/>
<path d="M57 0.5H0V23.5H57V0.5Z" fill="black"/>
<path d="M37.1999 13.3H33.4999C34.1999 15.3 35.3999 16.8 37.3999 17.4C37.1999 17.6 36.9998 17.9 36.7998 18.1C34.8998 17.4 33.6999 16.1 32.9999 14.2C32.5999 15.6 31.4999 17.1 28.8999 18.1C28.7999 17.9 28.4998 17.6 28.2998 17.4C31.2998 16.2 32.0998 14.6 32.2998 13.2H28.5999V12.4H32.2998V10.1H29.0999V9.3H36.4999V10.1H33.1999V12.4H37.0999V13.3H37.1999ZM30.9999 9.3C30.7999 8.7 30.1999 7.80001 29.6999 7.10001L30.3999 6.7C30.8999 7.4 31.4999 8.3 31.6999 8.8L30.9999 9.3ZM34.0999 8.90001C34.4999 8.30001 35.0999 7.2 35.3999 6.5L36.3999 6.90001C36.3999 7.00001 36.2999 7 36.0999 7C35.7999 7.6 35.1998 8.6 34.7998 9.2L34.0999 8.90001Z" fill="white"/>
<path d="M40.1001 10.1C41.0001 10.4 42.1001 10.9 42.6001 11.3L42.1001 12C41.6001 11.6 40.5001 11 39.6001 10.7L40.1001 10.1ZM40.1001 17.4C40.8001 16.4 41.8001 14.7 42.5001 13.3L43.1001 13.9C42.4001 15.2 41.5001 16.8 40.9001 17.8C40.9001 17.9 41.0001 17.9 41.0001 18C41.0001 18.1 41.0001 18.1 40.9001 18.2L40.1001 17.4ZM40.8 6.7C41.7 7 42.7001 7.6 43.2001 8L42.7001 8.7C42.2001 8.2 41.2 7.6 40.3 7.3L40.8 6.7ZM47.5001 17H51.3V17.8H42.9001V17H46.6001V13.8H43.7001V13H46.6001V10.1H43.3V9.3H51.0001V10.1H47.5001V13H50.5001V13.8H47.5001V17ZM45.6001 6.5C46.7001 7 47.9001 7.9 48.5001 8.5L47.9001 9.2C47.3001 8.6 46.1001 7.70001 45.0001 7.10001L45.6001 6.5Z" fill="white"/>
<path d="M16.652 7H18.3756L14.6101 11.3037L19.0399 17.16H15.5714L12.8548 13.6082L9.74636 17.16H8.02176L12.0493 12.5567L7.7998 7H11.3563L13.8119 10.2465L16.652 7ZM16.0471 16.1284H17.0022L10.8374 7.97744H9.81253L16.0471 16.1284Z" fill="white"/>
</g>
</g>
<defs>
<clipPath id="clip0_332_351">
<rect width="57" height="23" fill="white" transform="translate(0 0.5)"/>
</clipPath>
</defs>
</svg>
