<svg width="50" height="23" viewBox="0 0 50 23" fill="none" xmlns="http://www.w3.org/2000/svg">
<g clip-path="url(#clip0_332_681)">
<mask id="mask0_332_681" style="mask-type:alpha" maskUnits="userSpaceOnUse" x="0" y="0" width="50" height="23">
<path d="M46.1 0H3.8C1.7 0 0 1.7 0 3.8V19.2C0 21.3 1.7 23 3.8 23H46.1C48.2 23 49.9 21.3 49.9 19.2V3.8C49.8 1.7 48.1 0 46.1 0Z" fill="#50ABF1"/>
</mask>
<g mask="url(#mask0_332_681)">
<path d="M50 0H0V23H50V0Z" fill="#293136"/>
<path d="M50 0H0V23H50V0Z" fill="#E1E7EC"/>
<path d="M50 0H0V23H50V0Z" fill="#CB1F24"/>
<path d="M50 0H0V23H50V0Z" fill="#3A559F"/>
<path d="M50 0H0V23H50V0Z" fill="black"/>
<path d="M32.0999 14.3H29.2999C28.9999 14.3 28.7999 14.2 28.6999 14.1C28.4999 14 28.3999 13.7 28.3999 13.4C28.3999 13.2 28.3999 13 28.3999 12.8C28.3999 12.6 28.3999 12.4 28.4999 12.2H28.6999C28.6999 12.3 28.7999 12.4 28.8999 12.5C28.9999 12.6 29.0999 12.6 29.2999 12.6H31.3999C31.2999 12 31.0999 11.5 30.8999 11.2C30.6999 10.9 30.3999 10.6 30.0999 10.4L30.4999 8.5C30.9999 8.9 31.3999 9.4 31.5999 10C31.7999 10.6 31.8999 11.3 31.8999 12.3V14.3H32.0999Z" fill="white"/>
<path d="M37.5001 14.5C37.5001 14.7 37.4001 15.1 37.1001 15.5C36.8001 15.9 36.5001 16.3 36.1001 16.6C35.7001 16.9 35.3001 17.1 35.0001 17.1C34.6001 17.1 34.3001 17 33.8001 16.8C33.4001 16.6 32.9001 16.3 32.1001 15.7L32.4001 15.3C32.8001 15.5 33.1001 15.7 33.3001 15.8C33.5001 15.9 33.8001 15.9 34.0001 15.9C34.3001 15.9 34.6001 15.8 34.8001 15.7C35.1001 15.5 35.5001 15.2 35.9001 14.8C36.6001 14.2 36.9001 13.7 36.9001 13.4C36.9001 13.2 36.8001 13 36.7001 12.8C36.6001 12.5 36.4001 12.2 36.2001 12L36.5001 10.3C36.8001 10.6 37.0001 10.9 37.1001 11.3C37.3001 11.7 37.3001 12.1 37.3001 12.6V14.5H37.5001Z" fill="white"/>
<path d="M43.5001 11.4L42.8001 13.1C41.7001 13.4 40.8001 13.7 40.1001 13.9C39.5001 14.1 39.0001 14.2 38.5001 14.2C38.2001 14.2 37.9001 14.3 37.6001 14.3H37.1001V12.6H37.7001C37.8001 12.6 37.9001 12.6 38.0001 12.6C38.1001 12.6 38.2001 12.6 38.4001 12.6C38.2001 12.3 38.1001 12 38.0001 11.9C37.9001 11.7 37.9001 11.5 37.9001 11.3C37.9001 10.7 38.2001 10.2 38.7001 9.70001C39.2001 9.20001 39.8001 9.00001 40.5001 9.00001C41.0001 9.00001 41.4001 9.10001 41.8001 9.40001C42.2001 9.70001 42.5001 10 42.6001 10.4L42.3001 10.6C42.0001 10.5 41.7001 10.4 41.5001 10.4C41.3001 10.4 41.1001 10.3 40.8001 10.3C40.3001 10.3 39.9001 10.3 39.5001 10.4C39.0001 10.5 38.8001 10.6 38.8001 10.8C38.8001 11.1 39.4001 11.5 40.5001 12.2L43.5001 11.4ZM41.1001 6.80001L40.4001 8.20001L39.0001 7.50001L39.7001 6.10001L41.1001 6.80001Z" fill="white"/>
<path d="M15.652 6H17.3756L13.6101 10.3037L18.0399 16.16H14.5714L11.8548 12.6082L8.74636 16.16H7.02176L11.0493 11.5567L6.7998 6H10.3563L12.8119 9.24651L15.652 6ZM15.0471 15.1284H16.0022L9.83738 6.97744H8.81253L15.0471 15.1284Z" fill="white"/>
</g>
</g>
<defs>
<clipPath id="clip0_332_681">
<rect width="50" height="23" fill="white"/>
</clipPath>
</defs>
</svg>
