<svg width="59" height="23" viewBox="0 0 59 23" fill="none" xmlns="http://www.w3.org/2000/svg">
<g clip-path="url(#clip0_332_695)">
<mask id="mask0_332_695" style="mask-type:alpha" maskUnits="userSpaceOnUse" x="0" y="0" width="59" height="23">
<path d="M55.1 0H3.8C1.7 0 0 1.69999 0 3.79999V19.2C0 21.3 1.7 23 3.8 23H55.1C57.2 23 58.9 21.3 58.9 19.2V3.79999C58.8 1.69999 57.1 0 55.1 0Z" fill="#50ABF1"/>
</mask>
<g mask="url(#mask0_332_695)">
<path d="M59 0H0V23H59V0Z" fill="#293136"/>
<path d="M59 0H0V23H59V0Z" fill="#E1E7EC"/>
<path d="M59 0H0V23H59V0Z" fill="#CB1F24"/>
<path d="M59 0H0V23H59V0Z" fill="#3A559F"/>
<path d="M59 0H0V23H59V0Z" fill="black"/>
<path d="M32.0002 13.7H29.4002V15H28.7002V7H32.1002V13.7H32.0002ZM31.3002 7.79999H29.5002V12.9H31.3002V7.79999ZM33.2002 14.4C33.0002 15.4 32.7002 16.4 32.0002 17L31.4002 16.6C32.1002 16.1 32.4002 15.1 32.6002 14.2L33.2002 14.4ZM39.9002 12H33.9002V12.9H39.0002H39.2002L39.6002 13C39.6002 13.1 39.6002 13.2 39.6002 13.3C39.4002 15.8 39.3002 16.8 39.0002 17.1C38.7002 17.4 38.5002 17.4 37.7002 17.4C37.4002 17.4 37.1002 17.4 36.8002 17.4C36.8002 17.2 36.7002 16.9 36.6002 16.7C37.2002 16.7 37.7002 16.7 38.0002 16.7C38.2002 16.7 38.3002 16.7 38.4002 16.6C38.6002 16.4 38.7002 15.6 38.9002 13.6H33.2002V6.79999H35.2002C35.4002 6.39999 35.6002 6 35.6002 5.7L36.7002 6C36.7002 6.1 36.6002 6.09999 36.4002 6.09999C36.3002 6.29999 36.2002 6.59999 36.0002 6.89999H38.9002V10.6H34.0002V11.4H40.0002V12H39.9002ZM34.1002 16.6C34.1002 16 34.0002 15.2 33.7002 14.5L34.4002 14.4C34.6002 15.1 34.8002 16 34.8002 16.5L34.1002 16.6ZM38.0002 7.39999H33.9002V8.29999H38.0002V7.39999ZM33.8002 9.89999H37.9002V8.89999H33.8002V9.89999ZM35.9002 16.1C35.8002 15.6 35.5002 14.9 35.2002 14.3L35.8002 14.1C36.1002 14.6 36.5002 15.4 36.6002 15.8L35.9002 16.1ZM37.6002 15.6C37.4002 15.2 37.0002 14.6 36.6002 14.1L37.2002 13.9C37.6002 14.3 38.0002 14.9 38.2002 15.3L37.6002 15.6Z" fill="white"/>
<path d="M45.0002 13.7H42.0002V15H41.2002V6.79999H45.0002V13.7ZM44.1002 7.59999H41.9002V12.9H44.1002V7.59999ZM50.9002 13.2C51.7002 13.1 52.0002 13 52.3002 12.9C52.3002 13.1 52.4002 13.3 52.4002 13.7L50.8002 14V17.3H50.0002V14.1L44.9002 15L44.8002 14.2L46.6002 13.9V6.79999L47.7002 6.89999C47.7002 6.99999 47.6002 7.09999 47.5002 7.09999V13.8L50.1002 13.4V5.89999L51.2002 6C51.2002 6.1 51.1002 6.2 50.9002 6.2V13.2Z" fill="white"/>
<path d="M15.652 6H17.3756L13.6101 10.3037L18.0399 16.16H14.5714L11.8548 12.6082L8.74636 16.16H7.02176L11.0493 11.5567L6.7998 6H10.3563L12.8119 9.24651L15.652 6ZM15.0471 15.1284H16.0022L9.83738 6.97744H8.81253L15.0471 15.1284Z" fill="white"/>
</g>
</g>
<defs>
<clipPath id="clip0_332_695">
<rect width="59" height="23" fill="white"/>
</clipPath>
</defs>
</svg>
