<svg width="83" height="23" viewBox="0 0 83 23" fill="none" xmlns="http://www.w3.org/2000/svg">
<g clip-path="url(#clip0_332_708)">
<mask id="mask0_332_708" style="mask-type:alpha" maskUnits="userSpaceOnUse" x="0" y="0" width="83" height="23">
<path d="M79.1 0H3.8C1.7 0 0 1.69999 0 3.79999V19.2C0 21.3 1.7 23 3.8 23H79.1C81.2 23 82.9 21.3 82.9 19.2V3.79999C82.8 1.69999 81.1 0 79.1 0Z" fill="#50ABF1"/>
</mask>
<g mask="url(#mask0_332_708)">
<path d="M83 0H0V23H83V0Z" fill="#293136"/>
<path d="M83 0H0V23H83V0Z" fill="#E1E7EC"/>
<path d="M83 0H0V23H83V0Z" fill="#CB1F24"/>
<path d="M83 0H0V23H83V0Z" fill="#3A559F"/>
<path d="M83 0H0V23H83V0Z" fill="black"/>
<path d="M30.7 15.9V8.5H28V7H35.1V8.5H32.4V15.9H30.7Z" fill="white"/>
<path d="M36.6 15.9L34.5 9.39999H36.2L37.4 13.7L38.5 9.39999H40.2L41.3 13.7L42.5 9.39999H44.2L42.1 15.9H40.4L39.3 11.7L38.2 15.9H36.6Z" fill="white"/>
<path d="M48.9002 13.8L50.6002 14.1C50.4002 14.7 50.0002 15.2 49.6002 15.5C49.2002 15.8 48.5002 16 47.8002 16C46.7002 16 45.8002 15.6 45.3002 14.9C44.9002 14.3 44.7002 13.6 44.7002 12.7C44.7002 11.6 45.0002 10.8 45.5002 10.2C46.1002 9.59998 46.8002 9.29999 47.6002 9.29999C48.6002 9.29999 49.3002 9.59999 49.9002 10.3C50.5002 10.9 50.7002 11.9 50.7002 13.2H46.4002C46.4002 13.7 46.6002 14.1 46.8002 14.4C47.1002 14.7 47.4002 14.8 47.8002 14.8C48.1002 14.8 48.3002 14.7 48.5002 14.6C48.7002 14.4 48.8002 14.2 48.9002 13.8ZM49.0002 12.1C49.0002 11.6 48.9002 11.2 48.6002 11C48.3002 10.8 48.1002 10.6 47.7002 10.6C47.3002 10.6 47.0002 10.7 46.8002 11C46.6002 11.3 46.4002 11.6 46.4002 12.1H49.0002Z" fill="white"/>
<path d="M55.9002 13.8L57.6002 14.1C57.4002 14.7 57.0002 15.2 56.6002 15.5C56.2002 15.8 55.5002 16 54.8002 16C53.7002 16 52.8002 15.6 52.3002 14.9C51.9002 14.3 51.7002 13.6 51.7002 12.7C51.7002 11.6 52.0002 10.8 52.5002 10.2C53.1002 9.59998 53.8002 9.29999 54.6002 9.29999C55.6002 9.29999 56.3002 9.59999 56.9002 10.3C57.5002 10.9 57.7002 11.9 57.7002 13.2H53.4002C53.4002 13.7 53.6002 14.1 53.8002 14.4C54.1002 14.7 54.4002 14.8 54.8002 14.8C55.1002 14.8 55.3002 14.7 55.5002 14.6C55.6002 14.4 55.8002 14.2 55.9002 13.8ZM56.0002 12.1C56.0002 11.6 55.9002 11.2 55.6002 11C55.3002 10.8 55.1002 10.6 54.7002 10.6C54.3002 10.6 54.0002 10.7 53.8002 11C53.6002 11.3 53.4002 11.6 53.4002 12.1H56.0002Z" fill="white"/>
<path d="M61.9998 9.39999V10.8H60.7998V13.4C60.7998 13.9 60.7998 14.2 60.7998 14.3C60.7998 14.4 60.8998 14.5 60.9998 14.5C61.0998 14.6 61.1998 14.6 61.2998 14.6C61.4998 14.6 61.6998 14.5 61.9998 14.4L62.0998 15.7C61.6998 15.9 61.1998 16 60.6998 16C60.3998 16 60.0998 15.9 59.8998 15.8C59.6998 15.7 59.4998 15.6 59.3998 15.4C59.2998 15.2 59.1998 15 59.1998 14.7C59.1998 14.5 59.0998 14.1 59.0998 13.5V10.8H58.2998V9.39999H59.0998V8.09998L60.7998 7.09998V9.39999H61.9998Z" fill="white"/>
<path d="M66.9998 13.8L68.6998 14.1C68.4998 14.7 68.0998 15.2 67.6998 15.5C67.2998 15.8 66.5998 16 65.8998 16C64.7998 16 63.8998 15.6 63.3998 14.9C62.9998 14.3 62.7998 13.6 62.7998 12.7C62.7998 11.6 63.0998 10.8 63.5998 10.2C64.1998 9.59998 64.8998 9.29999 65.6998 9.29999C66.6998 9.29999 67.3998 9.59999 67.9998 10.3C68.5998 10.9 68.7998 11.9 68.7998 13.2H64.4998C64.4998 13.7 64.6998 14.1 64.8998 14.4C65.1998 14.7 65.4998 14.8 65.8998 14.8C66.1998 14.8 66.3998 14.7 66.5998 14.6C66.7998 14.4 66.8998 14.2 66.9998 13.8ZM67.0998 12.1C67.0998 11.6 66.9998 11.2 66.6998 11C66.3998 10.8 66.1998 10.6 65.7998 10.6C65.3998 10.6 65.0998 10.7 64.8998 11C64.6998 11.3 64.4998 11.6 64.4998 12.1H67.0998Z" fill="white"/>
<path d="M76.1002 15.9H74.4002V12.6C74.4002 11.9 74.4002 11.4 74.3002 11.2C74.2002 11 74.1002 10.8 73.9002 10.7C73.7002 10.6 73.5002 10.5 73.3002 10.5C73.0002 10.5 72.7002 10.6 72.5002 10.7C72.3002 10.8 72.1002 11.1 72.0002 11.3C71.9002 11.6 71.9002 12.1 71.9002 12.8V15.7H70.2002V9.19998H71.8002V10.2C72.4002 9.49998 73.1002 9.09998 73.9002 9.09998C74.3002 9.09998 74.6002 9.19998 74.9002 9.29998C75.2002 9.39998 75.5002 9.59998 75.6002 9.79998C75.7002 9.99998 75.9002 10.3 75.9002 10.5C76.0002 10.8 76.0002 11.2 76.0002 11.7V15.9H76.1002Z" fill="white"/>
<path d="M15.652 6H17.3756L13.6101 10.3037L18.0399 16.16H14.5714L11.8548 12.6082L8.74636 16.16H7.02176L11.0493 11.5567L6.7998 6H10.3563L12.8119 9.24651L15.652 6ZM15.0471 15.1284H16.0022L9.83738 6.97744H8.81253L15.0471 15.1284Z" fill="white"/>
</g>
</g>
<defs>
<clipPath id="clip0_332_708">
<rect width="83" height="23" fill="white"/>
</clipPath>
</defs>
</svg>
