<svg width="87" height="23" viewBox="0 0 87 23" fill="none" xmlns="http://www.w3.org/2000/svg">
<g clip-path="url(#clip0_332_726)">
<mask id="mask0_332_726" style="mask-type:alpha" maskUnits="userSpaceOnUse" x="0" y="0" width="87" height="23">
<path d="M83.1 0H3.8C1.7 0 0 1.69999 0 3.79999V19.2C0 21.3 1.7 23 3.8 23H83.1C85.2 23 86.9 21.3 86.9 19.2V3.79999C86.8 1.69999 85.1 0 83.1 0Z" fill="#50ABF1"/>
</mask>
<g mask="url(#mask0_332_726)">
<path d="M87 0H0V23H87V0Z" fill="#293136"/>
<path d="M87 0H0V23H87V0Z" fill="#E1E7EC"/>
<path d="M87 0H0V23H87V0Z" fill="#CB1F24"/>
<path d="M87 0H0V23H87V0Z" fill="#3A559F"/>
<path d="M87 0H0V23H87V0Z" fill="black"/>
<path d="M28.1001 8.39999H33.1001V9.79999H31.5001V14.9H29.8001V9.79999H28.1001V8.39999Z" fill="white"/>
<path d="M34.2998 14.8V8.29999H35.9998V14.8H34.2998Z" fill="white"/>
<path d="M37.1001 8.39999H42.1001V9.79999H40.5001V14.9H38.8001V9.79999H37.1001V8.39999Z" fill="white"/>
<path d="M43.2002 7.59998L44.0002 5.79999H45.9002L44.2002 7.59998H43.2002ZM43.3002 14.8V8.29999H45.0002V14.8H43.3002Z" fill="white"/>
<path d="M46.7998 17.3V9.09998C46.7998 7.79998 47.0998 6.9 47.6998 6.5C48.2998 6 48.9998 5.79999 49.7998 5.79999C50.5998 5.79999 51.1998 5.99999 51.7998 6.39999C52.3998 6.79999 52.5998 7.39998 52.5998 8.09998C52.5998 8.49998 52.4998 8.89999 52.1998 9.29999C51.8998 9.59999 51.5998 9.9 51.0998 10C51.7998 10.1 52.2998 10.4 52.5998 10.9C52.8998 11.4 53.0998 11.9 53.0998 12.5C53.0998 13.2 52.8998 13.8 52.4998 14.3C52.0998 14.8 51.4998 15.1 50.6998 15.1C49.7998 15.1 49.0998 14.7 48.4998 14V17.4H46.7998V17.3ZM49.2998 9.5C49.7998 9.5 50.1998 9.39998 50.4998 9.09998C50.7998 8.89998 50.8998 8.59998 50.8998 8.19998C50.8998 7.89998 50.7998 7.59999 50.4998 7.39999C50.2998 7.19999 49.9998 7.09998 49.6998 7.09998C49.3998 7.09998 49.1998 7.19999 48.9998 7.39999C48.7998 7.59999 48.6998 7.79998 48.5998 8.09998C48.4998 8.39998 48.4998 8.79999 48.4998 9.29999V11.1C48.4998 11.7 48.4998 12.1 48.5998 12.4C48.6998 12.7 48.8998 13 49.1998 13.3C49.4998 13.5 49.7998 13.7 50.0998 13.7C50.3998 13.7 50.6998 13.6 50.8998 13.3C51.0998 13 51.1998 12.7 51.1998 12.4C51.1998 11.8 50.9998 11.4 50.6998 11C50.3998 10.7 49.8998 10.5 49.1998 10.5V9.5H49.2998Z" fill="white"/>
<path d="M54.5 14.8V8.29999H56.2V14.8H54.5Z" fill="white"/>
<path d="M65.3001 8.39999V9.79999H63.7001C64.0001 10.3 64.2001 10.9 64.2001 11.6C64.2001 12.5 63.9001 13.4 63.3001 14C62.7001 14.7 61.9001 15 60.9001 15C59.9001 15 59.1001 14.7 58.5001 14.1C57.9001 13.5 57.6001 12.7 57.6001 11.7C57.6001 10.7 57.9001 9.89998 58.5001 9.19998C59.1001 8.59998 59.9001 8.19998 61.0001 8.19998C61.3001 8.19998 61.7001 8.19999 62.1001 8.29999H65.3001V8.39999ZM59.3001 11.6C59.3001 12.2 59.4001 12.7 59.7001 13.1C60.0001 13.5 60.4001 13.6 60.8001 13.6C61.2001 13.6 61.6001 13.4 61.9001 13.1C62.2001 12.8 62.4001 12.3 62.4001 11.6C62.4001 11 62.3001 10.5 62.0001 10.2C61.7001 9.79998 61.3001 9.69998 60.9001 9.69998C60.4001 9.69998 60.0001 9.89998 59.8001 10.2C59.6001 10.5 59.3001 11 59.3001 11.6Z" fill="white"/>
<path d="M66.5 8.39999H68.2V11.4C68.2 12 68.2 12.4 68.3 12.7C68.4 13 68.5 13.3 68.7 13.5C68.9 13.7 69.1 13.8 69.4 13.8C69.7 13.8 69.9 13.7 70.2 13.5C70.4 13.3 70.6 13.1 70.6 12.8C70.6 12.5 70.7 12.1 70.7 11.5V8.5H72.4V15H70.8V14.2C70.5 14.8 70 15.1 69.5 15.1C68.9 15.1 68.5 14.8 68.2 14.2V17.5H66.5V8.39999Z" fill="white"/>
<path d="M79.0998 8.39999H80.5998C80.3998 8.89999 80.1998 9.49998 79.9998 10.2C79.7998 10.9 79.7998 11.5 79.7998 11.7C79.7998 12.1 79.8998 12.6 79.9998 13.2C80.0998 13.8 80.2998 14.4 80.4998 14.9H79.0998C79.0998 14.8 78.9998 14.7 78.9998 14.6C78.8998 14.4 78.7998 14.1 78.7998 13.9C78.2998 14.7 77.5998 15.1 76.6998 15.1C75.7998 15.1 75.0998 14.7 74.5998 14C74.0998 13.3 73.7998 12.5 73.7998 11.5C73.7998 10.6 74.0998 9.79998 74.5998 9.19998C75.0998 8.59998 75.7998 8.29999 76.6998 8.29999C77.5998 8.29999 78.2998 8.69998 78.7998 9.59998C78.7998 9.19998 78.8998 8.79999 79.0998 8.39999ZM75.4998 11.6C75.4998 12.2 75.5998 12.7 75.8998 13.1C76.1998 13.5 76.4998 13.7 76.8998 13.7C77.2998 13.7 77.5998 13.5 77.8998 13.2C78.0998 12.9 78.2998 12.4 78.2998 11.7C78.2998 11 78.1998 10.5 77.8998 10.2C77.5998 9.89998 77.2998 9.69998 76.8998 9.69998C76.4998 9.69998 76.1998 9.89998 75.8998 10.2C75.5998 10.5 75.4998 11 75.4998 11.6Z" fill="white"/>
<path d="M15.652 6H17.3756L13.6101 10.3037L18.0399 16.16H14.5714L11.8548 12.6082L8.74636 16.16H7.02176L11.0493 11.5567L6.7998 6H10.3563L12.8119 9.24651L15.652 6ZM15.0471 15.1284H16.0022L9.83738 6.97744H8.81253L15.0471 15.1284Z" fill="white"/>
</g>
</g>
<defs>
<clipPath id="clip0_332_726">
<rect width="87" height="23" fill="white"/>
</clipPath>
</defs>
</svg>
