<svg width="69" height="23" viewBox="0 0 69 23" fill="none" xmlns="http://www.w3.org/2000/svg">
<g clip-path="url(#clip0_332_746)">
<mask id="mask0_332_746" style="mask-type:alpha" maskUnits="userSpaceOnUse" x="0" y="0" width="69" height="23">
<path d="M65.1 0H3.8C1.7 0 0 1.7 0 3.8V19.2C0 21.3 1.7 23 3.8 23H65.1C67.2 23 68.9 21.3 68.9 19.2V3.8C68.8 1.7 67.1 0 65.1 0Z" fill="#50ABF1"/>
</mask>
<g mask="url(#mask0_332_746)">
<path d="M69 0H0V23H69V0Z" fill="#293136"/>
<path d="M69 0H0V23H69V0Z" fill="#E1E7EC"/>
<path d="M69 0H0V23H69V0Z" fill="#CB1F24"/>
<path d="M69 0H0V23H69V0Z" fill="#3A559F"/>
<path d="M69 0H0V23H69V0Z" fill="black"/>
<path d="M30.7 15.9V8.5H28V7H35.1V8.5H32.4V15.9H30.7Z" fill="white"/>
<path d="M36.6 15.9L34.5 9.39999H36.2L37.4 13.7L38.5 9.39999H40.2L41.3 13.7L42.5 9.39999H44.2L42.1 15.9H40.4L39.3 11.7L38.2 15.9H36.6Z" fill="white"/>
<path d="M48.9002 13.9L50.6002 14.2C50.4002 14.8 50.0002 15.3 49.6002 15.6C49.2002 15.9 48.5002 16.1 47.8002 16.1C46.7002 16.1 45.8002 15.7 45.3002 15C44.9002 14.4 44.7002 13.7 44.7002 12.8C44.7002 11.7 45.0002 10.9 45.5002 10.3C46.1002 9.69999 46.8002 9.39999 47.6002 9.39999C48.6002 9.39999 49.3002 9.69999 49.9002 10.4C50.5002 11 50.7002 12 50.7002 13.3H46.4002C46.4002 13.8 46.6002 14.2 46.8002 14.5C47.1002 14.8 47.4002 14.9 47.8002 14.9C48.1002 14.9 48.3002 14.8 48.5002 14.7C48.7002 14.4 48.8002 14.2 48.9002 13.9ZM49.0002 12.1C49.0002 11.6 48.9002 11.2 48.6002 11C48.3002 10.8 48.1002 10.6 47.7002 10.6C47.3002 10.6 47.0002 10.7 46.8002 11C46.6002 11.3 46.4002 11.6 46.4002 12.1H49.0002Z" fill="white"/>
<path d="M55.9002 13.9L57.6002 14.2C57.4002 14.8 57.0002 15.3 56.6002 15.6C56.2002 15.9 55.5002 16.1 54.8002 16.1C53.7002 16.1 52.8002 15.7 52.3002 15C51.9002 14.4 51.7002 13.7 51.7002 12.8C51.7002 11.7 52.0002 10.9 52.5002 10.3C53.1002 9.69999 53.8002 9.39999 54.6002 9.39999C55.6002 9.39999 56.3002 9.69999 56.9002 10.4C57.5002 11 57.7002 12 57.7002 13.3H53.4002C53.4002 13.8 53.6002 14.2 53.8002 14.5C54.1002 14.8 54.4002 14.9 54.8002 14.9C55.1002 14.9 55.3002 14.8 55.5002 14.7C55.6002 14.4 55.8002 14.2 55.9002 13.9ZM56.0002 12.1C56.0002 11.6 55.9002 11.2 55.6002 11C55.3002 10.8 55.1002 10.6 54.7002 10.6C54.3002 10.6 54.0002 10.7 53.8002 11C53.6002 11.3 53.4002 11.6 53.4002 12.1H56.0002Z" fill="white"/>
<path d="M61.9998 9.4V10.8H60.7998V13.4C60.7998 13.9 60.7998 14.2 60.7998 14.3C60.7998 14.4 60.8998 14.5 60.9998 14.5C61.0998 14.6 61.1998 14.6 61.2998 14.6C61.4998 14.6 61.6998 14.5 61.9998 14.4L62.0998 15.7C61.6998 15.9 61.1998 16 60.6998 16C60.3998 16 60.0998 15.9 59.8998 15.8C59.6998 15.7 59.4998 15.6 59.3998 15.4C59.2998 15.2 59.1998 15 59.1998 14.7C59.1998 14.5 59.0998 14.1 59.0998 13.5V10.7H58.2998V9.3H59.0998V8L60.7998 7V9.3H61.9998V9.4Z" fill="white"/>
<path d="M15.652 6H17.3756L13.6101 10.3037L18.0399 16.16H14.5714L11.8548 12.6082L8.74636 16.16H7.02176L11.0493 11.5567L6.7998 6H10.3563L12.8119 9.24651L15.652 6ZM15.0471 15.1284H16.0022L9.83738 6.97744H8.81253L15.0471 15.1284Z" fill="white"/>
</g>
</g>
<defs>
<clipPath id="clip0_332_746">
<rect width="69" height="23" fill="white"/>
</clipPath>
</defs>
</svg>
