<svg width="75" height="23" viewBox="0 0 75 23" fill="none" xmlns="http://www.w3.org/2000/svg">
<g clip-path="url(#clip0_332_762)">
<mask id="mask0_332_762" style="mask-type:alpha" maskUnits="userSpaceOnUse" x="0" y="0" width="75" height="23">
<path d="M71.1 0H3.8C1.7 0 0 1.69999 0 3.79999V19.2C0 21.3 1.7 23 3.8 23H71.1C73.2 23 74.9 21.3 74.9 19.2V3.79999C74.8 1.69999 73.1 0 71.1 0Z" fill="#50ABF1"/>
</mask>
<g mask="url(#mask0_332_762)">
<path d="M75 0H0V23H75V0Z" fill="#293136"/>
<path d="M75 0H0V23H75V0Z" fill="#E1E7EC"/>
<path d="M75 0H0V23H75V0Z" fill="#CB1F24"/>
<path d="M75 0H0V23H75V0Z" fill="#3A559F"/>
<path d="M75 0H0V23H75V0Z" fill="black"/>
<path d="M30.7 15.9V8.5H28V7H35.1V8.5H32.4V15.9H30.7Z" fill="white"/>
<path d="M39.6999 15.9V14.9C39.4999 15.2 39.1999 15.5 38.7999 15.7C38.3999 15.9 37.9999 16 37.5999 16C37.1999 16 36.7999 15.9 36.3999 15.7C35.9999 15.5 35.7999 15.2 35.5999 14.9C35.3999 14.6 35.3999 14.1 35.3999 13.5V9.39996H37.0999V12.4C37.0999 13.3 37.0999 13.9 37.1999 14.1C37.2999 14.3 37.3999 14.5 37.4999 14.6C37.5999 14.7 37.8999 14.8 38.0999 14.8C38.3999 14.8 38.6999 14.7 38.8999 14.6C39.0999 14.4 39.2999 14.2 39.3999 14C39.4999 13.8 39.4999 13.2 39.4999 12.2V9.5H41.1999V16H39.6999V15.9Z" fill="white"/>
<path d="M43.1001 8.5V6.89996H44.8001V8.5H43.1001ZM43.1001 15.9V9.39996H44.8001V15.9H43.1001Z" fill="white"/>
<path d="M49.4998 9.39996V10.8H48.2998V13.4C48.2998 13.9 48.2998 14.2 48.2998 14.3C48.2998 14.4 48.3998 14.5 48.4998 14.5C48.5998 14.6 48.6998 14.6 48.7998 14.6C48.9998 14.6 49.1998 14.5 49.4998 14.4L49.5998 15.7C49.1998 15.9 48.6998 16 48.1998 16C47.8998 16 47.5998 15.9 47.3998 15.8C47.1998 15.7 46.9998 15.6 46.8998 15.4C46.7998 15.2 46.6998 15 46.6998 14.7C46.6998 14.5 46.5998 14.1 46.5998 13.5V10.8H45.7998V9.39996H46.5998V8.09998L48.2998 7.09998V9.39996H49.4998Z" fill="white"/>
<path d="M54.4998 13.8L56.1998 14.1C55.9998 14.7 55.5998 15.2 55.1998 15.5C54.7998 15.8 54.0998 16 53.3998 16C52.2998 16 51.3998 15.6 50.8998 14.9C50.4998 14.3 50.2998 13.6 50.2998 12.7C50.2998 11.6 50.5998 10.8 51.0998 10.2C51.6998 9.60001 52.3998 9.29999 53.1998 9.29999C54.1998 9.29999 54.8998 9.59999 55.4998 10.3C56.0998 10.9 56.2998 11.9 56.2998 13.2H51.9998C51.9998 13.7 52.1998 14.1 52.3998 14.4C52.6998 14.7 52.9998 14.8 53.3998 14.8C53.6998 14.8 53.8998 14.7 54.0998 14.6C54.1998 14.4 54.3998 14.2 54.4998 13.8ZM54.5998 12.1C54.5998 11.6 54.4998 11.2 54.1998 11C53.8998 10.8 53.6998 10.6 53.2998 10.6C52.8998 10.6 52.5998 10.7 52.3998 11C52.1998 11.3 51.9998 11.6 51.9998 12.1H54.5998Z" fill="white"/>
<path d="M58.9 11.4L57.3 11.1C57.5 10.5 57.8 10 58.2 9.70001C58.6 9.40001 59.3 9.20001 60.1 9.20001C60.9 9.20001 61.4 9.3 61.8 9.5C62.2 9.7 62.4 9.90001 62.6 10.2C62.8 10.5 62.8 11 62.8 11.7V13.7C62.8 14.3 62.8 14.7 62.9 15C63 15.3 63.1 15.6 63.2 15.9H61.5C61.5 15.8 61.4 15.6 61.3 15.4C61.3 15.3 61.3 15.2 61.2 15.2C60.9 15.5 60.6 15.7 60.3 15.8C60 15.9 59.6 16 59.2 16C58.5 16 58 15.8 57.6 15.5C57.2 15.1 57 14.7 57 14.1C57 13.7 57.1 13.4 57.3 13.1C57.5 12.8 57.7 12.6 58 12.4C58.3 12.2 58.8 12.1 59.4 12C60.2 11.8 60.8 11.7 61.1 11.6V11.4C61.1 11.1 61 10.8 60.9 10.7C60.7 10.6 60.4 10.5 60 10.5C59.7 10.5 59.5 10.6 59.3 10.7C59.1 10.8 59.1 11.1 58.9 11.4ZM61.2 12.8C61 12.9 60.6 13 60.2 13.1C59.7 13.2 59.4 13.3 59.3 13.4C59.1 13.6 59 13.8 59 14C59 14.2 59.1 14.4 59.3 14.6C59.5 14.8 59.7 14.9 60 14.9C60.3 14.9 60.6 14.8 60.9 14.6C61.1 14.4 61.2 14.3 61.3 14C61.3 13.9 61.4 13.6 61.4 13.2V12.8H61.2Z" fill="white"/>
<path d="M66.3001 15.9H64.6001V9.39996H66.2001V10.3C66.5001 9.89999 66.7001 9.59996 66.9001 9.39996C67.1001 9.29996 67.4001 9.20001 67.6001 9.20001C68.0001 9.20001 68.4001 9.3 68.7001 9.5L68.2001 11C67.9001 10.8 67.6001 10.7 67.4001 10.7C67.2001 10.7 67.0001 10.8 66.8001 10.9C66.6001 11 66.5001 11.3 66.4001 11.6C66.3001 11.9 66.3001 12.7 66.3001 13.8V15.9Z" fill="white"/>
<path d="M15.652 6H17.3756L13.6101 10.3037L18.0399 16.16H14.5714L11.8548 12.6082L8.74636 16.16H7.02176L11.0493 11.5567L6.7998 6H10.3563L12.8119 9.24651L15.652 6ZM15.0471 15.1284H16.0022L9.83738 6.97744H8.81253L15.0471 15.1284Z" fill="white"/>
</g>
</g>
<defs>
<clipPath id="clip0_332_762">
<rect width="75" height="23" fill="white"/>
</clipPath>
</defs>
</svg>
