<svg width="97" height="23" viewBox="0 0 97 23" fill="none" xmlns="http://www.w3.org/2000/svg">
<g clip-path="url(#clip0_332_780)">
<mask id="mask0_332_780" style="mask-type:alpha" maskUnits="userSpaceOnUse" x="0" y="0" width="97" height="23">
<path d="M93.1 0H3.8C1.7 0 0 1.69999 0 3.79999V19.2C0 21.3 1.7 23 3.8 23H93.1C95.2 23 96.9 21.3 96.9 19.2V3.79999C96.8 1.69999 95.1 0 93.1 0Z" fill="#50ABF1"/>
</mask>
<g mask="url(#mask0_332_780)">
<path d="M97 0H0V23H97V0Z" fill="#293136"/>
<path d="M97 0H0V23H97V0Z" fill="#E1E7EC"/>
<path d="M97 0H0V23H97V0Z" fill="#CB1F24"/>
<path d="M97 0H0V23H97V0Z" fill="#3A559F"/>
<path d="M97 0H0V23H97V0Z" fill="black"/>
<path d="M33.1998 13.9C33.1998 14.1 33.0998 14.5 32.7998 14.9C32.4998 15.3 32.1998 15.7 31.7998 16C31.3998 16.3 30.9998 16.5 30.6998 16.5C30.2998 16.5 29.9998 16.4 29.4998 16.2C29.0998 16 28.5998 15.7 27.7998 15.1L28.0998 14.7C28.4998 14.9 28.7998 15.1 28.9998 15.2C29.1998 15.3 29.4998 15.3 29.6998 15.3C29.9998 15.3 30.2998 15.2 30.4998 15.1C30.6998 15 31.1998 14.6 31.5998 14.2C32.2998 13.6 32.5998 13.1 32.5998 12.8C32.5998 12.6 32.4998 12.4 32.3998 12.2C32.2998 11.9 32.0998 11.6 31.8998 11.4L32.1998 9.70001C32.4998 10 32.6998 10.3 32.7998 10.7C32.9998 11.1 32.9998 11.5 32.9998 12V13.9H33.1998Z" fill="white"/>
<path d="M36.5998 13.8H32.7998V12.1H35.9998C35.9998 11.8 35.8998 11.6 35.7998 11.4C35.6998 11.3 35.5998 11.1 35.3998 10.9L35.8998 9.40002C36.1998 9.70002 36.3998 10.1 36.4998 10.5C36.5998 10.9 36.6998 11.4 36.6998 12.2V13.8H36.5998ZM36.4998 14.9L35.8998 16.1L34.9998 15.6L34.4998 16.6L33.3998 16L34.0998 14.8L34.9998 15.3L35.4998 14.3L36.4998 14.9Z" fill="white"/>
<path d="M43.2002 13.8H36.2002V12.1H40.5002C40.0002 11.6 39.6002 11.2 39.1002 11C38.7002 10.8 38.4002 10.7 38.0002 10.7C37.9002 10.7 37.8002 10.7 37.7002 10.7C37.6002 10.7 37.5002 10.7 37.3002 10.8C37.5002 10.3 37.8002 9.90001 38.0002 9.70001C38.3002 9.50001 38.6002 9.29999 38.9002 9.29999C39.2002 9.29999 39.4002 9.4 39.7002 9.5C39.9002 9.6 40.2002 9.79998 40.5002 10.1C40.7002 10.3 41.1002 10.7 41.5002 11.2C41.8002 11.5 42.0002 11.8 42.2002 11.9C42.4002 12 42.6002 12.1 42.9002 12.2V13.8H43.2002ZM40.9002 15.1L40.2002 16.5L38.8002 15.8L39.5002 14.4L40.9002 15.1Z" fill="white"/>
<path d="M52.1002 13.9C52.1002 14.1 52.0002 14.5 51.7002 14.9C51.4002 15.3 51.1002 15.7 50.7002 16C50.3002 16.3 49.9002 16.5 49.6002 16.5C49.2002 16.5 48.9002 16.4 48.4002 16.2C48.0002 16 47.5002 15.7 46.7002 15.1L47.0002 14.7C47.4002 14.9 47.7002 15.1 47.9002 15.2C48.1002 15.3 48.4002 15.3 48.6002 15.3C48.9002 15.3 49.2002 15.2 49.4002 15.1C49.6002 15 50.1002 14.6 50.5002 14.2C51.2002 13.6 51.5002 13.1 51.5002 12.8C51.5002 12.6 51.4002 12.4 51.3002 12.2C51.2002 11.9 51.0002 11.6 50.8002 11.4L51.1002 9.70001C51.4002 10 51.6002 10.3 51.7002 10.7C51.9002 11.1 51.9002 11.5 51.9002 12V13.9H52.1002Z" fill="white"/>
<path d="M55.4001 13.8H51.6001V12.1H54.8001C54.8001 11.8 54.7001 11.6 54.6001 11.4C54.5001 11.3 54.4001 11.1 54.2001 10.9L54.7001 9.40002C55.0001 9.70002 55.2001 10.1 55.3001 10.5C55.4001 10.9 55.5001 11.4 55.5001 12.2V13.8H55.4001ZM55.4001 14.9L54.7001 16L53.8001 15.5L53.3001 16.5L52.2001 15.9L52.9001 14.7L53.8001 15.2L54.3001 14.2L55.4001 14.9Z" fill="white"/>
<path d="M62 13.8H55V12.1H59.3C58.8 11.6 58.4 11.2 57.9 11C57.5 10.8 57.2 10.7 56.8 10.7C56.7 10.7 56.6 10.7 56.5 10.7C56.4 10.7 56.3 10.7 56.1 10.8C56.3 10.3 56.6 9.90001 56.8 9.70001C57.1 9.50001 57.4 9.29999 57.7 9.29999C58 9.29999 58.2 9.4 58.5 9.5C58.7 9.6 59 9.79998 59.3 10.1C59.5 10.3 59.9 10.7 60.3 11.2C60.6 11.5 60.8 11.8 61 11.9C61.2 12 61.4 12.1 61.7 12.2V13.8H62ZM59.7 15.1L59 16.5L57.6 15.8L58.3 14.4L59.7 15.1Z" fill="white"/>
<path d="M72.6999 10.8C72.6999 11 72.6999 11.2 72.5999 11.4C72.4999 11.6 72.4999 11.7 72.2999 12C72.1999 11.7 72.0999 11.5 71.9999 11.4C71.8999 11.3 71.7999 11.3 71.6999 11.3C71.4999 11.3 71.1999 11.4 70.7999 11.7C70.3999 12 70.1999 12.2 70.1999 12.3C70.1999 12.4 70.2999 12.5 70.3999 12.5C70.4999 12.5 70.6999 12.5 70.8999 12.5C70.9999 12.5 70.9999 12.5 71.0999 12.5C71.1999 12.5 71.1999 12.5 71.2999 12.5C71.6999 12.5 71.9999 12.5 72.1999 12.6C72.2999 12.7 72.3999 12.8 72.3999 13.1C72.3999 13.5 72.2999 14 72.1999 14.4C71.9999 14.9 71.6999 15.3 71.2999 15.5C70.7999 15.8 70.2999 16 69.7999 16.2C69.2999 16.4 68.7999 16.5 68.2999 16.5C66.9999 16.5 66.3999 15.9 66.3999 14.8C66.3999 14.2 66.4999 13.7 66.5999 13.3C66.7999 12.8 67.0999 12.2 67.5999 11.4L67.8999 11.6C67.5999 12.1 67.3999 12.6 67.1999 13C66.9999 13.4 66.9999 13.7 66.9999 14C66.9999 14.8 67.3999 15.2 68.2999 15.2C68.5999 15.2 68.8999 15.2 69.1999 15.1C69.4999 15 69.7999 15 70.0999 14.9C70.2999 14.8 70.4999 14.7 70.7999 14.6C71.1999 14.4 71.3999 14.3 71.3999 14.3C71.5999 14.2 71.6999 14.1 71.6999 14C71.6999 14 71.5999 13.9 71.3999 13.9C71.1999 13.9 71.0999 13.9 70.9999 13.9C70.3999 13.9 69.9999 13.8 69.6999 13.6C69.4999 13.5 69.3999 13.2 69.3999 12.8C69.3999 12.6 69.4999 12.4 69.5999 12.1C69.6999 11.8 69.8999 11.5 70.0999 11.3C70.3999 10.9 70.6999 10.5 70.9999 10.3C71.2999 10.1 71.5999 10 71.8999 10C72.0999 10 72.2999 10.1 72.4999 10.3C72.5999 10.2 72.6999 10.5 72.6999 10.8Z" fill="white"/>
<path d="M75.8002 12C75.8002 12.4 75.8002 12.7 75.7002 13C75.6002 13.3 75.4002 13.7 75.2002 14.2L74.8002 14.1C74.9002 13.6 74.9002 13.2 74.9002 12.8C74.9002 12.6 74.9002 12.2 74.8002 11.7C74.8002 11.2 74.7002 10.7 74.6002 10.3C74.5002 9.79999 74.4002 9.29998 74.3002 8.59998C74.3002 8.39998 74.2002 8.19998 74.2002 8.09998C74.2002 7.99998 74.3002 7.8 74.4002 7.5C74.5002 7.2 74.7002 6.80002 74.9002 6.40002L75.3002 8.59998C75.4002 9.39998 75.5002 10.1 75.6002 10.7C75.8002 11.1 75.8002 11.6 75.8002 12Z" fill="white"/>
<path d="M80.5999 13.8H77.7999C77.4999 13.8 77.2999 13.7 77.1999 13.6C76.9999 13.5 76.8999 13.2 76.8999 12.9C76.8999 12.7 76.8999 12.5 76.8999 12.3C76.8999 12.1 76.8999 11.9 76.9999 11.7H77.1999C77.1999 11.8 77.2999 11.9 77.3999 12C77.4999 12.1 77.5999 12.1 77.7999 12.1H79.8999C79.7999 11.5 79.5999 11 79.3999 10.7C79.1999 10.4 78.8999 10.1 78.5999 9.90002L78.9999 8C79.4999 8.4 79.8999 8.9 80.0999 9.5C80.2999 10.1 80.3999 10.8 80.3999 11.8V13.8H80.5999Z" fill="white"/>
<path d="M90.2001 13.8H83.7001C83.4001 13.8 83.2001 13.7 83.0001 13.6C82.8001 13.5 82.7001 13.2 82.6001 12.9C82.3001 13.3 82.1001 13.5 81.9001 13.6C81.7001 13.7 81.4001 13.8 81.0001 13.8H80.1001V12.1H81.0001C81.5001 12.1 81.8001 12 82.1001 11.7C82.4001 11.4 82.6001 10.9 82.7001 10.3L83.1001 10.4C83.1001 10.5 83.1001 10.7 83.1001 10.8C83.1001 11.1 83.1001 11.3 83.1001 11.4C83.1001 11.6 83.2001 11.8 83.3001 11.9C83.4001 12 83.6001 12.1 83.8001 12.1C84.0001 12.1 84.2001 12.1 84.4001 12C84.6001 11.9 84.8001 11.7 85.2001 11.5L87.4001 9.90002C87.7001 9.70002 87.9001 9.6 88.0001 9.5C88.3001 9.3 88.6001 9.20001 88.9001 9.20001C89.4001 9.20001 89.7001 9.40001 90.0001 9.70001C90.3001 10.1 90.5001 10.6 90.5001 11.4V13.8H90.2001ZM89.4001 11.5C89.4001 11.3 89.3001 11.2 89.0001 11.1C88.8001 11 88.5001 11 88.2001 11C87.9001 11 87.6001 11.1 87.3001 11.3C87.0001 11.5 86.5001 11.8 85.8001 12.3H87.4001C88.7001 12.1 89.4001 11.9 89.4001 11.5Z" fill="white"/>
<path d="M15.652 6H17.3756L13.6101 10.3037L18.0399 16.16H14.5714L11.8548 12.6082L8.74636 16.16H7.02176L11.0493 11.5567L6.7998 6H10.3563L12.8119 9.24651L15.652 6ZM15.0471 15.1284H16.0022L9.83738 6.97744H8.81253L15.0471 15.1284Z" fill="white"/>
</g>
</g>
<defs>
<clipPath id="clip0_332_780">
<rect width="97" height="23" fill="white"/>
</clipPath>
</defs>
</svg>
