<svg width="75" height="23" viewBox="0 0 75 23" fill="none" xmlns="http://www.w3.org/2000/svg">
<g clip-path="url(#clip0_332_801)">
<mask id="mask0_332_801" style="mask-type:alpha" maskUnits="userSpaceOnUse" x="0" y="0" width="75" height="23">
<path d="M71.1 0H3.8C1.7 0 0 1.7 0 3.8V19.2C0 21.3 1.7 23 3.8 23H71.1C73.2 23 74.9 21.3 74.9 19.2V3.8C74.8 1.7 73.1 0 71.1 0Z" fill="#50ABF1"/>
</mask>
<g mask="url(#mask0_332_801)">
<path d="M75 0H0V23H75V0Z" fill="#293136"/>
<path d="M75 0H0V23H75V0Z" fill="#E1E7EC"/>
<path d="M75 0H0V23H75V0Z" fill="#CB1F24"/>
<path d="M75 0H0V23H75V0Z" fill="#3A559F"/>
<path d="M75 0H0V23H75V0Z" fill="black"/>
<path d="M30.7 15.9V8.5H28V7H35.1V8.5H32.4V15.9H30.7Z" fill="white"/>
<path d="M36.6 15.9L34.5 9.39999H36.2L37.4 13.7L38.5 9.39999H40.2L41.3 13.7L42.5 9.39999H44.2L42.1 15.9H40.4L39.3 11.7L38.2 15.9H36.6Z" fill="white"/>
<path d="M45.1001 8.60001V7H46.8001V8.60001H45.1001ZM45.1001 15.9V9.39999H46.8001V15.9H45.1001Z" fill="white"/>
<path d="M51.5999 9.39999V10.8H50.3999V13.4C50.3999 13.9 50.3999 14.2 50.3999 14.3C50.3999 14.4 50.4999 14.5 50.5999 14.5C50.6999 14.6 50.7999 14.6 50.8999 14.6C51.0999 14.6 51.2999 14.5 51.5999 14.4L51.6999 15.7C51.2999 15.9 50.7999 16 50.2999 16C49.9999 16 49.6999 15.9 49.4999 15.8C49.2999 15.7 49.0999 15.6 48.9999 15.4C48.8999 15.2 48.7999 15 48.7999 14.7C48.7999 14.5 48.6999 14.1 48.6999 13.5V10.7H47.8999V9.29999H48.6999V8L50.3999 7V9.29999H51.5999V9.39999Z" fill="white"/>
<path d="M55.8001 9.39999V10.8H54.6001V13.4C54.6001 13.9 54.6001 14.2 54.6001 14.3C54.6001 14.4 54.7001 14.5 54.8001 14.5C54.9001 14.6 55.0001 14.6 55.1001 14.6C55.3001 14.6 55.5001 14.5 55.8001 14.4L55.9001 15.7C55.5001 15.9 55.0001 16 54.5001 16C54.2001 16 53.9001 15.9 53.7001 15.8C53.5001 15.7 53.3001 15.6 53.2001 15.4C53.1001 15.2 53.0001 15 53.0001 14.7C53.0001 14.5 52.9001 14.1 52.9001 13.5V10.7H52.1001V9.29999H52.9001V8L54.6001 7V9.29999H55.8001V9.39999Z" fill="white"/>
<path d="M60.7 13.9L62.4 14.2C62.2 14.8 61.8 15.3 61.4 15.6C61 15.9 60.3 16.1 59.6 16.1C58.5 16.1 57.6 15.7 57.1 15C56.7 14.4 56.5 13.7 56.5 12.8C56.5 11.7 56.8 10.9 57.3 10.3C57.9 9.69999 58.6 9.39999 59.4 9.39999C60.4 9.39999 61.1 9.69999 61.7 10.4C62.3 11 62.5 12 62.5 13.3H58.2C58.2 13.8 58.4 14.2 58.6 14.5C58.9 14.8 59.2 14.9 59.6 14.9C59.9 14.9 60.1 14.8 60.3 14.7C60.5 14.4 60.6 14.2 60.7 13.9ZM60.8 12.1C60.8 11.6 60.7 11.2 60.4 11C60.1 10.8 59.9 10.6 59.5 10.6C59.1 10.6 58.8 10.7 58.6 11C58.4 11.3 58.2 11.6 58.2 12.1H60.8Z" fill="white"/>
<path d="M65.5999 15.9H63.8999V9.39999H65.4999V10.3C65.7999 9.89999 65.9999 9.59999 66.1999 9.39999C66.3999 9.29999 66.6999 9.20001 66.8999 9.20001C67.2999 9.20001 67.6999 9.3 67.9999 9.5L67.4999 11C67.1999 10.8 66.8999 10.7 66.6999 10.7C66.4999 10.7 66.2999 10.8 66.0999 10.9C65.8999 11 65.7999 11.3 65.6999 11.6C65.5999 11.9 65.5999 12.7 65.5999 13.8V15.9Z" fill="white"/>
<path d="M15.652 6H17.3756L13.6101 10.3037L18.0399 16.16H14.5714L11.8548 12.6082L8.74636 16.16H7.02176L11.0493 11.5567L6.7998 6H10.3563L12.8119 9.24651L15.652 6ZM15.0471 15.1284H16.0022L9.83738 6.97744H8.81253L15.0471 15.1284Z" fill="white"/>
</g>
</g>
<defs>
<clipPath id="clip0_332_801">
<rect width="75" height="23" fill="white"/>
</clipPath>
</defs>
</svg>
