<svg width="53" height="23" viewBox="0 0 53 23" fill="none" xmlns="http://www.w3.org/2000/svg">
<g clip-path="url(#clip0_332_819)">
<mask id="mask0_332_819" style="mask-type:alpha" maskUnits="userSpaceOnUse" x="0" y="0" width="53" height="23">
<path d="M49.1 0H3.8C1.7 0 0 1.69999 0 3.79999V19.2C0 21.3 1.7 23 3.8 23H49.1C51.2 23 52.9 21.3 52.9 19.2V3.79999C52.8 1.69999 51.1 0 49.1 0Z" fill="#50ABF1"/>
</mask>
<g mask="url(#mask0_332_819)">
<path d="M53 0H0V23H53V0Z" fill="#293136"/>
<path d="M53 0H0V23H53V0Z" fill="#E1E7EC"/>
<path d="M53 0H0V23H53V0Z" fill="#CB1F24"/>
<path d="M53 0H0V23H53V0Z" fill="#3A559F"/>
<path d="M53 0H0V23H53V0Z" fill="black"/>
<path d="M31.4998 16H29.7998V10.9L27.7998 7.09998H29.6998L31.0998 10C31.4998 9.9 31.6998 9.29999 31.6998 8.29999L31.7998 7.09998H33.4998L33.3998 8.5C33.2998 9.5 33.0998 10.1 32.7998 10.5C32.4998 10.9 32.0998 11.2 31.4998 11.3V16Z" fill="white"/>
<path d="M36.5998 7V13.5H34.7998V7H36.5998Z" fill="white"/>
<path d="M40.0002 7V10.6H38.2002V7H40.0002Z" fill="white"/>
<path d="M46.7 7L46.6 8V8.59998C46.6 8.79998 46.6 8.99998 46.5 9.19998C46.4 9.39998 46.4 9.59999 46.2 9.79999C46.1 9.99999 45.9 10.2 45.8 10.3C45.6 10.5 45.4 10.6 45.2 10.7L46.5 12.8V13.6H41.4V12.1H44.3L41 7.09998H42.9L44.5 9.59998C44.7 9.49998 44.8 9.39999 44.9 9.29999C45 9.19999 45 8.79998 45 8.09998L45.1 7.09998H46.7V7Z" fill="white"/>
<path d="M15.652 6H17.3756L13.6101 10.3037L18.0399 16.16H14.5714L11.8548 12.6082L8.74636 16.16H7.02176L11.0493 11.5567L6.7998 6H10.3563L12.8119 9.24651L15.652 6ZM15.0471 15.1284H16.0022L9.83738 6.97744H8.81253L15.0471 15.1284Z" fill="white"/>
</g>
</g>
<defs>
<clipPath id="clip0_332_819">
<rect width="53" height="23" fill="white"/>
</clipPath>
</defs>
</svg>
