<svg width="48" height="23" viewBox="0 0 48 23" fill="none" xmlns="http://www.w3.org/2000/svg">
<g clip-path="url(#clip0_332_834)">
<mask id="mask0_332_834" style="mask-type:alpha" maskUnits="userSpaceOnUse" x="0" y="0" width="48" height="23">
<path d="M44.1 0H3.8C1.7 0 0 1.69999 0 3.79999V19.2C0 21.3 1.7 23 3.8 23H44.1C46.2 23 47.9 21.3 47.9 19.2V3.79999C47.8 1.69999 46.1 0 44.1 0Z" fill="#50ABF1"/>
</mask>
<g mask="url(#mask0_332_834)">
<path d="M48 0H0V23H48V0Z" fill="#293136"/>
<path d="M48 0H0V23H48V0Z" fill="#E1E7EC"/>
<path d="M48 0H0V23H48V0Z" fill="#CB1F24"/>
<path d="M48 0H0V23H48V0Z" fill="#3A559F"/>
<path d="M48 0H0V23H48V0Z" fill="black"/>
<path d="M27.5 8.79999L33.1 8.70001L33.4 9.29999V9.39999H32.1V11.1L32 11.2H31.1C29.7 11.2 29.1 11.6 29.1 12.4C29.1 13.1 29.7 13.6 30.5 13.6C31.2 13.6 31.8 13.3 32.4 12.7L32.9 13.2V13.3C32.7 13.5 32.5 13.7 32.2 13.9V17L31.6 16.8V16.1C31.3 16.4 31 16.4 30.7 16.4C30.4 16.4 30 16.3 29.6 15.9C29.2 15.6 29 15.2 29 14.8C29 14.5 29.1 14.2 29.5 13.9C28.9 13.4 28.4 12.9 28.4 12.2C28.4 11.2 29.3 10.7 30.4 10.7H31.2C31.3 10.7 31.4 10.6 31.4 10.5V9.60001H27.9L27.5 8.79999ZM30.7 14.2C30.5 14.2 30.4 14.2 30.2 14.1C29.7 14.3 29.5 14.6 29.5 15C29.5 15.4 29.8 15.6 30.2 15.6C30.5 15.6 30.7 15.5 31 15.4C31.3 15.2 31.5 15 31.5 14.4V14C31.2 14.2 31 14.2 30.7 14.2Z" fill="white"/>
<path d="M32.7998 8.79999L33.9998 8.70001C33.8998 7.30001 33.2998 6.60001 32.4998 6.60001C31.8998 6.60001 31.5998 6.99999 31.5998 7.39999C31.5998 7.79999 31.7998 8.09999 31.9998 8.39999L31.8998 8.5L31.2998 8.20001C30.9998 7.90001 30.7998 7.50001 30.7998 7.10001C30.7998 6.50001 31.2998 5.89999 32.0998 5.89999C33.2998 5.89999 34.3998 7.00001 34.5998 8.60001H35.4998L35.7998 9.20001V9.29999H34.6998V14.9L34.5998 15L33.8998 14.8V9.29999H32.9998L32.7998 8.79999Z" fill="white"/>
<path d="M35.2002 8.79999L40.9002 8.70001L41.2002 9.29999V9.39999H39.9002V11.2L39.8002 11.3H38.9002C37.5002 11.3 36.8002 11.7 36.8002 12.5C36.8002 13.2 37.3002 13.7 38.2002 13.7C38.9002 13.7 39.5002 13.4 40.2002 12.7L40.7002 13.3V13.4C40.1002 14.1 39.4002 14.5 38.6002 14.5C37.1002 14.5 36.1002 13.3 36.1002 12.2C36.1002 11.1 37.0002 10.6 38.2002 10.6H39.0002C39.1002 10.6 39.2002 10.5 39.2002 10.4V9.39999H35.6002L35.2002 8.79999Z" fill="white"/>
<path d="M15.652 6H17.3756L13.6101 10.3037L18.0399 16.16H14.5714L11.8548 12.6082L8.74636 16.16H7.02176L11.0493 11.5567L6.7998 6H10.3563L12.8119 9.24651L15.652 6ZM15.0471 15.1284H16.0022L9.83738 6.97744H8.81253L15.0471 15.1284Z" fill="white"/>
</g>
</g>
<defs>
<clipPath id="clip0_332_834">
<rect width="48" height="23" fill="white"/>
</clipPath>
</defs>
</svg>
