<svg width="84" height="23" viewBox="0 0 84 23" fill="none" xmlns="http://www.w3.org/2000/svg">
<g clip-path="url(#clip0_332_848)">
<mask id="mask0_332_848" style="mask-type:alpha" maskUnits="userSpaceOnUse" x="0" y="0" width="84" height="23">
<path d="M80.1 0H3.8C1.7 0 0 1.70002 0 3.80002V19.2C0 21.3 1.7 23 3.8 23H80.1C82.2 23 83.9 21.3 83.9 19.2V3.80002C83.8 1.70002 82.1 0 80.1 0Z" fill="#50ABF1"/>
</mask>
<g mask="url(#mask0_332_848)">
<path d="M84 0H0V23H84V0Z" fill="#293136"/>
<path d="M84 0H0V23H84V0Z" fill="#E1E7EC"/>
<path d="M84 0H0V23H84V0Z" fill="#CB1F24"/>
<path d="M84 0H0V23H84V0Z" fill="#3A559F"/>
<path d="M84 0H0V23H84V0Z" fill="black"/>
<path d="M28.7002 15.9V6.89999H31.4002L33.0002 13L34.6002 6.89999H37.3002V15.9H35.6002V8.80002L33.8002 15.9H32.1002L30.3002 8.80002V15.9H28.7002Z" fill="white"/>
<path d="M42.9002 13.8L44.6002 14.1C44.4002 14.7 44.0002 15.2 43.6002 15.5C43.2002 15.8 42.5002 16 41.8002 16C40.7002 16 39.8002 15.6 39.3002 14.9C38.9002 14.3 38.7002 13.6 38.7002 12.7C38.7002 11.6 39.0002 10.8 39.5002 10.2C40.1002 9.60001 40.8002 9.30002 41.6002 9.30002C42.6002 9.30002 43.3002 9.60002 43.9002 10.3C44.5002 10.9 44.7002 11.9 44.7002 13.2H40.4002C40.4002 13.7 40.6002 14.1 40.8002 14.4C41.1002 14.7 41.4002 14.8 41.8002 14.8C42.1002 14.8 42.3002 14.7 42.5002 14.6C42.6002 14.4 42.8002 14.1 42.9002 13.8ZM43.0002 12.1C43.0002 11.6 42.9002 11.2 42.6002 11C42.3002 10.8 42.1002 10.6 41.7002 10.6C41.3002 10.6 41.0002 10.7 40.8002 11C40.6002 11.3 40.4002 11.6 40.4002 12.1H43.0002Z" fill="white"/>
<path d="M52.0001 15.9H50.3001V12.6C50.3001 11.9 50.3001 11.4 50.2001 11.2C50.1001 11 50.0001 10.8 49.8001 10.7C49.6001 10.6 49.4001 10.5 49.2001 10.5C48.9001 10.5 48.6001 10.6 48.4001 10.7C48.2001 10.8 48.0001 11.1 47.9001 11.3C47.8001 11.6 47.8001 12.1 47.8001 12.8V15.7H46.1001V9.20001H47.7001V10.2C48.3001 9.50001 49.0001 9.10001 49.8001 9.10001C50.2001 9.10001 50.5001 9.20002 50.8001 9.30002C51.1001 9.40002 51.4001 9.60002 51.5001 9.80002C51.6001 10 51.8001 10.3 51.8001 10.5C51.9001 10.8 51.9001 11.2 51.9001 11.7V15.9H52.0001Z" fill="white"/>
<path d="M59.3998 11.3L57.6998 11.6C57.5998 11.3 57.4998 11 57.2998 10.8C57.0998 10.6 56.7998 10.5 56.4998 10.5C56.0998 10.5 55.6998 10.6 55.4998 10.9C55.2998 11.2 55.0998 11.7 55.0998 12.4C55.0998 13.2 55.1998 13.7 55.4998 14C55.7998 14.3 56.0998 14.5 56.4998 14.5C56.7998 14.5 57.0998 14.4 57.2998 14.2C57.4998 14 57.6998 13.7 57.6998 13.2L59.3998 13.5C59.1998 14.3 58.8998 14.9 58.3998 15.3C57.8998 15.7 57.1998 15.9 56.3998 15.9C55.4998 15.9 54.6998 15.6 54.0998 15C53.4998 14.4 53.2998 13.6 53.2998 12.5C53.2998 11.4 53.5998 10.6 54.0998 10C54.6998 9.4 55.3998 9.10001 56.3998 9.10001C57.1998 9.10001 57.7998 9.30001 58.2998 9.60001C58.7998 10.1 59.1998 10.6 59.3998 11.3Z" fill="white"/>
<path d="M60.7002 8.5V6.89999H62.4002V8.5H60.7002ZM60.7002 15.9V9.39999H62.4002V15.9H60.7002Z" fill="white"/>
<path d="M65.5001 11.4L63.9001 11.1C64.1001 10.5 64.4001 10 64.8001 9.70001C65.2001 9.40001 65.9001 9.20001 66.7001 9.20001C67.5001 9.20001 68.0001 9.3 68.4001 9.5C68.8001 9.7 69.0001 9.90001 69.2001 10.2C69.4001 10.5 69.4001 11 69.4001 11.7V13.7C69.4001 14.3 69.4001 14.7 69.5001 15C69.6001 15.3 69.7001 15.6 69.8001 15.9H68.1001C68.1001 15.8 68.0001 15.6 67.9001 15.4C67.9001 15.3 67.9001 15.2 67.8001 15.2C67.5001 15.5 67.2001 15.7 66.9001 15.8C66.6001 15.9 66.2001 16 65.8001 16C65.1001 16 64.6001 15.8 64.2001 15.5C63.8001 15.1 63.6001 14.7 63.6001 14.1C63.6001 13.7 63.7001 13.4 63.9001 13.1C64.1001 12.8 64.3001 12.6 64.6001 12.4C64.9001 12.2 65.4001 12.1 66.0001 12C66.8001 11.8 67.4001 11.7 67.7001 11.6V11.4C67.7001 11.1 67.6001 10.8 67.5001 10.7C67.3001 10.6 67.0001 10.5 66.6001 10.5C66.3001 10.5 66.1001 10.6 65.9001 10.7C65.7001 10.8 65.6001 11.1 65.5001 11.4ZM67.7001 12.8C67.5001 12.9 67.1001 13 66.7001 13.1C66.2001 13.2 65.9001 13.3 65.8001 13.4C65.6001 13.6 65.5001 13.8 65.5001 14C65.5001 14.2 65.6001 14.4 65.8001 14.6C66.0001 14.8 66.2001 14.9 66.5001 14.9C66.8001 14.9 67.1001 14.8 67.4001 14.6C67.6001 14.4 67.7001 14.3 67.8001 14C67.8001 13.9 67.9001 13.6 67.9001 13.2V12.8H67.7001Z" fill="white"/>
<path d="M71.1001 15.9V6.89999H72.8001V11.7L74.8001 9.39999H76.9001L74.7001 11.8L77.1001 15.9H75.2001L73.6001 13L72.8001 13.8V15.9H71.1001Z" fill="white"/>
<path d="M15.652 6H17.3756L13.6101 10.3037L18.0399 16.16H14.5714L11.8548 12.6082L8.74636 16.16H7.02176L11.0493 11.5567L6.7998 6H10.3563L12.8119 9.24651L15.652 6ZM15.0471 15.1284H16.0022L9.83738 6.97744H8.81253L15.0471 15.1284Z" fill="white"/>
</g>
</g>
<defs>
<clipPath id="clip0_332_848">
<rect width="84" height="23" fill="white"/>
</clipPath>
</defs>
</svg>
