<svg width="69" height="23" viewBox="0 0 69 23" fill="none" xmlns="http://www.w3.org/2000/svg">
<g clip-path="url(#clip0_332_866)">
<mask id="mask0_332_866" style="mask-type:alpha" maskUnits="userSpaceOnUse" x="0" y="0" width="69" height="23">
<path d="M65.1 0H3.8C1.7 0 0 1.70002 0 3.80002V19.2C0 21.3 1.7 23 3.8 23H65.1C67.2 23 68.9 21.3 68.9 19.2V3.80002C68.8 1.70002 67.1 0 65.1 0Z" fill="#50ABF1"/>
</mask>
<g mask="url(#mask0_332_866)">
<path d="M69 0H0V23H69V0Z" fill="#293136"/>
<path d="M69 0H0V23H69V0Z" fill="#E1E7EC"/>
<path d="M69 0H0V23H69V0Z" fill="#CB1F24"/>
<path d="M69 0H0V23H69V0Z" fill="#3A559F"/>
<path d="M69 0H0V23H69V0Z" fill="black"/>
<path d="M30.7 15.9V8.5H28V7H35.1V8.5H32.4V15.9H30.7Z" fill="white"/>
<path d="M36.6 15.9L34.5 9.39999H36.2L37.4 13.7L38.5 9.39999H40.2L41.3 13.7L42.5 9.39999H44.2L42.1 15.9H40.4L39.3 11.7L38.2 15.9H36.6Z" fill="white"/>
<path d="M45.1001 8.5V6.89999H46.8001V8.5H45.1001ZM45.1001 15.9V9.39999H46.8001V15.9H45.1001Z" fill="white"/>
<path d="M51.5999 9.39999V10.8H50.3999V13.4C50.3999 13.9 50.3999 14.2 50.3999 14.3C50.3999 14.4 50.4999 14.5 50.5999 14.5C50.6999 14.6 50.7999 14.6 50.8999 14.6C51.0999 14.6 51.2999 14.5 51.5999 14.4L51.6999 15.7C51.2999 15.9 50.7999 16 50.2999 16C49.9999 16 49.6999 15.9 49.4999 15.8C49.2999 15.7 49.0999 15.6 48.9999 15.4C48.8999 15.2 48.7999 15 48.7999 14.7C48.7999 14.5 48.6999 14.1 48.6999 13.5V10.7H47.8999V9.30002H48.6999V8.10001L50.3999 7.10001V9.39999H51.5999Z" fill="white"/>
<path d="M55.8001 9.39999V10.8H54.6001V13.4C54.6001 13.9 54.6001 14.2 54.6001 14.3C54.6001 14.4 54.7001 14.5 54.8001 14.5C54.9001 14.6 55.0001 14.6 55.1001 14.6C55.3001 14.6 55.5001 14.5 55.8001 14.4L55.9001 15.7C55.5001 15.9 55.0001 16 54.5001 16C54.2001 16 53.9001 15.9 53.7001 15.8C53.5001 15.7 53.3001 15.6 53.2001 15.4C53.1001 15.2 53.0001 15 53.0001 14.7C53.0001 14.5 52.9001 14.1 52.9001 13.5V10.7H52.1001V9.30002H52.9001V8.10001L54.6001 7.10001V9.39999H55.8001Z" fill="white"/>
<path d="M58.1999 11.4L56.6999 11.1C56.8999 10.5 57.1999 10 57.5999 9.70001C57.9999 9.40001 58.6999 9.20001 59.4999 9.20001C60.2999 9.20001 60.7999 9.3 61.1999 9.5C61.5999 9.7 61.7999 9.90001 61.9999 10.2C62.1999 10.5 62.1999 11 62.1999 11.7V13.7C62.1999 14.3 62.1999 14.7 62.2999 15C62.3999 15.3 62.4999 15.6 62.5999 15.9H60.8999C60.8999 15.8 60.7999 15.6 60.6999 15.4C60.6999 15.3 60.6999 15.2 60.5999 15.2C60.2999 15.5 59.9999 15.7 59.6999 15.8C59.3999 15.9 58.9999 16 58.5999 16C57.8999 16 57.3999 15.8 56.9999 15.5C56.5999 15.1 56.3999 14.7 56.3999 14.1C56.3999 13.7 56.4999 13.4 56.6999 13.1C56.8999 12.8 57.0999 12.6 57.3999 12.4C57.6999 12.2 58.1999 12.1 58.7999 12C59.5999 11.8 60.1999 11.7 60.4999 11.6V11.4C60.4999 11.1 60.3999 10.8 60.2999 10.7C60.0999 10.6 59.7999 10.5 59.3999 10.5C59.0999 10.5 58.8999 10.6 58.6999 10.7C58.4999 10.8 58.2999 11.1 58.1999 11.4ZM60.4999 12.8C60.2999 12.9 59.8999 13 59.4999 13.1C58.9999 13.2 58.6999 13.3 58.5999 13.4C58.3999 13.6 58.2999 13.8 58.2999 14C58.2999 14.2 58.3999 14.4 58.5999 14.6C58.7999 14.8 58.9999 14.9 59.2999 14.9C59.5999 14.9 59.8999 14.8 60.1999 14.6C60.3999 14.4 60.4999 14.3 60.5999 14C60.5999 13.9 60.6999 13.6 60.6999 13.2V12.8H60.4999Z" fill="white"/>
<path d="M15.652 6H17.3756L13.6101 10.3037L18.0399 16.16H14.5714L11.8548 12.6082L8.74636 16.16H7.02176L11.0493 11.5567L6.7998 6H10.3563L12.8119 9.24651L15.652 6ZM15.0471 15.1284H16.0022L9.83738 6.97744H8.81253L15.0471 15.1284Z" fill="white"/>
</g>
</g>
<defs>
<clipPath id="clip0_332_866">
<rect width="69" height="23" fill="white"/>
</clipPath>
</defs>
</svg>
