<svg width="58" height="23" viewBox="0 0 58 23" fill="none" xmlns="http://www.w3.org/2000/svg">
<g clip-path="url(#clip0_332_474)">
<mask id="mask0_332_474" style="mask-type:alpha" maskUnits="userSpaceOnUse" x="0" y="0" width="58" height="23">
<path d="M54.1 0H3.8C1.7 0 0 1.69999 0 3.79999V19.2C0 21.3 1.7 23 3.8 23H54.1C56.2 23 57.9 21.3 57.9 19.2V3.79999C57.8 1.69999 56.1 0 54.1 0Z" fill="#50ABF1"/>
</mask>
<g mask="url(#mask0_332_474)">
<path d="M58 0H0V23H58V0Z" fill="#293136"/>
<path d="M58 0H0V23H58V0Z" fill="#E1E7EC"/>
<path d="M58 0H0V23H58V0Z" fill="#CB1F24"/>
<path d="M58 0H0V23H58V0Z" fill="#3A559F"/>
<path d="M58 0H0V23H58V0Z" fill="black"/>
<path d="M31.4998 7.69995C31.7998 7.69995 31.5998 7.59998 32.0998 7.59998C32.4998 7.59998 32.5998 7.59995 32.6998 7.69995C32.7998 7.69995 32.9998 7.69995 33.0998 7.69995C33.2998 7.69995 33.4998 7.69995 33.6998 7.69995C33.8998 7.59995 33.7998 7.59998 34.1998 7.59998C34.6998 7.59998 34.8998 7.59999 34.8998 7.79999C34.8998 7.89999 34.7998 8.09995 34.6998 8.19995C34.2998 8.99995 33.9998 9.6 33.7998 10C34.6998 11 34.7998 10.4 35.1998 11.5C35.1998 11.6 35.1998 11.7 35.1998 11.7C35.1998 11.9 35.0998 12.1 34.9998 12.1C34.8998 12.1 34.7998 12 34.6998 11.9C34.3998 11.5 34.0998 10.9 33.5998 10.3C32.7998 11.5 30.9998 13.2 30.6998 13.2H30.5998C30.5998 13.2 30.6998 13 30.7998 12.9C31.7998 11.9 33.3998 9.89998 33.7998 8.09998C33.5998 8.09998 33.3998 8.09995 33.1998 8.19995C32.9998 8.19995 32.9998 8.29999 32.7998 8.29999C32.6998 8.29999 32.5998 8.29995 32.3998 8.19995C32.1998 8.59995 31.7998 9.29998 31.5998 9.59998C31.8998 9.89998 32.3998 9.89999 32.4998 10.3C32.4998 10.4 32.4998 10.5 32.4998 10.6C32.4998 10.8 32.3998 10.9 32.2998 10.9C32.1998 10.9 32.0998 10.8 31.8998 10.6C31.6998 10.3 31.5998 10.1 31.2998 9.79999C30.6998 10.5 30.1998 11.1 29.0998 11.8C28.9998 11.9 28.8998 11.9 28.7998 11.9C28.7998 11.9 28.8998 11.8 28.9998 11.6C29.9998 10.7 30.8998 9.7 31.4998 8C31.2998 8 30.8998 7.99998 30.5998 8.09998C30.3998 8.09998 30.2998 8.19995 30.1998 8.19995C30.0998 8.19995 29.3998 7.89995 29.3998 7.69995C29.3998 7.69995 29.4998 7.59998 29.5998 7.59998C29.6998 7.59998 30.2998 7.69995 30.4998 7.69995C30.6998 7.69995 31.2998 7.69995 31.4998 7.69995ZM37.3998 13.4C36.5998 13.4 34.5998 13.5 33.0998 13.6C32.5998 13.6 32.4998 13.8 32.2998 13.8C31.9998 13.8 30.9998 13.3 30.9998 13.2C30.9998 13.2 31.0998 13.1 31.1998 13.1C31.1998 13.1 31.2998 13.1 31.3998 13.1C31.8998 13.2 32.5998 13.2 33.2998 13.2C34.4998 13.2 35.8998 13.1 36.9998 13.1C37.2998 13.1 37.2998 13 37.6998 13C37.6998 13 37.7998 13 37.8998 13C38.3998 13 38.4998 13.1 38.4998 13.2C38.4998 13.3 38.3998 13.4 38.3998 13.6C38.3998 15.3 38.3998 16.1 38.1998 16.8C38.0998 17.2 37.8998 17.4 37.7998 17.4C37.6998 17.4 37.5998 17.3 37.5998 16.9V13.4H37.3998ZM36.2998 10.3C36.2998 12.1 35.7998 12.2 35.7998 12.2C35.6998 12.2 35.5998 12 35.5998 11.7V7.39996C35.5998 7.09996 35.2998 6.99995 34.5998 6.69995C34.4998 6.69995 34.4998 6.6 34.4998 6.5C34.4998 6.5 34.5998 6.39996 34.8998 6.39996C34.8998 6.39996 36.3998 6.59996 36.3998 6.89996C36.3998 6.99996 36.3998 7.09995 36.3998 7.19995V10L37.6998 9.89996V6.69995C37.6998 6.39995 37.1998 6.19996 36.6998 5.89996C36.5998 5.79996 36.4998 5.79995 36.4998 5.69995C36.4998 5.59995 36.5998 5.59998 36.8998 5.59998C36.9998 5.59998 38.4998 5.99999 38.4998 6.29999C38.4998 6.39999 38.3998 6.49998 38.3998 6.59998V10.3C38.3998 11.1 38.2998 11.7 38.0998 12C37.9998 12.2 37.8998 12.2 37.7998 12.2C37.6998 12.2 37.5998 12 37.5998 11.7V10.3H36.2998Z" fill="white"/>
<path d="M43.9998 7.69995C44.2998 7.69995 44.0998 7.59998 44.5998 7.59998C44.9998 7.59998 45.0998 7.59995 45.1998 7.69995C45.2998 7.69995 45.4998 7.69995 45.5998 7.69995C45.7998 7.69995 45.9998 7.69995 46.1998 7.69995C46.3998 7.59995 46.2998 7.59998 46.6998 7.59998C47.1998 7.59998 47.3998 7.59999 47.3998 7.79999C47.3998 7.89999 47.2998 8.09995 47.1998 8.19995C46.7998 8.99995 46.4998 9.6 46.2998 10C47.1998 11 47.2998 10.4 47.6998 11.5C47.6998 11.6 47.6998 11.7 47.6998 11.7C47.6998 11.9 47.5998 12.1 47.4998 12.1C47.3998 12.1 47.2998 12 47.1998 11.9C46.8998 11.5 46.5998 10.9 46.0998 10.3C45.2998 11.5 43.4998 13.2 43.1998 13.2H43.0998C43.0998 13.2 43.1998 13 43.2998 12.9C44.2998 11.9 45.8998 9.89998 46.2998 8.09998C46.0998 8.09998 45.8998 8.09995 45.6998 8.19995C45.4998 8.19995 45.4998 8.29999 45.2998 8.29999C45.1998 8.29999 45.0998 8.29995 44.8998 8.19995C44.6998 8.59995 44.2998 9.29998 44.0998 9.59998C44.3998 9.89998 44.8998 9.89999 44.9998 10.3C44.9998 10.4 44.9998 10.5 44.9998 10.6C44.9998 10.8 44.8998 10.9 44.7998 10.9C44.6998 10.9 44.5998 10.8 44.3998 10.6C44.1998 10.3 44.0998 10.1 43.7998 9.79999C43.1998 10.5 42.6998 11.1 41.5998 11.8C41.4998 11.9 41.3998 11.9 41.2998 11.9C41.2998 11.9 41.3998 11.8 41.4998 11.6C42.4998 10.7 43.3998 9.7 43.9998 8C43.7998 8 43.3998 7.99998 43.0998 8.09998C42.8998 8.09998 42.7998 8.19995 42.6998 8.19995C42.5998 8.19995 41.8998 7.89995 41.8998 7.69995C41.8998 7.69995 41.9998 7.59998 42.0998 7.59998C42.1998 7.59998 42.7998 7.69995 42.9998 7.69995C43.1998 7.69995 43.7998 7.69995 43.9998 7.69995ZM49.8998 13.4C49.0998 13.4 47.0998 13.5 45.5998 13.6C45.0998 13.6 44.9998 13.8 44.7998 13.8C44.4998 13.8 43.4998 13.3 43.4998 13.2C43.4998 13.2 43.5998 13.1 43.6998 13.1C43.6998 13.1 43.7998 13.1 43.8998 13.1C44.3998 13.2 45.0998 13.2 45.7998 13.2C46.9998 13.2 48.3998 13.1 49.4998 13.1C49.7998 13.1 49.7998 13 50.1998 13C50.1998 13 50.2998 13 50.3998 13C50.8998 13 50.9998 13.1 50.9998 13.2C50.9998 13.3 50.8998 13.4 50.8998 13.6C50.8998 15.3 50.8998 16.1 50.6998 16.8C50.5998 17.2 50.3998 17.4 50.2998 17.4C50.1998 17.4 50.0998 17.3 50.0998 16.9V13.4H49.8998ZM48.7998 10.3C48.7998 12.1 48.2998 12.2 48.2998 12.2C48.1998 12.2 48.0998 12 48.0998 11.7V7.39996C48.0998 7.09996 47.7998 6.99995 47.0998 6.69995C46.9998 6.69995 46.9998 6.6 46.9998 6.5C46.9998 6.5 47.0998 6.39996 47.3998 6.39996C47.3998 6.39996 48.8998 6.59996 48.8998 6.89996C48.8998 6.99996 48.8998 7.09995 48.8998 7.19995V10L50.1998 9.89996V6.69995C50.1998 6.39995 49.6998 6.19996 49.1998 5.89996C49.0998 5.79996 48.9998 5.79995 48.9998 5.69995C48.9998 5.59995 49.0998 5.59998 49.3998 5.59998C49.4998 5.59998 50.9998 5.99999 50.9998 6.29999C50.9998 6.39999 50.8998 6.49998 50.8998 6.59998V10.3C50.8998 11.1 50.7998 11.7 50.5998 12C50.4998 12.2 50.3998 12.2 50.2998 12.2C50.1998 12.2 50.0998 12 50.0998 11.7V10.3H48.7998Z" fill="white"/>
<path d="M15.652 6H17.3756L13.6101 10.3037L18.0399 16.16H14.5714L11.8548 12.6082L8.74636 16.16H7.02176L11.0493 11.5567L6.7998 6H10.3563L12.8119 9.24651L15.652 6ZM15.0471 15.1284H16.0022L9.83738 6.97744H8.81253L15.0471 15.1284Z" fill="white"/>
</g>
</g>
<defs>
<clipPath id="clip0_332_474">
<rect width="58" height="23" fill="white"/>
</clipPath>
</defs>
</svg>
