<svg width="95" height="23" viewBox="0 0 95 23" fill="none" xmlns="http://www.w3.org/2000/svg">
<g clip-path="url(#clip0_332_487)">
<mask id="mask0_332_487" style="mask-type:alpha" maskUnits="userSpaceOnUse" x="0" y="0" width="95" height="23">
<path d="M91.1 0H3.8C1.7 0 0 1.7 0 3.8V19.2C0 21.3 1.7 23 3.8 23H91.1C93.2 23 94.9 21.3 94.9 19.2V3.8C94.8 1.7 93.1 0 91.1 0Z" fill="#50ABF1"/>
</mask>
<g mask="url(#mask0_332_487)">
<path d="M95 0H0V23H95V0Z" fill="#293136"/>
<path d="M95 0H0V23H95V0Z" fill="#E1E7EC"/>
<path d="M95 0H0V23H95V0Z" fill="#CB1F24"/>
<path d="M95 0H0V23H95V0Z" fill="#3A559F"/>
<path d="M95 0H0V23H95V0Z" fill="black"/>
<path d="M32.8999 12.7V11.2H36.7999V14.8C36.3999 15.2 35.8999 15.5 35.1999 15.8C34.4999 16.1 33.7999 16.2 32.9999 16.2C32.0999 16.2 31.1999 16 30.4999 15.6C29.7999 15.2 29.2999 14.6 28.8999 13.9C28.4999 13.2 28.3999 12.4 28.3999 11.5C28.3999 10.6 28.5999 9.70001 28.9999 9.00001C29.3999 8.30001 29.9999 7.70001 30.6999 7.30001C31.2999 7.00001 31.9999 6.90002 32.7999 6.90002C33.8999 6.90002 34.7999 7.10002 35.3999 7.60002C35.9999 8.10002 36.3999 8.70001 36.5999 9.50001L34.7999 9.80001C34.6999 9.40001 34.3999 9.00001 34.0999 8.80001C33.7999 8.50001 33.2999 8.40002 32.7999 8.40002C31.9999 8.40002 31.3999 8.70001 30.8999 9.20001C30.3999 9.70001 30.1999 10.4 30.1999 11.4C30.1999 12.5 30.3999 13.3 30.8999 13.8C31.3999 14.3 31.9999 14.6 32.7999 14.6C33.1999 14.6 33.5999 14.5 33.8999 14.4C34.2999 14.3 34.5999 14.1 34.8999 13.9V12.8H32.8999V12.7Z" fill="white"/>
<path d="M42.2 13.9L43.9 14.2C43.7 14.8 43.3 15.3 42.9 15.6C42.5 15.9 41.8 16.1 41.1 16.1C40 16.1 39.1 15.7 38.6 15C38.2 14.4 38 13.7 38 12.8C38 11.7 38.3 10.9 38.8 10.3C39.4 9.70001 40.1 9.40002 40.9 9.40002C41.9 9.40002 42.6 9.70002 43.2 10.4C43.8 11 44 12 44 13.3H39.7C39.7 13.8 39.9 14.2 40.1 14.5C40.4 14.8 40.7 14.9 41.1 14.9C41.4 14.9 41.6 14.8 41.8 14.7C42 14.4 42.1 14.2 42.2 13.9ZM42.3 12.2C42.3 11.7 42.2 11.3 41.9 11.1C41.6 10.9 41.4 10.7 41 10.7C40.6 10.7 40.3 10.8 40.1 11.1C39.9 11.4 39.7 11.7 39.7 12.2H42.3Z" fill="white"/>
<path d="M45.2998 16V7H46.9998V11.8L48.9998 9.5H51.0998L48.8998 11.9L51.2998 16H49.3998L47.7998 13.1L46.9998 13.9V16H45.2998Z" fill="white"/>
<path d="M53.6 16L51.5 9.5H53.2L54.4 13.8L55.5 9.5H57.2L58.3 13.8L59.5 9.5H61.2L59.1 16H57.4L56.3 11.8L55.2 16H53.6Z" fill="white"/>
<path d="M65.8001 13.9L67.5001 14.2C67.3001 14.8 66.9001 15.3 66.5001 15.6C66.1001 15.9 65.4001 16.1 64.7001 16.1C63.6001 16.1 62.7001 15.7 62.2001 15C61.8001 14.4 61.6001 13.7 61.6001 12.8C61.6001 11.7 61.9001 10.9 62.4001 10.3C63.0001 9.70001 63.7001 9.40002 64.5001 9.40002C65.5001 9.40002 66.2001 9.70002 66.8001 10.4C67.4001 11 67.6001 12 67.6001 13.3H63.3001C63.3001 13.8 63.5001 14.2 63.7001 14.5C64.0001 14.8 64.3001 14.9 64.7001 14.9C65.0001 14.9 65.2001 14.8 65.4001 14.7C65.6001 14.4 65.8001 14.2 65.8001 13.9ZM65.9001 12.2C65.9001 11.7 65.8001 11.3 65.5001 11.1C65.2001 10.9 65.0001 10.7 64.6001 10.7C64.2001 10.7 63.9001 10.8 63.7001 11.1C63.5001 11.4 63.3001 11.7 63.3001 12.2H65.9001Z" fill="white"/>
<path d="M71.9998 9.5V10.9H70.7998V13.5C70.7998 14 70.7998 14.3 70.7998 14.4C70.7998 14.5 70.8998 14.6 70.9998 14.6C71.0998 14.7 71.1998 14.7 71.2998 14.7C71.4998 14.7 71.6998 14.6 71.9998 14.5L72.0998 15.8C71.6998 16 71.1998 16.1 70.6998 16.1C70.3998 16.1 70.0998 16 69.8998 15.9C69.6998 15.8 69.4998 15.7 69.3998 15.5C69.2998 15.3 69.1998 15.1 69.1998 14.8C69.1998 14.6 69.0998 14.2 69.0998 13.6V10.8H68.2998V9.40001H69.0998V8.10001L70.7998 7.10001V9.40001H71.9998V9.5Z" fill="white"/>
<path d="M76.2 9.5V10.9H75V13.5C75 14 75 14.3 75 14.4C75 14.5 75.1 14.6 75.2 14.6C75.3 14.7 75.4 14.7 75.5 14.7C75.7 14.7 75.9 14.6 76.2 14.5L76.3 15.8C75.9 16 75.4 16.1 74.9 16.1C74.6 16.1 74.3 16 74.1 15.9C73.9 15.8 73.7 15.7 73.6 15.5C73.5 15.3 73.4 15.1 73.4 14.8C73.4 14.6 73.3 14.2 73.3 13.6V10.8H72.5V9.40001H73.3V8.10001L75 7.10001V9.40001H76.2V9.5Z" fill="white"/>
<path d="M81.0999 13.9L82.7999 14.2C82.5999 14.8 82.1999 15.3 81.7999 15.6C81.3999 15.9 80.6999 16.1 79.9999 16.1C78.8999 16.1 77.9999 15.7 77.4999 15C77.0999 14.4 76.8999 13.7 76.8999 12.8C76.8999 11.7 77.1999 10.9 77.6999 10.3C78.2999 9.70001 78.9999 9.40002 79.7999 9.40002C80.7999 9.40002 81.4999 9.70002 82.0999 10.4C82.6999 11 82.8999 12 82.8999 13.3H78.5999C78.5999 13.8 78.7999 14.2 78.9999 14.5C79.2999 14.8 79.5999 14.9 79.9999 14.9C80.2999 14.9 80.4999 14.8 80.6999 14.7C80.8999 14.4 81.0999 14.2 81.0999 13.9ZM81.1999 12.2C81.1999 11.7 81.0999 11.3 80.7999 11.1C80.4999 10.9 80.2999 10.7 79.8999 10.7C79.4999 10.7 79.1999 10.8 78.9999 11.1C78.7999 11.4 78.5999 11.7 78.5999 12.2H81.1999Z" fill="white"/>
<path d="M85.9998 16H84.2998V9.49999H85.8998V10.4C86.1998 9.99999 86.3998 9.69999 86.5998 9.49999C86.7998 9.39999 87.0998 9.29999 87.2998 9.29999C87.6998 9.29999 88.0998 9.4 88.3998 9.6L87.8998 11.1C87.5998 10.9 87.2998 10.8 87.0998 10.8C86.8998 10.8 86.6998 10.9 86.4998 11C86.2998 11.1 86.1998 11.4 86.0998 11.7C85.9998 12 85.9998 12.8 85.9998 13.9V16Z" fill="white"/>
<path d="M15.652 6H17.3756L13.6101 10.3037L18.0399 16.16H14.5714L11.8548 12.6082L8.74636 16.16H7.02176L11.0493 11.5567L6.7998 6H10.3563L12.8119 9.24651L15.652 6ZM15.0471 15.1284H16.0022L9.83738 6.97744H8.81253L15.0471 15.1284Z" fill="white"/>
</g>
</g>
<defs>
<clipPath id="clip0_332_487">
<rect width="95" height="23" fill="white"/>
</clipPath>
</defs>
</svg>
