<svg width="79" height="23" viewBox="0 0 79 23" fill="none" xmlns="http://www.w3.org/2000/svg">
<g clip-path="url(#clip0_332_507)">
<mask id="mask0_332_507" style="mask-type:alpha" maskUnits="userSpaceOnUse" x="0" y="0" width="79" height="23">
<path d="M75.1 0H3.8C1.7 0 0 1.70005 0 3.80005V19.2C0 21.3 1.7 23 3.8 23H75.1C77.2 23 78.9 21.3 78.9 19.2V3.80005C78.8 1.70005 77.1 0 75.1 0Z" fill="#50ABF1"/>
</mask>
<g mask="url(#mask0_332_507)">
<path d="M79 0H0V23H79V0Z" fill="#293136"/>
<path d="M79 0H0V23H79V0Z" fill="#E1E7EC"/>
<path d="M79 0H0V23H79V0Z" fill="#CB1F24"/>
<path d="M79 0H0V23H79V0Z" fill="#3A559F"/>
<path d="M79 0H0V23H79V0Z" fill="black"/>
<path d="M30.7 14.7V7.30005H28V5.80005H35.1V7.30005H32.4V14.7H30.7Z" fill="white"/>
<path d="M36.6 14.7L34.5 8.20001H36.2L37.4 12.5L38.5 8.20001H40.2L41.3 12.5L42.5 8.20001H44.2L42.1 14.7H40.4L39.3 10.5L38.2 14.7H36.6Z" fill="white"/>
<path d="M48.9002 12.6L50.6002 12.9C50.4002 13.5 50.0002 14 49.6002 14.3C49.2002 14.6 48.5002 14.8 47.8002 14.8C46.7002 14.8 45.8002 14.4 45.3002 13.7C44.9002 13.1 44.7002 12.4 44.7002 11.5C44.7002 10.4 45.0002 9.6 45.5002 9C46.1002 8.4 46.8002 8.10004 47.6002 8.10004C48.6002 8.10004 49.3002 8.40004 49.9002 9.10004C50.5002 9.70004 50.7002 10.7 50.7002 12H46.4002C46.4002 12.5 46.6002 12.9 46.8002 13.2C47.1002 13.5 47.4002 13.6 47.8002 13.6C48.1002 13.6 48.3002 13.5 48.5002 13.4C48.7002 13.2 48.8002 12.9 48.9002 12.6ZM49.0002 10.9C49.0002 10.4 48.9002 10 48.6002 9.80005C48.3002 9.60005 48.1002 9.40002 47.7002 9.40002C47.3002 9.40002 47.0002 9.50005 46.8002 9.80005C46.6002 10.1 46.4002 10.4 46.4002 10.9H49.0002Z" fill="white"/>
<path d="M55.9002 12.6L57.6002 12.9C57.4002 13.5 57.0002 14 56.6002 14.3C56.2002 14.6 55.5002 14.8 54.8002 14.8C53.7002 14.8 52.8002 14.4 52.3002 13.7C51.9002 13.1 51.7002 12.4 51.7002 11.5C51.7002 10.4 52.0002 9.6 52.5002 9C53.1002 8.4 53.8002 8.10004 54.6002 8.10004C55.6002 8.10004 56.3002 8.40004 56.9002 9.10004C57.5002 9.70004 57.7002 10.7 57.7002 12H53.4002C53.4002 12.5 53.6002 12.9 53.8002 13.2C54.1002 13.5 54.4002 13.6 54.8002 13.6C55.1002 13.6 55.3002 13.5 55.5002 13.4C55.6002 13.2 55.8002 12.9 55.9002 12.6ZM56.0002 10.9C56.0002 10.4 55.9002 10 55.6002 9.80005C55.3002 9.60005 55.0002 9.40002 54.7002 9.40002C54.3002 9.40002 54.0002 9.50005 53.8002 9.80005C53.6002 10.1 53.4002 10.4 53.4002 10.9H56.0002Z" fill="white"/>
<path d="M61.9998 8.20001V9.60004H60.7998V12.2C60.7998 12.7 60.7998 13 60.7998 13.1C60.7998 13.2 60.8998 13.3 60.9998 13.3C61.0998 13.4 61.1998 13.4 61.2998 13.4C61.4998 13.4 61.6998 13.3 61.9998 13.2L62.0998 14.5C61.6998 14.7 61.1998 14.8 60.6998 14.8C60.3998 14.8 60.0998 14.7 59.8998 14.6C59.6998 14.5 59.4998 14.4 59.3998 14.2C59.2998 14 59.1998 13.8 59.1998 13.5C59.1998 13.3 59.0998 12.9 59.0998 12.3V9.5H58.2998V8.10004H59.0998V6.80005L60.7998 5.80005V8.10004H61.9998V8.20001Z" fill="white"/>
<path d="M67.5002 14.7V13.7C67.3002 14 67.0002 14.3 66.6002 14.5C66.2002 14.7 65.8002 14.8 65.4002 14.8C65.0002 14.8 64.6002 14.7 64.2002 14.5C63.8002 14.3 63.6002 14 63.4002 13.7C63.2002 13.4 63.2002 12.9 63.2002 12.3V8.20001H64.9002V11.2C64.9002 12.1 64.9002 12.7 65.0002 12.9C65.1002 13.1 65.2002 13.3 65.3002 13.4C65.4002 13.5 65.7002 13.6 65.9002 13.6C66.2002 13.6 66.5002 13.5 66.7002 13.4C66.9002 13.2 67.1002 13 67.2002 12.8C67.3002 12.6 67.3002 12 67.3002 11V8.30005H69.0002V14.8H67.5002V14.7Z" fill="white"/>
<path d="M72.5999 8.20001V14.5C72.5999 15.3 72.4999 15.9 72.3999 16.3C72.2999 16.6 72.0999 16.9 71.7999 17.1C71.4999 17.3 71.0999 17.4 70.5999 17.4C70.3999 17.4 70.1999 17.4 69.9999 17.4C69.7999 17.4 69.5999 17.3 69.3999 17.3L69.6999 15.8C69.7999 15.8 69.8999 15.8 69.8999 15.8C69.9999 15.8 69.9999 15.8 70.0999 15.8C70.2999 15.8 70.3999 15.8 70.4999 15.7C70.5999 15.6 70.6999 15.5 70.6999 15.4C70.6999 15.3 70.7999 15 70.7999 14.4V8.20001H72.5999ZM70.7999 7.30005V5.70001H72.4999V7.30005H70.7999Z" fill="white"/>
<path d="M15.652 6H17.3756L13.6101 10.3037L18.0399 16.16H14.5714L11.8548 12.6082L8.74636 16.16H7.02176L11.0493 11.5567L6.7998 6H10.3563L12.8119 9.24651L15.652 6ZM15.0471 15.1284H16.0022L9.83738 6.97744H8.81253L15.0471 15.1284Z" fill="white"/>
</g>
</g>
<defs>
<clipPath id="clip0_332_507">
<rect width="79" height="23" fill="white"/>
</clipPath>
</defs>
</svg>
