<svg width="68" height="23" viewBox="0 0 68 23" fill="none" xmlns="http://www.w3.org/2000/svg">
<g clip-path="url(#clip0_332_525)">
<mask id="mask0_332_525" style="mask-type:alpha" maskUnits="userSpaceOnUse" x="0" y="0" width="68" height="23">
<path d="M64.1 0H3.8C1.7 0 0 1.69999 0 3.79999V19.2C0 21.3 1.7 23 3.8 23H64.1C66.2 23 67.9 21.3 67.9 19.2V3.79999C67.8 1.69999 66.1 0 64.1 0Z" fill="#50ABF1"/>
</mask>
<g mask="url(#mask0_332_525)">
<path d="M68 0H0V23H68V0Z" fill="#293136"/>
<path d="M68 0H0V23H68V0Z" fill="#E1E7EC"/>
<path d="M68 0H0V23H68V0Z" fill="#CB1F24"/>
<path d="M68 0H0V23H68V0Z" fill="#3A559F"/>
<path d="M68 0H0V23H68V0Z" fill="black"/>
<path d="M30.7 15.9V8.5H28V7H35.1V8.5H32.4V15.9H30.7Z" fill="white"/>
<path d="M39.6999 15.9V14.9C39.4999 15.2 39.1999 15.5 38.7999 15.7C38.3999 15.9 37.9999 16 37.5999 16C37.1999 16 36.7999 15.9 36.3999 15.7C35.9999 15.5 35.7999 15.2 35.5999 14.9C35.3999 14.6 35.3999 14.1 35.3999 13.5V9.40002H37.0999V12.4C37.0999 13.3 37.0999 13.9 37.1999 14.1C37.2999 14.3 37.3999 14.5 37.4999 14.6C37.5999 14.7 37.8999 14.8 38.0999 14.8C38.3999 14.8 38.6999 14.7 38.8999 14.6C39.0999 14.4 39.2999 14.2 39.3999 14C39.4999 13.8 39.4999 13.2 39.4999 12.2V9.5H41.1999V16H39.6999V15.9Z" fill="white"/>
<path d="M43.1001 8.59998V7H44.8001V8.59998H43.1001ZM43.1001 15.9V9.40002H44.8001V15.9H43.1001Z" fill="white"/>
<path d="M49.4998 9.40002V10.8H48.2998V13.4C48.2998 13.9 48.2998 14.2 48.2998 14.3C48.2998 14.4 48.3998 14.5 48.4998 14.5C48.5998 14.6 48.6998 14.6 48.7998 14.6C48.9998 14.6 49.1998 14.5 49.4998 14.4L49.5998 15.7C49.1998 15.9 48.6998 16 48.1998 16C47.8998 16 47.5998 15.9 47.3998 15.8C47.1998 15.7 46.9998 15.6 46.8998 15.4C46.7998 15.2 46.6998 15 46.6998 14.7C46.6998 14.5 46.5998 14.1 46.5998 13.5V10.7H45.7998V9.29999H46.5998V8L48.2998 7V9.29999H49.4998V9.40002Z" fill="white"/>
<path d="M52.0001 11.4L50.4001 11.1C50.6001 10.5 50.9001 10 51.3001 9.70001C51.7001 9.40001 52.4001 9.20001 53.2001 9.20001C54.0001 9.20001 54.5001 9.3 54.9001 9.5C55.3001 9.7 55.5001 9.90001 55.7001 10.2C55.9001 10.5 55.9001 11 55.9001 11.7V13.7C55.9001 14.3 55.9001 14.7 56.0001 15C56.1001 15.3 56.2001 15.6 56.3001 15.9H54.6001C54.6001 15.8 54.5001 15.6 54.4001 15.4C54.4001 15.3 54.4001 15.2 54.3001 15.2C54.0001 15.5 53.7001 15.7 53.4001 15.8C53.1001 15.9 52.7001 16 52.3001 16C51.6001 16 51.1001 15.8 50.7001 15.5C50.3001 15.1 50.1001 14.7 50.1001 14.1C50.1001 13.7 50.2001 13.4 50.4001 13.1C50.6001 12.8 50.8001 12.6 51.1001 12.4C51.4001 12.2 51.9001 12.1 52.5001 12C53.3001 11.8 53.9001 11.7 54.2001 11.6V11.5C54.2001 11.2 54.1001 10.9 54.0001 10.8C53.8001 10.7 53.5001 10.6 53.1001 10.6C52.8001 10.6 52.6001 10.7 52.4001 10.8C52.2001 10.9 52.1001 11.1 52.0001 11.4ZM54.3001 12.8C54.1001 12.9 53.7001 13 53.3001 13.1C52.8001 13.2 52.5001 13.3 52.4001 13.4C52.2001 13.6 52.1001 13.8 52.1001 14C52.1001 14.2 52.2001 14.4 52.4001 14.6C52.6001 14.8 52.8001 14.9 53.1001 14.9C53.4001 14.9 53.7001 14.8 54.0001 14.6C54.2001 14.4 54.3001 14.3 54.4001 14C54.4001 13.9 54.5001 13.6 54.5001 13.2V12.8H54.3001Z" fill="white"/>
<path d="M59.3001 15.9H57.6001V9.40002H59.2001V10.3C59.5001 9.89999 59.7001 9.60002 59.9001 9.40002C60.1001 9.30002 60.4001 9.20001 60.6001 9.20001C61.0001 9.20001 61.4001 9.3 61.7001 9.5L61.2001 11C60.9001 10.8 60.6001 10.7 60.4001 10.7C60.2001 10.7 60.0001 10.8 59.8001 10.9C59.6001 11 59.5001 11.3 59.4001 11.6C59.3001 11.9 59.3001 12.7 59.3001 13.8V15.9Z" fill="white"/>
<path d="M15.652 6H17.3756L13.6101 10.3037L18.0399 16.16H14.5714L11.8548 12.6082L8.74636 16.16H7.02176L11.0493 11.5567L6.7998 6H10.3563L12.8119 9.24651L15.652 6ZM15.0471 15.1284H16.0022L9.83738 6.97744H8.81253L15.0471 15.1284Z" fill="white"/>
</g>
</g>
<defs>
<clipPath id="clip0_332_525">
<rect width="68" height="23" fill="white"/>
</clipPath>
</defs>
</svg>
