<svg width="70" height="23" viewBox="0 0 70 23" fill="none" xmlns="http://www.w3.org/2000/svg">
<g clip-path="url(#clip0_332_542)">
<mask id="mask0_332_542" style="mask-type:alpha" maskUnits="userSpaceOnUse" x="0" y="0" width="70" height="23">
<path d="M66.1 0H3.8C1.7 0 0 1.69999 0 3.79999V19.2C0 21.3 1.7 23 3.8 23H66.1C68.2 23 69.9 21.3 69.9 19.2V3.79999C69.8 1.69999 68.1 0 66.1 0Z" fill="#50ABF1"/>
</mask>
<g mask="url(#mask0_332_542)">
<path d="M70 0H0V23H70V0Z" fill="#293136"/>
<path d="M70 0H0V23H70V0Z" fill="#E1E7EC"/>
<path d="M70 0H0V23H70V0Z" fill="#CB1F24"/>
<path d="M70 0H0V23H70V0Z" fill="#3A559F"/>
<path d="M70 0H0V23H70V0Z" fill="black"/>
<path d="M30.7 15.9V8.5H28V7H35.1V8.5H32.4V15.9H30.7Z" fill="white"/>
<path d="M36.6 15.9L34.5 9.39996H36.2L37.4 13.7L38.5 9.39996H40.2L41.3 13.7L42.5 9.39996H44.2L42.1 15.9H40.4L39.3 11.7L38.2 15.9H36.6Z" fill="white"/>
<path d="M45.1001 8.5V6.89996H46.8001V8.5H45.1001ZM45.1001 15.9V9.39996H46.8001V15.9H45.1001Z" fill="white"/>
<path d="M51.5999 9.39996V10.8H50.3999V13.4C50.3999 13.9 50.3999 14.2 50.3999 14.3C50.3999 14.4 50.4999 14.5 50.5999 14.5C50.6999 14.6 50.7999 14.6 50.8999 14.6C51.0999 14.6 51.2999 14.5 51.5999 14.4L51.6999 15.8C51.2999 16 50.7999 16.1 50.2999 16.1C49.9999 16.1 49.6999 16 49.4999 15.9C49.2999 15.8 49.0999 15.7 48.9999 15.5C48.8999 15.3 48.7999 15.1 48.7999 14.8C48.7999 14.6 48.6999 14.2 48.6999 13.6V10.8H47.8999V9.39996H48.6999V8.09998L50.3999 7.09998V9.39996H51.5999Z" fill="white"/>
<path d="M54.1002 11.4L52.5002 11.1C52.7002 10.5 53.0002 10 53.4002 9.70001C53.8002 9.40001 54.5002 9.20001 55.3002 9.20001C56.1002 9.20001 56.6002 9.3 57.0002 9.5C57.4002 9.7 57.6002 9.90001 57.8002 10.2C58.0002 10.5 58.0002 11 58.0002 11.7V13.7C58.0002 14.3 58.0002 14.7 58.1002 15C58.2002 15.3 58.3002 15.6 58.4002 15.9H56.7002C56.7002 15.8 56.6002 15.6 56.5002 15.4C56.5002 15.3 56.5002 15.2 56.4002 15.2C56.1002 15.5 55.8002 15.7 55.5002 15.8C55.2002 15.9 54.8002 16 54.4002 16C53.7002 16 53.2002 15.8 52.8002 15.5C52.4002 15.1 52.2002 14.7 52.2002 14.1C52.2002 13.7 52.3002 13.4 52.5002 13.1C52.7002 12.8 52.9002 12.6 53.2002 12.4C53.5002 12.2 54.0002 12.1 54.6002 12C55.4002 11.8 56.0002 11.7 56.3002 11.6V11.4C56.3002 11.1 56.2002 10.8 56.1002 10.7C55.9002 10.6 55.6002 10.5 55.2002 10.5C54.9002 10.5 54.7002 10.6 54.5002 10.7C54.3002 10.8 54.2002 11.1 54.1002 11.4ZM56.4002 12.8C56.2002 12.9 55.8002 13 55.4002 13.1C54.9002 13.2 54.6002 13.3 54.5002 13.4C54.3002 13.6 54.2002 13.8 54.2002 14C54.2002 14.2 54.3002 14.4 54.5002 14.6C54.7002 14.8 54.9002 14.9 55.2002 14.9C55.5002 14.9 55.8002 14.8 56.1002 14.6C56.3002 14.4 56.4002 14.3 56.5002 14C56.5002 13.9 56.6002 13.6 56.6002 13.2V12.8H56.4002Z" fill="white"/>
<path d="M61.4002 15.9H59.7002V9.39996H61.3002V10.3C61.6002 9.89999 61.8002 9.59996 62.0002 9.39996C62.2002 9.29996 62.5002 9.20001 62.7002 9.20001C63.1002 9.20001 63.5002 9.3 63.8002 9.5L63.3002 11C63.0002 10.8 62.7002 10.7 62.5002 10.7C62.3002 10.7 62.1002 10.8 61.9002 10.9C61.7002 11 61.6002 11.3 61.5002 11.6C61.4002 11.9 61.4002 12.7 61.4002 13.8V15.9Z" fill="white"/>
<path d="M15.652 6H17.3756L13.6101 10.3037L18.0399 16.16H14.5714L11.8548 12.6082L8.74636 16.16H7.02176L11.0493 11.5567L6.7998 6H10.3563L12.8119 9.24651L15.652 6ZM15.0471 15.1284H16.0022L9.83738 6.97744H8.81253L15.0471 15.1284Z" fill="white"/>
</g>
</g>
<defs>
<clipPath id="clip0_332_542">
<rect width="70" height="23" fill="white"/>
</clipPath>
</defs>
</svg>
