<svg width="91" height="23" viewBox="0 0 91 23" fill="none" xmlns="http://www.w3.org/2000/svg">
<g clip-path="url(#clip0_332_559)">
<mask id="mask0_332_559" style="mask-type:alpha" maskUnits="userSpaceOnUse" x="0" y="0" width="91" height="23">
<path d="M87.1 0H3.8C1.7 0 0 1.69999 0 3.79999V19.2C0 21.3 1.7 23 3.8 23H87.1C89.2 23 90.9 21.3 90.9 19.2V3.79999C90.8 1.69999 89.1 0 87.1 0Z" fill="#50ABF1"/>
</mask>
<g mask="url(#mask0_332_559)">
<path d="M91 0H0V23H91V0Z" fill="#293136"/>
<path d="M91 0H0V23H91V0Z" fill="#E1E7EC"/>
<path d="M91 0H0V23H91V0Z" fill="#CB1F24"/>
<path d="M91 0H0V23H91V0Z" fill="#3A559F"/>
<path d="M91 0H0V23H91V0Z" fill="black"/>
<path d="M30.7 14.6V7.20001H28V5.70001H35.1V7.20001H32.4V14.6H30.7Z" fill="white"/>
<path d="M35.8999 8.10004H39.6999C40.4999 8.10004 40.9999 8.2 41.3999 8.5C41.7999 8.8 41.9999 9.19999 41.9999 9.79999C41.9999 10.2 41.8999 10.5 41.6999 10.7C41.4999 11 41.1999 11.1 40.8999 11.2C41.2999 11.3 41.6999 11.5 41.8999 11.8C42.0999 12.1 42.1999 12.4 42.1999 12.8C42.1999 13.3 41.9999 13.7 41.5999 14C41.1999 14.3 40.6999 14.5 39.9999 14.5H35.8999V8.10004ZM37.5999 10.8H38.6999C39.1999 10.8 39.5999 10.7 39.8999 10.6C40.1999 10.5 40.2999 10.3 40.2999 10C40.2999 9.7 40.1999 9.50002 39.9999 9.40002C39.7999 9.30002 39.3999 9.20001 38.7999 9.20001H37.6999V10.8H37.5999ZM37.5999 13.5H38.9999C39.4999 13.5 39.7999 13.4 40.0999 13.3C40.2999 13.2 40.3999 13 40.3999 12.7C40.3999 12.4 40.2999 12.2 39.9999 12C39.6999 11.9 39.1999 11.8 38.4999 11.8H37.5999V13.5Z" fill="white"/>
<path d="M43.4999 8.10004H45.1999V12.2L47.7999 8.10004H49.4999V14.6H47.7999V10.4L45.0999 14.6H43.3999V8.10004H43.4999Z" fill="white"/>
<path d="M50.5 8.10004H56.4V9.5H54.3V14.6H52.6V9.5H50.5V8.10004Z" fill="white"/>
<path d="M57.2998 8.10004H58.9998V10.5H61.4998V8.10004H63.1998V14.6H61.4998V11.9H58.9998V14.6H57.2998V8.10004Z" fill="white"/>
<path d="M64.1001 8.10004H65.9001L67.5001 12.7L69.0001 8.10004H70.8001L68.5001 14.3L68.1001 15.4C67.9001 15.8 67.8001 16.1 67.7001 16.3C67.6001 16.5 67.4001 16.7 67.2001 16.8C67.0001 16.9 66.8001 17 66.5001 17.1C66.2001 17.2 65.9001 17.2 65.6001 17.2C65.3001 17.2 64.9001 17.2 64.6001 17.1L64.4001 15.8C64.7001 15.9 64.9001 15.9 65.1001 15.9C65.5001 15.9 65.8001 15.8 66.0001 15.5C66.2001 15.3 66.3001 15 66.4001 14.6L64.1001 8.10004Z" fill="white"/>
<path d="M71.2998 8.10004H77.1998V9.5H75.0998V14.6H73.3998V9.5H71.2998V8.10004Z" fill="white"/>
<path d="M78.2002 8.10004H79.9002V10.8H81.6002C82.3002 10.8 82.8002 10.8 83.2002 10.9C83.6002 11 83.9002 11.2 84.1002 11.5C84.3002 11.8 84.5002 12.2 84.5002 12.6C84.5002 13.2 84.3002 13.7 83.9002 14C83.5002 14.3 82.8002 14.5 82.0002 14.5H78.3002V8.10004H78.2002ZM79.9002 13.6H81.5002C82.0002 13.6 82.3002 13.5 82.5002 13.4C82.7002 13.3 82.7002 13 82.7002 12.8C82.7002 12.5 82.6002 12.3 82.3002 12.2C82.1002 12.1 81.6002 12 81.0002 12H79.9002V13.6Z" fill="white"/>
<path d="M15.652 6H17.3756L13.6101 10.3037L18.0399 16.16H14.5714L11.8548 12.6082L8.74636 16.16H7.02176L11.0493 11.5567L6.7998 6H10.3563L12.8119 9.24651L15.652 6ZM15.0471 15.1284H16.0022L9.83738 6.97744H8.81253L15.0471 15.1284Z" fill="white"/>
</g>
</g>
<defs>
<clipPath id="clip0_332_559">
<rect width="91" height="23" fill="white"/>
</clipPath>
</defs>
</svg>
