<svg width="59" height="23" viewBox="0 0 59 23" fill="none" xmlns="http://www.w3.org/2000/svg">
<g clip-path="url(#clip0_332_617)">
<mask id="mask0_332_617" style="mask-type:alpha" maskUnits="userSpaceOnUse" x="0" y="0" width="59" height="23">
<path d="M55.1 0H3.8C1.7 0 0 1.69999 0 3.79999V19.2C0 21.3 1.7 23 3.8 23H55.1C57.2 23 58.9 21.3 58.9 19.2V3.70001C58.8 1.60001 57.1 0 55.1 0Z" fill="#50ABF1"/>
</mask>
<g mask="url(#mask0_332_617)">
<path d="M59 0H0V23H59V0Z" fill="#293136"/>
<path d="M59 0H0V23H59V0Z" fill="#E1E7EC"/>
<path d="M59 0H0V23H59V0Z" fill="#CB1F24"/>
<path d="M59 0H0V23H59V0Z" fill="#3A559F"/>
<path d="M59 0H0V23H59V0Z" fill="black"/>
<path d="M27.8999 8.20001H33.7999V9.60004H31.6999V14.7H29.9999V9.60004H27.8999V8.20001Z" fill="white"/>
<path d="M34.7998 8.20001H38.5998C39.3998 8.20001 39.8998 8.30004 40.2998 8.60004C40.6998 8.90004 40.8998 9.30002 40.8998 9.90002C40.8998 10.3 40.7998 10.6 40.5998 10.8C40.3998 11.1 40.0998 11.2 39.7998 11.3C40.1998 11.4 40.5998 11.6 40.7998 11.9C40.9998 12.2 41.0998 12.5 41.0998 12.9C41.0998 13.4 40.8998 13.8 40.4998 14.1C40.0998 14.4 39.5998 14.6 38.8998 14.6H34.7998V8.20001ZM36.5998 10.9H37.6998C38.1998 10.9 38.5998 10.8 38.8998 10.7C39.1998 10.6 39.2998 10.4 39.2998 10.1C39.2998 9.80004 39.1998 9.6 38.9998 9.5C38.7998 9.4 38.3998 9.29999 37.7998 9.29999H36.6998V10.9H36.5998ZM36.5998 13.6H37.9998C38.4998 13.6 38.7998 13.5 39.0998 13.4C39.2998 13.3 39.3998 13.1 39.3998 12.8C39.3998 12.5 39.2998 12.3 38.9998 12.1C38.6998 12 38.1998 11.9 37.4998 11.9H36.5998V13.6Z" fill="white"/>
<path d="M42.5 7.29999V5.70001H44.2V7.29999H42.5ZM42.5 14.7V8.20001H44.2V14.7H42.5Z" fill="white"/>
<path d="M45.8999 8.20001H47.4999V9.20001C47.6999 8.90001 47.9999 8.60002 48.2999 8.40002C48.6999 8.20002 48.9999 8.10004 49.4999 8.10004C50.2999 8.10004 50.8999 8.4 51.3999 9C51.8999 9.6 52.1999 10.4 52.1999 11.5C52.1999 12.6 51.8999 13.4 51.3999 14C50.8999 14.6 50.1999 14.9 49.4999 14.9C49.0999 14.9 48.7999 14.8 48.4999 14.7C48.1999 14.6 47.8999 14.3 47.5999 14V17.3H45.8999V8.20001ZM47.5999 11.3C47.5999 12 47.6999 12.6 47.9999 12.9C48.2999 13.2 48.5999 13.4 49.0999 13.4C49.4999 13.4 49.7999 13.2 50.0999 12.9C50.3999 12.6 50.4999 12.1 50.4999 11.3C50.4999 10.6 50.3999 10.1 50.0999 9.79999C49.7999 9.49999 49.4999 9.29999 49.0999 9.29999C48.6999 9.29999 48.2999 9.49999 48.0999 9.79999C47.8999 10.1 47.5999 10.7 47.5999 11.3Z" fill="white"/>
<path d="M15.652 6H17.3756L13.6101 10.3037L18.0399 16.16H14.5714L11.8548 12.6082L8.74636 16.16H7.02176L11.0493 11.5567L6.7998 6H10.3563L12.8119 9.24651L15.652 6ZM15.0471 15.1284H16.0022L9.83738 6.97744H8.81253L15.0471 15.1284Z" fill="white"/>
</g>
</g>
<defs>
<clipPath id="clip0_332_617">
<rect width="59" height="23" fill="white"/>
</clipPath>
</defs>
</svg>
