<svg width="59" height="23" viewBox="0 0 59 23" fill="none" xmlns="http://www.w3.org/2000/svg">
<g clip-path="url(#clip0_332_668)">
<mask id="mask0_332_668" style="mask-type:alpha" maskUnits="userSpaceOnUse" x="0" y="0" width="59" height="23">
<path d="M55.1 0H3.8C1.7 0 0 1.69999 0 3.79999V19.2C0 21.3 1.7 23 3.8 23H55.1C57.2 23 58.9 21.3 58.9 19.2V3.79999C58.8 1.69999 57.1 0 55.1 0Z" fill="#50ABF1"/>
</mask>
<g mask="url(#mask0_332_668)">
<path d="M59 0H0V23H59V0Z" fill="#293136"/>
<path d="M59 0H0V23H59V0Z" fill="#E1E7EC"/>
<path d="M59 0H0V23H59V0Z" fill="#CB1F24"/>
<path d="M59 0H0V23H59V0Z" fill="#3A559F"/>
<path d="M59 0H0V23H59V0Z" fill="black"/>
<path d="M39.5998 16.3L38.9998 17.1C38.1998 16.9 37.4998 16.7 37.0998 16.4C36.6998 16.1 35.9998 15.7 35.1998 15.1C34.1998 16.1 32.8998 16.7 31.1998 17L30.6998 16.2C32.3998 15.8 33.6998 15.3 34.4998 14.5C33.8998 13.8 33.2998 13 32.7998 12C32.1998 13.7 30.8998 15.3 28.9998 16.7L28.2998 15.9C30.4998 14.5 31.8998 12.5 32.4998 9.79999H29.5998V9L30.6998 6.09999L31.4998 6.5L30.5998 8.89999H32.6998C32.8998 8.19999 32.9998 7.19999 33.1998 5.89999L34.0998 6.09999C33.8998 7.49999 33.7998 8.39999 33.6998 8.89999H39.0998V9.79999H33.4998L33.1998 10.8H37.4998V11.6C36.9998 12.7 36.3998 13.7 35.6998 14.4C36.5998 15.3 37.8998 15.9 39.5998 16.3ZM36.3998 11.8H33.6998C34.1998 12.7 34.6998 13.4 35.0998 13.8C35.5998 13.2 35.9998 12.5 36.3998 11.8ZM37.4998 8.09999L36.6998 8.7C36.2998 8 35.5998 7.39999 34.6998 6.89999L35.3998 6.29999C36.1998 6.69999 36.8998 7.39999 37.4998 8.09999Z" fill="white"/>
<path d="M44.9999 12.4L43.6999 12.9V15.8C43.6999 16.4 43.5999 16.8 43.2999 16.9C42.9999 17 42.4999 17.1 41.6999 17.1L41.2999 16.1C41.6999 16.1 41.8999 16.1 42.0999 16.1C42.4999 16.1 42.6999 16 42.6999 15.8V13.1C42.1999 13.3 41.7999 13.5 41.4999 13.6L40.8999 12.8C41.5999 12.6 42.1999 12.4 42.6999 12.2V9.2H41.1999V8.29999H42.6999V5.89999H43.6999V8.29999H44.9999V9.2H43.6999V11.8C44.0999 11.7 44.4999 11.5 44.9999 11.3V12.4ZM52.2999 16.2H46.5999V17.1H45.5999V10C45.3999 10.4 45.0999 10.8 44.7999 11.2L43.8999 10.7C45.1999 9.4 45.9999 7.79999 46.4999 5.89999L47.2999 6.2C46.9999 7.3 46.7999 8 46.6999 8.2H48.2999C48.5999 7.5 48.8999 6.79999 49.0999 5.89999L49.9999 6.2C49.7999 6.8 49.5999 7.5 49.2999 8.2H51.8999V9.09999H49.3999V10.5H51.1999V11.4H49.3999V12.9H51.1999V13.8H49.3999V15.4H52.1999V16.2H52.2999ZM48.4999 10.4V9H46.5999V10.4H48.4999ZM48.4999 12.8V11.3H46.5999V12.8H48.4999ZM48.4999 15.3V13.7H46.5999V15.3H48.4999Z" fill="white"/>
<path d="M15.652 6H17.3756L13.6101 10.3037L18.0399 16.16H14.5714L11.8548 12.6082L8.74636 16.16H7.02176L11.0493 11.5567L6.7998 6H10.3563L12.8119 9.24651L15.652 6ZM15.0471 15.1284H16.0022L9.83738 6.97744H8.81253L15.0471 15.1284Z" fill="white"/>
</g>
</g>
<defs>
<clipPath id="clip0_332_668">
<rect width="59" height="23" fill="white"/>
</clipPath>
</defs>
</svg>
